<svg xmlns="http://www.w3.org/2000/svg" xmlns:xlink="http://www.w3.org/1999/xlink" viewBox="0 0 146.17 124.43"><defs><style>.cls-1,.cls-9{fill:none;}.cls-2{clip-path:url(#clip-path);}.cls-3{fill:#edf0f5;}.cls-4{fill:#2d9b3d;}.cls-5{fill:#206d29;}.cls-6{fill:#38c61a;}.cls-7{fill:#efd803;}.cls-8{fill:#fffce6;}.cls-9{stroke:#fff;stroke-miterlimit:10;stroke-width:1.07px;}.cls-10{fill:#d33916;}.cls-11{fill:#fff;}.cls-12{fill:#f6f7f0;}.cls-13{fill:#d6d6d6;}.cls-14{fill:#c1ae5d;}.cls-15{opacity:0.12;}.cls-16{fill:#303030;}</style><clipPath id="clip-path" transform="translate(-32.92 -45)"><rect class="cls-1" width="212" height="212"/></clipPath></defs><title>bar</title><g id="Layer_2" data-name="Layer 2"><g id="Layer_1-2" data-name="Layer 1"><g class="cls-2"><rect class="cls-3" y="91.45" width="146.17" height="13.59" rx="5.91" ry="5.91"/><path class="cls-4" d="M145.38,108.6v44.83a5.31,5.31,0,0,1-5.3,5.3H113.4a5.31,5.31,0,0,1-5.3-5.3V108.6c0-.46,0-.95.05-1.46a61.63,61.63,0,0,1,3-13.68c1.78-5.52,4.09-10.8,6.25-13.73a12.72,12.72,0,0,0,2.38-7.5V67.53h14v4.71a13.22,13.22,0,0,0,.61,4,12.13,12.13,0,0,0,1.77,3.51c4.05,5.52,8.67,19.34,9.21,27.41C145.36,107.66,145.38,108.14,145.38,108.6Z" transform="translate(-32.92 -45)"/><path class="cls-5" d="M142.58,108.6v44.83a2.5,2.5,0,0,1-2.5,2.5H113.4a2.5,2.5,0,0,1-2.5-2.5V108.6c0-.4,0-.82,0-1.27a49.76,49.76,0,0,1,1.67-9.06c1.82.29,3.34.59,4.34.8,8,1.61,9.42,3.62,14.76,4.82a24.3,24.3,0,0,0,10.41.11c.2,1.19.34,2.32.41,3.34C142.57,107.78,142.58,108.21,142.58,108.6Z" transform="translate(-32.92 -45)"/><path class="cls-5" d="M142.58,108.6v44.83a2.5,2.5,0,0,1-2.5,2.5H113.4a2.5,2.5,0,0,1-2.5-2.5V108.6c0-.4,0-.82,0-1.27a49.76,49.76,0,0,1,1.67-9.06c1.82.29,3.34.59,4.34.8,8,1.61,9.42,3.62,14.76,4.82a24.3,24.3,0,0,0,10.41.11c.2,1.19.34,2.32.41,3.34C142.57,107.78,142.58,108.21,142.58,108.6Z" transform="translate(-32.92 -45)"/><path class="cls-6" d="M142.58,108.6v44.06h-5.75V108.6c0-.46,0-.95-.05-1.46-.54-8.07-2.63-20.75-6-26.72a7.9,7.9,0,0,1-.93-4.82l1.55-.16c0,.16.09.62.14.78a12.13,12.13,0,0,0,1.77,3.51c4.05,5.52,8.67,19.34,9.21,27.41C142.57,107.66,142.58,108.14,142.58,108.6Z" transform="translate(-32.92 -45)"/><path class="cls-4" d="M133.91,47.34v1.77H119.58V47.34A2.34,2.34,0,0,1,121.91,45h9.66A2.34,2.34,0,0,1,133.91,47.34Z" transform="translate(-32.92 -45)"/><path class="cls-7" d="M135.82,50.37v6.11a1.26,1.26,0,0,1-1.26,1.26h-.65v8.39H119.58V57.74h-.65a1.26,1.26,0,0,1-1.26-1.26V50.37a1.26,1.26,0,0,1,1.26-1.26h15.64A1.26,1.26,0,0,1,135.82,50.37Z" transform="translate(-32.92 -45)"/><path class="cls-8" d="M133.34,50.37v6.11a1.26,1.26,0,0,1-1.26,1.26h-.65v8.39h-1.55V57.74h.65a1.26,1.26,0,0,0,1.26-1.26V50.37a1.26,1.26,0,0,0-1.26-1.26h1.55A1.26,1.26,0,0,1,133.34,50.37Z" transform="translate(-32.92 -45)"/><line class="cls-9" x1="77.94" y1="90.58" x2="110.64" y2="90.58"/><path class="cls-10" d="M127.63,104.1l5-.73v8.37c0,2.11-4.15,2.26-5,4Z" transform="translate(-32.92 -45)"/><path class="cls-11" d="M127.27,104.1l-5-.73v8.37c0,2.11,4.15,2.26,5,4Z" transform="translate(-32.92 -45)"/><path class="cls-12" d="M94.88,103.23v18.23H61.71V103.23c0-5,3-5.67,3.48-9.73H91.4C91.9,97.55,94.88,98.24,94.88,103.23Z" transform="translate(-32.92 -45)"/><path class="cls-12" d="M94.65,153.16c-.69,2.62-2.73,2.39-3.23,4.66a5.28,5.28,0,0,0-.11,1.13h-26a2.53,2.53,0,0,0-.25-1.13c-.66-1.38-2.49-1.93-3.11-4.66Z" transform="translate(-32.92 -45)"/><path class="cls-10" d="M94.88,121.46V151.1a8.15,8.15,0,0,1-.23,2.06H61.92a9.25,9.25,0,0,1-.21-2.06V121.46Z" transform="translate(-32.92 -45)"/><path class="cls-13" d="M91.4,93.5H65.19a9.62,9.62,0,0,0,.08-1.24H91.32A9.62,9.62,0,0,0,91.4,93.5Z" transform="translate(-32.92 -45)"/><path class="cls-13" d="M91.42,157.82a5.28,5.28,0,0,0-.11,1.13h-26a2.53,2.53,0,0,0-.25-1.13Z" transform="translate(-32.92 -45)"/><path class="cls-10" d="M94.88,121.46V151.1a8.15,8.15,0,0,1-.23,2.06H61.92a9.25,9.25,0,0,1-.21-2.06V121.46Z" transform="translate(-32.92 -45)"/><path class="cls-10" d="M78.65,125.06l4.75-.69v8.21c0,1.08-1.21,1.62-2.48,2.18a6.46,6.46,0,0,0-2.27,1.38Z" transform="translate(-32.92 -45)"/><path class="cls-11" d="M83.27,124.52v8.06c0,1-1.17,1.51-2.4,2.06a8,8,0,0,0-2.08,1.17V125.17l4.48-.65m.27-.31-5,.73v11.65c.87-1.75,5-1.89,5-4v-8.37Z" transform="translate(-32.92 -45)"/><path class="cls-11" d="M78.15,124.94l-5-.73v8.37c0,2.11,4.15,2.26,5,4Z" transform="translate(-32.92 -45)"/><rect class="cls-14" x="28.71" y="94.48" width="33.25" height="6.37"/><rect class="cls-14" x="43.78" y="55.49" width="3.11" height="6.99"/><path class="cls-11" d="M91.32,92.25a9.63,9.63,0,0,0,.08,1.24c.51,4.06,3.48,4.74,3.48,9.73V151.1a8.14,8.14,0,0,1-.23,2.06c-.69,2.62-2.73,2.39-3.23,4.66a5.29,5.29,0,0,0-.11,1.13h-26a2.53,2.53,0,0,0-.25-1.13c-.66-1.38-2.49-1.93-3.11-4.66a9.24,9.24,0,0,1-.21-2.06V103.23c0-5,3-5.67,3.48-9.73a9.63,9.63,0,0,0,.08-1.24H91.32m2.43-2.43H62.83v2.43a7.26,7.26,0,0,1-.06.93,7,7,0,0,1-1.32,3.12,11.68,11.68,0,0,0-2.18,6.93V151.1a11.59,11.59,0,0,0,.27,2.6,8.56,8.56,0,0,0,2.68,4.51,4.44,4.44,0,0,1,.61.66.24.24,0,0,1,0,.08v2.43h30.9v-2.43a3,3,0,0,1,.05-.61c.06-.27.1-.33.68-.82A6.82,6.82,0,0,0,97,153.77a10.51,10.51,0,0,0,.31-2.68V103.23a11.68,11.68,0,0,0-2.18-6.93,7,7,0,0,1-1.32-3.11,7.3,7.3,0,0,1-.06-.94V89.82Z" transform="translate(-32.92 -45)"/><g class="cls-15"><path d="M78.84,157.82a2.59,2.59,0,0,1,.24,1.13H65.27a2.59,2.59,0,0,0-.24-1.13c-.67-1.38-2.49-1.93-3.11-4.66a8.89,8.89,0,0,1-.21-2.06V103.23c0-5,3-5.67,3.48-9.73a10.4,10.4,0,0,0,.08-1.24H79.08A10.4,10.4,0,0,1,79,93.5c-.51,4.05-3.48,4.73-3.48,9.73v47.87a8.89,8.89,0,0,0,.21,2.06C76.35,155.88,78.17,156.43,78.84,157.82Z" transform="translate(-32.92 -45)"/></g><rect class="cls-16" x="32.23" y="69.06" width="26.47" height="2.3" rx="1" ry="1"/><path class="cls-12" d="M117.9,111.28v18.23H84.73V111.28c0-5,3-5.67,3.48-9.73h26.21C114.92,105.61,117.9,106.29,117.9,111.28Z" transform="translate(-32.92 -45)"/><path class="cls-12" d="M117.67,161.21c-.69,2.62-2.73,2.39-3.23,4.66a5.28,5.28,0,0,0-.11,1.13h-26a2.53,2.53,0,0,0-.25-1.13c-.66-1.38-2.49-1.93-3.11-4.66Z" transform="translate(-32.92 -45)"/><path class="cls-10" d="M117.9,129.52v29.63a8.15,8.15,0,0,1-.23,2.06H84.94a9.25,9.25,0,0,1-.21-2.06V129.52Z" transform="translate(-32.92 -45)"/><path class="cls-13" d="M114.41,101.55H88.21a9.62,9.62,0,0,0,.08-1.24h26.05A9.62,9.62,0,0,0,114.41,101.55Z" transform="translate(-32.92 -45)"/><path class="cls-13" d="M114.44,165.87a5.28,5.28,0,0,0-.11,1.13h-26a2.53,2.53,0,0,0-.25-1.13Z" transform="translate(-32.92 -45)"/><path class="cls-10" d="M117.9,129.52v29.63a8.15,8.15,0,0,1-.23,2.06H84.94a9.25,9.25,0,0,1-.21-2.06V129.52Z" transform="translate(-32.92 -45)"/><path class="cls-10" d="M101.67,133.11l4.75-.69v8.21c0,1.08-1.21,1.62-2.48,2.18a6.46,6.46,0,0,0-2.27,1.38Z" transform="translate(-32.92 -45)"/><path class="cls-11" d="M106.28,132.58v8.06c0,1-1.17,1.51-2.4,2.06a8,8,0,0,0-2.08,1.17V133.23l4.48-.65m.27-.31-5,.73v11.65c.87-1.75,5-1.89,5-4v-8.37Z" transform="translate(-32.92 -45)"/><path class="cls-11" d="M101.17,133l-5-.73v8.37c0,2.11,4.15,2.26,5,4Z" transform="translate(-32.92 -45)"/><rect class="cls-14" x="51.73" y="102.54" width="33.25" height="6.37"/><rect class="cls-14" x="66.8" y="63.54" width="3.11" height="6.99"/><path class="cls-11" d="M114.34,100.31a9.6,9.6,0,0,0,.08,1.24c.51,4.06,3.48,4.74,3.48,9.73v47.87a8.14,8.14,0,0,1-.23,2.06c-.69,2.62-2.73,2.39-3.23,4.66a5.28,5.28,0,0,0-.11,1.13h-26a2.53,2.53,0,0,0-.25-1.13c-.66-1.38-2.49-1.93-3.11-4.66a9.25,9.25,0,0,1-.21-2.06V111.28c0-5,3-5.67,3.48-9.73a9.6,9.6,0,0,0,.08-1.24h26.05m2.43-2.43H85.85v2.43a7.25,7.25,0,0,1-.06.93,7,7,0,0,1-1.32,3.12,11.68,11.68,0,0,0-2.18,6.93v47.87a11.6,11.6,0,0,0,.27,2.6,8.57,8.57,0,0,0,2.68,4.51,4.44,4.44,0,0,1,.61.66.24.24,0,0,1,0,.08v2.43h30.9V167a2.9,2.9,0,0,1,.05-.61c.06-.27.1-.33.68-.82a6.82,6.82,0,0,0,2.52-3.75,10.51,10.51,0,0,0,.31-2.68V111.28a11.68,11.68,0,0,0-2.18-6.93,7,7,0,0,1-1.32-3.11,7.28,7.28,0,0,1-.06-.94V97.88Z" transform="translate(-32.92 -45)"/><g class="cls-15"><path d="M101.86,165.87a2.59,2.59,0,0,1,.24,1.13H88.29a2.59,2.59,0,0,0-.24-1.13c-.67-1.38-2.49-1.93-3.11-4.66a8.89,8.89,0,0,1-.21-2.06V111.28c0-5,3-5.67,3.48-9.73a10.4,10.4,0,0,0,.08-1.24H102.1a10.4,10.4,0,0,1-.08,1.24c-.51,4.05-3.48,4.73-3.48,9.73v47.87a8.89,8.89,0,0,0,.21,2.06C99.37,163.94,101.19,164.49,101.86,165.87Z" transform="translate(-32.92 -45)"/></g><rect class="cls-16" x="55.25" y="78.26" width="26.47" height="2.3" rx="1" ry="1"/></g></g></g></svg>