<svg xmlns="http://www.w3.org/2000/svg" xmlns:xlink="http://www.w3.org/1999/xlink" viewBox="0 0 180 120.73"><defs><style>.cls-1{fill:none;}.cls-2{clip-path:url(#clip-path);}.cls-3{fill:#fff;}.cls-4{fill:#cc4f11;}.cls-5{fill:#fddc36;}.cls-6{fill:#ea5513;}.cls-7{fill:#edf0f5;}.cls-8{fill:#f5af5f;}.cls-9{fill:#db9b5a;}.cls-10{fill:#5e412d;}.cls-11{fill:#3ea94d;}.cls-12{fill:#dd603e;}.cls-13{fill:#dd8c7a;}.cls-14{fill:#f4af36;}.cls-15{fill:#34933d;}.cls-16{fill:#e89f56;}</style><clipPath id="clip-path" transform="translate(-16 -44.2)"><rect class="cls-1" width="212" height="212"/></clipPath></defs><title>burger</title><g id="Layer_2" data-name="Layer 2"><g id="Layer_1-2" data-name="Layer 1"><g class="cls-2"><path class="cls-3" d="M163.57,69.76V81.48c1.59.14,3.11.37,4.56.64.35-3.35.55-5.72.52-6.44l8.61,1.94c0,.71-.31,3.3-.75,6.92,1.6.63,3,1.28,4.24,1.9.17-.42.34-.85.51-1.27l7,5.31-.46,1a9.68,9.68,0,0,1,.61,1,10,10,0,0,1,1.22,5l-12.47,47.93H142L129.48,97.4a10.86,10.86,0,0,1,1.22-5,10.38,10.38,0,0,1,.84-1.35l-.28-.58,6.85-5.31c.15.36.29.73.43,1.09,1.19-.59,2.59-1.24,4.2-1.85-.42-3.56-.7-6.09-.72-6.79l8.45-1.94c0,.71.17,3.07.5,6.4,1.42-.27,2.92-.47,4.48-.61V69.76h8.1m2.81-2.81H152.67v5.37l-2.81.63-2,.46-6.45,1.48-2.22.51,0,2.28c0,.44.08,1.31.34,3.61l-.24-.6L136.41,83l-6.85,5.31-1.8,1.4.59,1.21-.12.23a13.71,13.71,0,0,0-1.54,6.27v.37l.09.35L139.24,146l.55,2.1h39.53l.55-2.1,12.47-47.93.08-.32v-.33A12.77,12.77,0,0,0,191,91.3l.81-1.63-1.85-1.4-3.25-2.47L183,82.95l-2.89-2.2-.39.94c.3-2.59.38-3.53.39-4l0-2.29-2.24-.5-4.31-1-4.31-1-2.89-.65V66.95Z" transform="translate(-16 -44.2)"/><path class="cls-4" d="M177.15,145.33H142L129.48,97.4a10.86,10.86,0,0,1,1.22-5A11.41,11.41,0,0,1,137,87.11a46.87,46.87,0,0,1,20.82-5.78A47.34,47.34,0,0,1,184,88.26a9.88,9.88,0,0,1,5.61,9.14Z" transform="translate(-16 -44.2)"/><path class="cls-5" d="M147,124.89h-8.48A73.22,73.22,0,0,0,135,99.83a71.7,71.7,0,0,0-3.77-9.34l6.85-5.31c1.23,3,2.4,6.22,3.47,9.64A122.71,122.71,0,0,1,147,124.89Z" transform="translate(-16 -44.2)"/><path class="cls-5" d="M155.47,124.89H147c.22-6.56-4.89-44.2-5-47.27l8.45-1.94C150.34,78.92,155,116.19,155.47,124.89Z" transform="translate(-16 -44.2)"/><path class="cls-5" d="M172.23,124.89h8.64a72,72,0,0,1,3.54-25.06,70.94,70.94,0,0,1,3.84-9.34l-7-5.31c-1.25,3-2.45,6.22-3.54,9.64A120.66,120.66,0,0,0,172.23,124.89Z" transform="translate(-16 -44.2)"/><path class="cls-5" d="M163.57,124.89h8.64c-.23-6.56,5-44.2,5-47.27l-8.61-1.94C168.8,78.92,164,116.19,163.57,124.89Z" transform="translate(-16 -44.2)"/><rect class="cls-5" x="139.47" y="25.56" width="8.1" height="55.14"/><path class="cls-3" d="M178.56,139.83h-38l-9.2-32.94H143c.49.08,4.92-8.28,15.92-8.28,12.37,0,14,8.92,17.88,8.28h11Z" transform="translate(-16 -44.2)"/><path class="cls-6" d="M177.59,145.33H141.51l-8.73-32.94h13a14.86,14.86,0,0,1,13.1-9.63,15.06,15.06,0,0,1,15,9.63h12.39Z" transform="translate(-16 -44.2)"/><path class="cls-4" d="M132.78,112.35l5.67,33h12.21c-4.68-9.33-3.36-21.59-4.2-33Z" transform="translate(-16 -44.2)"/><line class="cls-6" x1="130.99" y1="65.99" x2="180" y2="25.56"/><rect class="cls-7" y="104.5" width="174.5" height="16.23" rx="5.91" ry="5.91"/><path class="cls-8" d="M15.58,94.28h106A2.41,2.41,0,0,1,124,96.69v4.61a7.23,7.23,0,0,1-7.23,7.23H20.4a7.23,7.23,0,0,1-7.23-7.23V96.69A2.41,2.41,0,0,1,15.58,94.28Z"/><path class="cls-9" d="M60.17,152.72H39.11a10,10,0,0,1-9.94-9.92v-1a3.32,3.32,0,0,1,3.32-3.3H53.55a3.32,3.32,0,0,0-3.32,3.3v1A10,10,0,0,0,60.17,152.72Z" transform="translate(-16 -44.2)"/><rect class="cls-10" x="15.89" y="58.56" width="105.12" height="14.85" rx="4.04" ry="4.04"/><rect class="cls-10" x="15.89" y="73.32" width="105.12" height="14.85" rx="4.04" ry="4.04"/><path class="cls-3" d="M139.31,100.74H29.65v.14c-3.38.6-5.91,3.1-5.91,6.1,0,3.44,3.35,6.23,7.47,6.23a7.84,7.84,0,0,0,6.45-3.09,6.5,6.5,0,0,0,6.84-.1,8.27,8.27,0,0,0,13,.1,6.5,6.5,0,0,0,6.84-.1,8.27,8.27,0,0,0,13,.1,6.5,6.5,0,0,0,6.29.21,8.31,8.31,0,0,0,12.75-.21,6.5,6.5,0,0,0,6.84-.1,8.27,8.27,0,0,0,13,.1A6.5,6.5,0,0,0,123,110a8.27,8.27,0,0,0,13,.1,6.38,6.38,0,0,0,3.34.92c3.23,0,5.85-2.31,5.85-5.15S142.54,100.74,139.31,100.74Z" transform="translate(-16 -44.2)"/><path class="cls-3" d="M136,136.43H33.44v.12c-3.16.54-5.53,2.79-5.53,5.49,0,3.1,3.13,5.62,7,5.62a7.44,7.44,0,0,0,6-2.79,6.27,6.27,0,0,0,6.39-.09,7.92,7.92,0,0,0,12.13.09,6.27,6.27,0,0,0,6.39-.09,7.92,7.92,0,0,0,12.13.09,6.28,6.28,0,0,0,5.88.19,7.51,7.51,0,0,0,5.89,2.59,7.44,7.44,0,0,0,6-2.79,6.27,6.27,0,0,0,6.39-.09,7.92,7.92,0,0,0,12.13.09,6.27,6.27,0,0,0,6.39-.09,7.92,7.92,0,0,0,12.13.09,6.14,6.14,0,0,0,3.12.83c3,0,5.47-2.08,5.47-4.64S139,136.43,136,136.43Z" transform="translate(-16 -44.2)"/><path class="cls-11" d="M64.63,140.93a1.5,1.5,0,0,0,.25.13,3.25,3.25,0,0,1-.55.22A3.62,3.62,0,0,0,64.63,140.93Z" transform="translate(-16 -44.2)"/><path class="cls-11" d="M83.15,140.93a2.28,2.28,0,0,0,.25.13,4.29,4.29,0,0,1-.57.24A2,2,0,0,0,83.15,140.93Z" transform="translate(-16 -44.2)"/><path class="cls-11" d="M119.49,140.93a2.28,2.28,0,0,0,.25.13,4.12,4.12,0,0,1-.55.24A2.66,2.66,0,0,0,119.49,140.93Z" transform="translate(-16 -44.2)"/><path class="cls-11" d="M138.28,141.07l-.58.24a2.86,2.86,0,0,0,.32-.38A1.69,1.69,0,0,0,138.28,141.07Z" transform="translate(-16 -44.2)"/><path class="cls-11" d="M65.5,140.73a5,5,0,0,0,.74.84,5.56,5.56,0,0,1-1.36-.51A5.55,5.55,0,0,0,65.5,140.73Z" transform="translate(-16 -44.2)"/><path class="cls-11" d="M83.52,141a1.42,1.42,0,0,0,.18.21,3.32,3.32,0,0,1-.3-.16Z" transform="translate(-16 -44.2)"/><path class="cls-11" d="M121.09,141.57a5.77,5.77,0,0,1-1.36-.51,4.59,4.59,0,0,0,.62-.33A5,5,0,0,0,121.09,141.57Z" transform="translate(-16 -44.2)"/><path class="cls-12" d="M41,117.54H70.47c-.08,4.11-6.65,7.43-14.73,7.43S41.09,121.66,41,117.54Z" transform="translate(-16 -44.2)"/><path class="cls-13" d="M44.27,117.77H67.2c-.06,3.2-5.17,5.78-11.46,5.78S44.34,121,44.27,117.77Z" transform="translate(-16 -44.2)"/><path class="cls-12" d="M68.44,117.54H97.9c-.08,4.11-6.65,7.43-14.73,7.43S68.52,121.66,68.44,117.54Z" transform="translate(-16 -44.2)"/><path class="cls-13" d="M71.71,117.77H94.63c-.06,3.2-5.17,5.78-11.46,5.78S71.77,121,71.71,117.77Z" transform="translate(-16 -44.2)"/><path class="cls-5" d="M66.39,117.61h63.29s-20.62,20.45-22.55,20.45C102.51,138.07,102,125.6,66.39,117.61Z" transform="translate(-16 -44.2)"/><ellipse class="cls-14" cx="102.68" cy="77.16" rx="3.4" ry="2.22"/><ellipse class="cls-14" cx="75.11" cy="76.01" rx="1.63" ry="1.06"/><ellipse class="cls-14" cx="84.48" cy="80.82" rx="3.94" ry="2.57"/><ellipse class="cls-14" cx="95.25" cy="83.34" rx="1.95" ry="1.27"/><ellipse class="cls-14" cx="90.64" cy="75.96" rx="1.95" ry="1.27"/><ellipse class="cls-14" cx="90.64" cy="88.17" rx="1.95" ry="1.27"/><path class="cls-3" d="M84.59,49.56C115.19,49.56,140,69,140,93.08q0,1.21-.08,2.4h-.6c3.23,0,5.85,2.31,5.85,5.15s-2.62,5.15-5.85,5.15a6.38,6.38,0,0,1-3.34-.92l-.08.11a5.11,5.11,0,0,1,1.12,3.17v4.11a5.52,5.52,0,0,1-5,5.32,5.52,5.52,0,0,1,5,5.32V127a5.58,5.58,0,0,1-5.74,5.37h4.34c3,0,5.47,2.08,5.47,4.64a4.27,4.27,0,0,1-1.49,3.17,3,3,0,0,1,.4,1.49v1.44c0,5.28-4.62,9.61-10.26,9.61H39.43c-5.64,0-10.26-4.32-10.26-9.61v-1.44s0-.05,0-.08A5,5,0,0,1,27.54,138c0-2.7,2.37-5,5.53-5.49v-.12h4.56A5.58,5.58,0,0,1,31.89,127v-4.11a5.52,5.52,0,0,1,5-5.32,5.52,5.52,0,0,1-5-5.32v-4.11c0-.07,0-.14,0-.21l-.69,0c-4.13,0-7.47-2.79-7.47-6.23,0-3,2.53-5.5,5.91-6.1v-.14h-.39q-.09-1.19-.08-2.4c0-24,24.81-43.53,55.41-43.53m0-3.83c-15.66,0-30.41,4.82-41.55,13.57-11.41,9-17.69,21-17.69,33.79v0a9.92,9.92,0,0,0-5.43,8.6c0,4.57,3.45,8.45,8.15,9.67v.86a8.92,8.92,0,0,0,1.77,5.32,8.92,8.92,0,0,0-1.77,5.32V127a8.85,8.85,0,0,0,.55,3.08,9.24,9.24,0,0,0-4.9,7.91,8.6,8.6,0,0,0,1.63,5v.12c0,7.41,6.32,13.44,14.09,13.44h90.31c7.77,0,14.09-6,14.09-13.44v-1.44q0-.32,0-.63a7.85,7.85,0,0,0,1.12-4,8.36,8.36,0,0,0-4.51-7.26,8.85,8.85,0,0,0,.44-2.75v-4.11a8.92,8.92,0,0,0-1.77-5.32,8.92,8.92,0,0,0,1.77-5.32V109.5a9.23,9.23,0,0,0,8.15-8.87,8.93,8.93,0,0,0-5.16-7.94c-.13-12.68-6.4-24.52-17.69-33.39C115,50.54,100.24,45.73,84.59,45.73Z" transform="translate(-16 -44.2)"/><path class="cls-11" d="M135.62,132.37H33.07v.12c-3.16.54-5.53,2.79-5.53,5.49,0,3.1,3.13,5.62,7,5.62a7.44,7.44,0,0,0,6-2.79,6.27,6.27,0,0,0,6.39-.09,7.92,7.92,0,0,0,12.13.09,6.27,6.27,0,0,0,6.39-.09,7.92,7.92,0,0,0,12.13.09,6.28,6.28,0,0,0,5.88.19,7.51,7.51,0,0,0,5.89,2.59,7.44,7.44,0,0,0,6-2.79,6.27,6.27,0,0,0,6.39-.09,7.92,7.92,0,0,0,12.13.09,6.27,6.27,0,0,0,6.39-.09,7.92,7.92,0,0,0,12.13.09,6.14,6.14,0,0,0,3.12.83c3,0,5.47-2.08,5.47-4.64S138.64,132.37,135.62,132.37Z" transform="translate(-16 -44.2)"/><path class="cls-15" d="M135.61,132.37a6.65,6.65,0,0,1,1.16.11H57.13v.12c-3.16.54-5.53,2.8-5.53,5.5,0,2.25,1.66,4.2,4.05,5.09a8.3,8.3,0,0,1-2.59.41A7.4,7.4,0,0,1,47,140.73a6.16,6.16,0,0,1-3.28.92,6.09,6.09,0,0,1-3.12-.83,7.46,7.46,0,0,1-6,2.78c-3.86,0-7-2.51-7-5.61,0-2.7,2.37-5,5.53-5.5v-.12Z" transform="translate(-16 -44.2)"/><path class="cls-11" d="M139.31,95.48H29.65v.14c-3.38.6-5.91,3.1-5.91,6.1,0,3.44,3.35,6.23,7.47,6.23a7.84,7.84,0,0,0,6.45-3.09,6.5,6.5,0,0,0,6.84-.1,8.27,8.27,0,0,0,13,.1,6.5,6.5,0,0,0,6.84-.1,8.27,8.27,0,0,0,13,.1,6.5,6.5,0,0,0,6.29.21,8.31,8.31,0,0,0,12.75-.21,6.5,6.5,0,0,0,6.84-.1,8.27,8.27,0,0,0,13,.1,6.5,6.5,0,0,0,6.84-.1,8.27,8.27,0,0,0,13,.1,6.38,6.38,0,0,0,3.34.92c3.23,0,5.85-2.31,5.85-5.15S142.54,95.48,139.31,95.48Z" transform="translate(-16 -44.2)"/><path class="cls-15" d="M51.38,101.72A6,6,0,0,0,54.94,107a8.29,8.29,0,0,1-3.91.93,7.84,7.84,0,0,1-6.53-3.19,6.52,6.52,0,0,1-6.83.09,7.85,7.85,0,0,1-6.46,3.09c-4.12,0-7.48-2.79-7.48-6.23,0-3,2.54-5.5,5.91-6.11v-.13H57.29v.13C53.92,96.22,51.38,98.72,51.38,101.72Z" transform="translate(-16 -44.2)"/><path class="cls-8" d="M27.92,94.43l-.1-1.33c-.06-.81-.09-1.65-.09-2.5,0-24.79,25.5-45,56.85-45s56.85,20.17,56.85,45c0,.84,0,1.68-.09,2.5l-.1,1.33Z" transform="translate(-16 -44.2)"/><path class="cls-3" d="M84.59,47.07c30.6,0,55.41,19.49,55.41,43.53q0,1.21-.08,2.4H29.26q-.09-1.19-.08-2.4c0-24,24.81-43.53,55.41-43.53m0-2.87C52.45,44.2,26.3,65,26.3,90.6c0,.88,0,1.76.09,2.6l.19,2.67h116l.19-2.67c.06-.85.09-1.72.09-2.6,0-25.58-26.15-46.4-58.29-46.4Z" transform="translate(-16 -44.2)"/><path class="cls-9" d="M50.23,90.74c0,.75,0,1.51.08,2.25h-21c-.07-.79-.09-1.59-.09-2.4,0-24,24.81-43.53,55.41-43.53a72,72,0,0,1,11,.86C69.8,51.64,50.23,69.39,50.23,90.74Z" transform="translate(-16 -44.2)"/><polygon class="cls-16" points="92.73 15.44 90.35 13.21 85.11 17.67 92.73 15.44"/><polygon class="cls-16" points="82.6 11.25 80.4 10.42 78.32 14.67 82.6 11.25"/><polygon class="cls-16" points="66.69 12.92 67.19 15.1 72.11 14.33 66.69 12.92"/><polygon class="cls-16" points="73.79 7.3 71.59 6.47 69.51 10.72 73.79 7.3"/><polygon class="cls-16" points="63.77 9.94 61.57 9.11 59.48 13.35 63.77 9.94"/><polygon class="cls-16" points="55.15 9.94 52.95 9.11 50.86 13.35 55.15 9.94"/><polygon class="cls-16" points="42.31 13.88 40.11 13.05 38.03 17.3 42.31 13.88"/><polygon class="cls-16" points="87.3 22.02 85.82 19.96 81.06 22.66 87.3 22.02"/><polygon class="cls-16" points="74.88 20.81 72.32 19.85 69.89 24.78 74.88 20.81"/><polygon class="cls-16" points="61.82 18.38 58.56 19.63 61.01 26.24 61.82 18.38"/><polygon class="cls-16" points="51.91 20.58 49.71 19.75 47.62 23.99 51.91 20.58"/><polygon class="cls-16" points="37.66 20.58 35.46 19.75 33.38 23.99 37.66 20.58"/><polygon class="cls-16" points="34.98 26.78 32.27 28.66 38.35 32.41 34.98 26.78"/><polygon class="cls-16" points="109.42 26.82 107.22 25.99 105.14 30.24 109.42 26.82"/><polygon class="cls-16" points="95.76 26.21 96.71 24.17 92.24 22.1 95.76 26.21"/><polygon class="cls-16" points="79.53 26.82 77.33 25.99 75.25 30.24 79.53 26.82"/><polygon class="cls-16" points="68.1 26.82 65.9 25.99 63.82 30.24 68.1 26.82"/><polygon class="cls-16" points="56.72 26.94 54.34 26.04 52.09 30.63 56.72 26.94"/><polygon class="cls-16" points="83.92 36.27 80.21 34.18 75.13 41.26 83.92 36.27"/><polygon class="cls-16" points="97.08 31.77 94.88 30.94 92.8 35.19 97.08 31.77"/><polygon class="cls-16" points="89.87 27.83 87.67 27 85.59 31.24 89.87 27.83"/><polygon class="cls-16" points="65.32 35.82 66.79 37.57 70.85 34.85 65.32 35.82"/><polygon class="cls-16" points="48.74 35.72 46.54 34.89 44.45 39.14 48.74 35.72"/><polygon class="cls-16" points="44.18 26.86 42.79 28.66 46.68 31.58 44.18 26.86"/><polygon class="cls-16" points="60.05 36.7 57.85 35.87 55.77 40.12 60.05 36.7"/></g></g></g></svg>