<svg xmlns="http://www.w3.org/2000/svg" xmlns:xlink="http://www.w3.org/1999/xlink" viewBox="0 0 160 130.33"><defs><style>.cls-1,.cls-13{fill:none;}.cls-2{clip-path:url(#clip-path);}.cls-3{fill:#edf0f5;}.cls-4{fill:#cca685;}.cls-4,.cls-6,.cls-9{stroke:#fff;stroke-linecap:round;stroke-linejoin:round;}.cls-13,.cls-4,.cls-6,.cls-9{stroke-width:4px;}.cls-5{fill:#b39174;}.cls-6{fill:#f1c49d;}.cls-7{fill:#e0b692;}.cls-8{fill:#f7ddc3;}.cls-9{fill:#e8bd97;}.cls-10{fill:#cfa887;}.cls-11{fill:#f5c8a2;}.cls-12{fill:#5b3629;}.cls-13{stroke:#cad2db;stroke-miterlimit:10;}</style><clipPath id="clip-path" transform="translate(-26 -41.07)"><rect class="cls-1" width="212" height="212"/></clipPath></defs><title>crepe</title><g id="Layer_2" data-name="Layer 2"><g id="Layer_1-2" data-name="Layer 1"><g class="cls-2"><rect class="cls-3" y="110.48" width="160" height="14.88" rx="5.91" ry="5.91"/><path class="cls-4" d="M151.24,118.06c-21.36,3.69-47.92-1.9-64.45-6.47L95.4,69.77c.61,7.78,9.06,19.73,22.52,30.65C129.46,109.78,141.9,116.14,151.24,118.06Z" transform="translate(-26 -41.07)"/><path class="cls-5" d="M96,79.4l-6.25,30.38c3.18.85,6.68,1.72,10.41,2.54,1.64-6.16,4.7-11.9,7.68-17.59A67.53,67.53,0,0,1,96,79.4Z" transform="translate(-26 -41.07)"/><path class="cls-6" d="M67.46,169.11a4.13,4.13,0,0,1-5.58-4.52l8.78-54.22a3,3,0,0,1,3.93-2.48c2.74.91,7,2.26,12.19,3.7,16.52,4.57,43.08,10.16,64.45,6.47a61.64,61.64,0,0,0,7.36-1.72c4.2-1.27,5.92-1.33,5.71-.45C163,121.08,93.49,159,67.46,169.11Z" transform="translate(-26 -41.07)"/><path class="cls-7" d="M86.75,115.19c-4.54-1.25-8.2-2.42-10.58-3.21a2.61,2.61,0,0,0-3.41,2.15l-7.6,47A3.59,3.59,0,0,0,70,165c6-2.31,14.6-6.31,24.07-11,1.32-12.37,6-23.6,12-34.42C98.86,118.32,92.18,116.69,86.75,115.19Z" transform="translate(-26 -41.07)"/><path class="cls-8" d="M88.39,131.72c1-2.27,4.31-3.12,7.38-1.91s4.74,4,3.74,6.3-4.31,3.12-7.38,1.91S87.38,134,88.39,131.72Z" transform="translate(-26 -41.07)"/><path class="cls-8" d="M80.05,121.08c1.59-3.58,7.11-4.81,12.33-2.75s8.16,6.63,6.57,10.21-7.11,4.81-12.33,2.75S78.46,124.65,80.05,121.08Z" transform="translate(-26 -41.07)"/><path class="cls-8" d="M72.36,125.65a9.33,9.33,0,0,1,11.8-5,8.43,8.43,0,0,1,4.51,11.42,9.33,9.33,0,0,1-11.8,5A8.43,8.43,0,0,1,72.36,125.65Z" transform="translate(-26 -41.07)"/><path class="cls-8" d="M84.15,142.23a3.47,3.47,0,0,1,4.22-2.14c1.53.61,2.14,2.55,1.34,4.33a3.47,3.47,0,0,1-4.22,2.14C84,146,83.36,144,84.15,142.23Z" transform="translate(-26 -41.07)"/><path class="cls-8" d="M97.16,144.32a1.62,1.62,0,0,1,2-1,1.46,1.46,0,0,1,.63,2,1.62,1.62,0,0,1-2,1A1.46,1.46,0,0,1,97.16,144.32Z" transform="translate(-26 -41.07)"/><path class="cls-8" d="M109.67,131.5c1.43-.57,3.27.49,4.1,2.36s.35,3.85-1.08,4.41-3.27-.49-4.1-2.36S108.24,132.06,109.67,131.5Z" transform="translate(-26 -41.07)"/><path class="cls-8" d="M110.6,123.16c2.26-.89,5.24,1,6.65,4.14s.74,6.48-1.52,7.38-5.24-1-6.65-4.14S108.34,124.05,110.6,123.16Z" transform="translate(-26 -41.07)"/><path class="cls-8" d="M105.21,121.84a5.79,5.79,0,0,1,7.39,2.92,5.23,5.23,0,0,1-3,7,5.79,5.79,0,0,1-7.39-2.92A5.23,5.23,0,0,1,105.21,121.84Z" transform="translate(-26 -41.07)"/><path class="cls-8" d="M103.23,134.31a2.15,2.15,0,0,1,2.8.88,2,2,0,0,1-1.29,2.5,2.15,2.15,0,0,1-2.8-.88A2,2,0,0,1,103.23,134.31Z" transform="translate(-26 -41.07)"/><path class="cls-8" d="M108.08,140.89a1,1,0,0,1,1.31.41.91.91,0,0,1-.6,1.17,1,1,0,0,1-1.31-.41A.91.91,0,0,1,108.08,140.89Z" transform="translate(-26 -41.07)"/><path class="cls-8" d="M76,151.42c-1.18.09-2.3-1.1-2.49-2.67s.62-2.92,1.8-3,2.3,1.1,2.49,2.67S77.21,151.32,76,151.42Z" transform="translate(-26 -41.07)"/><path class="cls-8" d="M73.45,157.36c-1.87.15-3.65-1.9-4-4.57s.93-4.95,2.8-5.1,3.65,1.9,4,4.57S75.32,157.21,73.45,157.36Z" transform="translate(-26 -41.07)"/><path class="cls-8" d="M77.13,159.55a4.47,4.47,0,0,1-4.79-3.83,4,4,0,0,1,3.78-4.5,4.47,4.47,0,0,1,4.79,3.83A4,4,0,0,1,77.13,159.55Z" transform="translate(-26 -41.07)"/><path class="cls-8" d="M81.42,150.8a1.66,1.66,0,0,1-1.86-1.29A1.5,1.5,0,0,1,81.08,148a1.66,1.66,0,0,1,1.86,1.29A1.5,1.5,0,0,1,81.42,150.8Z" transform="translate(-26 -41.07)"/><path class="cls-8" d="M79.33,144.85a.78.78,0,0,1-.87-.6.7.7,0,0,1,.71-.73.78.78,0,0,1,.87.6A.7.7,0,0,1,79.33,144.85Z" transform="translate(-26 -41.07)"/><path class="cls-9" d="M164.3,115.89c.22-.88-1.51-.82-5.71.45a61.64,61.64,0,0,1-7.36,1.72c-.81-.17-1.64-.37-2.49-.6-9-2.45-20.28-8.49-30.83-17-9.28-7.53-16.18-15.55-19.77-22.35a22.26,22.26,0,0,1-2.75-8.3,7.89,7.89,0,0,1,1-4.89,6.26,6.26,0,0,1,1.33-1.5c7-5.74,27.4,1.56,45.55,16.29C160.64,93.74,169.66,109.51,164.3,115.89Z" transform="translate(-26 -41.07)"/><path class="cls-10" d="M162,110.45c-.35-3.63-3.14-9.27-8.58-15.73a11.55,11.55,0,0,1-.2,2.08c-2.16,10.79-14.47,10.49-24.3,7,7.2,4.75,14.45,8.27,20.78,10,.54.14,1.07.28,1.59.39a57.35,57.35,0,0,0,6.19-1.49,31.18,31.18,0,0,1,4.55-1.1A7.07,7.07,0,0,0,162,110.45Z" transform="translate(-26 -41.07)"/><path class="cls-11" d="M107.88,73.64c-1.18.09-2.3-1.1-2.49-2.67s.62-2.92,1.8-3,2.3,1.1,2.49,2.67S109.06,73.55,107.88,73.64Z" transform="translate(-26 -41.07)"/><path class="cls-11" d="M105.3,79.58c-1.87.15-3.65-1.9-4-4.57s.93-4.95,2.8-5.1,3.65,1.9,4,4.57S107.17,79.43,105.3,79.58Z" transform="translate(-26 -41.07)"/><path class="cls-11" d="M109,81.78a4.47,4.47,0,0,1-4.79-3.83,4,4,0,0,1,3.78-4.5,4.47,4.47,0,0,1,4.79,3.83A4,4,0,0,1,109,81.78Z" transform="translate(-26 -41.07)"/><path class="cls-11" d="M113.27,73a1.66,1.66,0,0,1-1.86-1.29,1.5,1.5,0,0,1,1.52-1.55,1.66,1.66,0,0,1,1.86,1.29A1.5,1.5,0,0,1,113.27,73Z" transform="translate(-26 -41.07)"/><path class="cls-11" d="M111.18,67.07a.78.78,0,0,1-.87-.6.7.7,0,0,1,.71-.73.78.78,0,0,1,.87.6A.7.7,0,0,1,111.18,67.07Z" transform="translate(-26 -41.07)"/><path class="cls-12" d="M143.3,112.22c-7-2.09-15.11-8.1-23.55-14.46-7.43-5.6-13.14-11.84-16.19-16.68,6.22-2.07,4.37-7.77,24.16,9.7C145.54,106.5,144.19,106.07,143.3,112.22Z" transform="translate(-26 -41.07)"/><circle class="cls-12" cx="25.83" cy="75.27" r="3.15"/><path class="cls-13" d="M67.93,100c-9.56-6.16-11.81-11.36-11.84-15.18C56,75.2,69.85,71,70.36,60.52c.33-6.57-4.8-12.3-9.72-16.4" transform="translate(-26 -41.07)"/><path class="cls-13" d="M55.48,98.47c-9.56-6.16-11.81-11.36-11.84-15.18C43.55,73.68,57.4,69.44,57.91,59c.33-6.57-4.8-12.3-9.72-16.4" transform="translate(-26 -41.07)"/></g></g></g></svg>