<svg xmlns="http://www.w3.org/2000/svg" xmlns:xlink="http://www.w3.org/1999/xlink" viewBox="0 0 180 106.75"><defs><style>.cls-1{fill:none;}.cls-2{clip-path:url(#clip-path);}.cls-3{fill:#edf0f5;}.cls-4{fill:#d6b67f;stroke-width:3.66px;}.cls-4,.cls-8{stroke:#fff;stroke-miterlimit:10;}.cls-5{fill:#62c45f;}.cls-6{fill:#dd603e;}.cls-7{fill:#dd8c7a;}.cls-8{fill:#eac78b;stroke-width:3.16px;}.cls-9{fill:#d6b57c;}.cls-10{fill:#e0c698;}.cls-11{fill:#edd1a1;}.cls-12{fill:#d33916;}.cls-13{fill:#fff;}.cls-14{fill:#ad2f12;}.cls-15{fill:#ffa28c;}</style><clipPath id="clip-path" transform="translate(-16 -54.37)"><rect class="cls-1" width="212" height="212"/></clipPath></defs><title>fast</title><g id="Layer_2" data-name="Layer 2"><g id="Layer_1-2" data-name="Layer 1"><g class="cls-2"><rect class="cls-3" y="80.77" width="180" height="16.74" rx="5.91" ry="5.91"/><path class="cls-4" d="M190.87,127.29H47.22a71.83,71.83,0,0,1,143.65,0Z" transform="translate(-16 -54.37)"/><path class="cls-5" d="M41.13,121.48S31,103.07,35.66,104.64s14.85-3.13,17.2-3.13-5.47-12.51-2.35-18S61,81.91,62.24,81.18s7-.78,12.51-4.69,1.56-8.6,3.13-12.51S86.47,53,91.95,57.73a111.42,111.42,0,0,0,11.73,8.6s8.55-13,17.2-11.73c10.94,1.56,10.94,7.82,10.94,7.82s3.13,5.47,3.91,7,7.69-7.19,12.51-3.13c14.85,12.51,21.89,3.91,23.45,8.6s1.56,8.27,0,12S169.34,92.13,174,96s5.47-4.69,10.16,3.91c4.13,7.58,1.56,9.38,0,13.29s-1.56,9.38,1.56,10.94,10.16,0,8.6,2.35-161,3.91-160.26,1.56S41.13,121.48,41.13,121.48Z" transform="translate(-16 -54.37)"/><path class="cls-6" d="M164.86,95.25,133.28,75.91a18.51,18.51,0,0,1,31.58,19.34Z" transform="translate(-16 -54.37)"/><path class="cls-7" d="M161.64,92.64l-24.57-15a14.41,14.41,0,0,1,24.57,15Z" transform="translate(-16 -54.37)"/><path class="cls-6" d="M106.4,66.37,84.33,68.75a11.1,11.1,0,0,1,22.07-2.38Z" transform="translate(-16 -54.37)"/><path class="cls-7" d="M103.91,66.31,86.74,68.15a8.64,8.64,0,0,1,17.17-1.85Z" transform="translate(-16 -54.37)"/><path class="cls-6" d="M54.92,90.47,43.29,112.24A12.34,12.34,0,0,1,54.92,90.47Z" transform="translate(-16 -54.37)"/><path class="cls-7" d="M53.31,92.71l-9,16.94a9.6,9.6,0,0,1,9-16.94Z" transform="translate(-16 -54.37)"/><path class="cls-8" d="M178.28,135.07H34.63a71.83,71.83,0,0,1,143.65,0Z" transform="translate(-16 -54.37)"/><path class="cls-9" d="M95.69,79a63.29,63.29,0,0,1,5.59-11.24,66.66,66.66,0,0,0-63,63.73H73c1-15.47,7.33-29.62,15.64-43.26C90.72,84.63,94.27,82.5,95.69,79Z" transform="translate(-16 -54.37)"/><polygon class="cls-10" points="29.73 71.81 33.43 75.51 41.58 68.11 29.73 71.81"/><polygon class="cls-10" points="47.67 74.4 51.09 75.78 54.32 68.73 47.67 74.4"/><polygon class="cls-11" points="72.41 73.81 71.64 70.2 63.98 71.47 72.41 73.81"/><polygon class="cls-11" points="83.21 74.4 86.63 75.78 89.87 68.73 83.21 74.4"/><polygon class="cls-11" points="100.99 74.4 104.41 75.78 107.64 68.73 100.99 74.4"/><polygon class="cls-11" points="118.76 74.4 122.18 75.78 125.42 68.73 118.76 74.4"/><polygon class="cls-11" points="136.53 74.4 139.95 75.78 143.19 68.73 136.53 74.4"/><polygon class="cls-11" points="60.03 60.89 62.32 64.31 69.72 59.83 60.03 60.89"/><polygon class="cls-11" points="79.34 62.9 83.32 64.5 87.09 56.3 79.34 62.9"/><polygon class="cls-11" points="99.64 66.93 104.71 64.86 100.9 53.88 99.64 66.93"/><polygon class="cls-11" points="115.06 63.29 118.48 64.67 121.71 57.62 115.06 63.29"/><polygon class="cls-11" points="132.83 63.29 136.25 64.67 139.49 57.62 132.83 63.29"/><polygon class="cls-11" points="141.37 55.18 145.58 52.05 136.14 45.84 141.37 55.18"/><polygon class="cls-10" points="36.56 52.92 39.98 54.3 43.22 47.25 36.56 52.92"/><polygon class="cls-10" points="55.62 47.38 54.14 50.76 61.08 54.21 55.62 47.38"/><polygon class="cls-11" points="72.1 52.92 75.53 54.3 78.76 47.25 72.1 52.92"/><polygon class="cls-11" points="89.88 52.92 93.3 54.3 96.54 47.25 89.88 52.92"/><polygon class="cls-11" points="107.57 52.73 111.27 54.22 114.77 46.6 107.57 52.73"/><polygon class="cls-11" points="76.21 28.49 81.98 31.98 89.87 20.22 76.21 28.49"/><polygon class="cls-10" points="51.37 40.33 54.79 41.71 58.03 34.66 51.37 40.33"/><polygon class="cls-11" points="69.14 40.33 72.56 41.71 75.8 34.66 69.14 40.33"/><polygon class="cls-11" points="94.2 37.98 91.91 35.08 85.61 39.59 94.2 37.98"/><polygon class="cls-11" points="104.69 40.33 108.11 41.71 111.35 34.66 104.69 40.33"/><polygon class="cls-11" points="127.06 41.94 129.23 38.95 123.18 34.1 127.06 41.94"/><polygon class="cls-11" points="98.02 29.96 101.44 31.34 104.68 24.3 98.02 29.96"/><path class="cls-12" d="M30.35,159.3v-1.82c0-.48-.28-.76-1.38-1.62a9.18,9.18,0,0,1-4.16-8.08V88.61c0-4.05,1.7-6.2,3.21-8.09,1.3-1.63,2.32-2.92,2.32-5.47V73.23h44.1V75c0,2.55,1,3.84,2.32,5.47,1.5,1.89,3.21,4,3.21,8.09v59.17c0,4.58-2.32,6.13-3.86,7.15-1.19.79-1.68,1.12-1.68,2.55v1.82Z" transform="translate(-16 -54.37)"/><path class="cls-13" d="M72.63,75c0,6.44,5.53,6.81,5.53,13.57v59.17c0,6.75-5.54,4.55-5.54,9.7H32.17c0-3.43-5.54-2.95-5.54-9.7V88.61c0-6.75,5.53-7.13,5.53-13.57H72.63m3.64-3.64H28.52V75c0,1.92-.68,2.78-1.93,4.34A13.65,13.65,0,0,0,23,88.61v59.17a10.9,10.9,0,0,0,4.85,9.51c.22.17.5.39.68.55v3.27H76.25v-3.64a1.47,1.47,0,0,1,0-.45,9.07,9.07,0,0,1,.83-.59c1.63-1.09,4.67-3.11,4.67-8.66V88.61a13.65,13.65,0,0,0-3.6-9.22C76.95,77.82,76.26,77,76.26,75V71.41Z" transform="translate(-16 -54.37)"/><path class="cls-14" d="M47.63,157.48H32.17c0-3.44-5.54-2.95-5.54-9.7V88.61c0-6.75,5.53-7.12,5.53-13.56H47.61c0,6.44-5.53,6.81-5.53,13.56v59.17C42.09,154.53,47.63,154,47.63,157.48Z" transform="translate(-16 -54.37)"/><path class="cls-15" d="M71.71,88.61v59.17c0,6.75-5.54,4.55-5.54,9.7h-9c0-5.15,5.54-2.95,5.54-9.7V88.61c0-6.75-5.53-7.12-5.53-13.56h9C66.19,81.48,71.71,81.86,71.71,88.61Z" transform="translate(-16 -54.37)"/><path class="cls-13" d="M78.36,144.41l-.21,3.37c0,2.64-.85,3.92-1.88,4.78-10.88.23-20.54-24.42-24.53-36.94-9-28.34-25.83-27.9-25.83-27.9,0-4.25,2.83-4.25,5.67-9.92,2.86.8,16,8.17,24,40.39C58.83,131,68.44,144.41,78.36,144.41Z" transform="translate(-16 -54.37)"/></g></g></g></svg>