<svg xmlns="http://www.w3.org/2000/svg" xmlns:xlink="http://www.w3.org/1999/xlink" viewBox="0 0 161.82 132.86"><defs><style>.cls-1{fill:none;}.cls-2{clip-path:url(#clip-path);}.cls-3{fill:#edf0f5;}.cls-4{fill:#a87821;}.cls-5{fill:#f2b53d;}.cls-6{fill:#bf8826;}.cls-7{fill:#e0a53d;}.cls-8{fill:#e3aa39;}.cls-9{fill:#dd5222;}.cls-10{fill:#fff;}</style><clipPath id="clip-path" transform="translate(-25.09 -39.57)"><rect class="cls-1" width="212" height="212"/></clipPath></defs><title>pizza</title><g id="Layer_2" data-name="Layer 2"><g id="Layer_1-2" data-name="Layer 1"><g class="cls-2"><rect class="cls-3" y="97.77" width="161.82" height="15.05" rx="5.91" ry="5.91"/><path class="cls-4" d="M93,67.07c11.33,4.3,62.31,25.85,66.58,67.39a3.17,3.17,0,0,1-3.19,3.5L43.81,136.28c-4.89-1.73-6.81-11.84-6.08-13.9L89.38,68.11A3.15,3.15,0,0,1,93,67.07Z" transform="translate(-25.09 -39.57)"/><path class="cls-5" d="M90.35,56.52c11.33,4.3,62.31,25.85,66.58,67.39a3.17,3.17,0,0,1-3.19,3.5L41.16,125.73a3.16,3.16,0,0,1-2.46-5.07l48-63.1A3.15,3.15,0,0,1,90.35,56.52Z" transform="translate(-25.09 -39.57)"/><path class="cls-6" d="M175.1,128.33c0,1.62-3.11,4.21-5.2,4.22l-6.46-.12-7.08-.13c-6.33-2-9.62-44.83-68.23-75.07a3,3,0,0,0-.47-.21,8.35,8.35,0,0,1-1.38-4.38,5.64,5.64,0,0,1,.1-1.07c.77-4.58,6.44-7.26,10-6.41C139.73,55.37,174.78,112.21,175.1,128.33Z" transform="translate(-25.09 -39.57)"/><path class="cls-4" d="M163.44,132.43l-7.08-.13c-6.33-2-9.62-44.83-68.23-75.07a3,3,0,0,0-.47-.21,8.35,8.35,0,0,1-1.38-4.38,5.64,5.64,0,0,1,.1-1.07C127.43,62.27,160.73,114.34,163.44,132.43Z" transform="translate(-25.09 -39.57)"/><rect class="cls-5" x="21.85" y="71.82" width="11.48" height="37.94" rx="4.51" ry="4.51"/><rect class="cls-5" x="33.33" y="71.82" width="11.48" height="55.61" rx="4.51" ry="4.51"/><rect class="cls-5" x="44.81" y="71.82" width="11.48" height="28.13" rx="4.51" ry="4.51"/><rect class="cls-5" x="60.53" y="81.83" width="11.48" height="28.13" rx="4.51" ry="4.51"/><path class="cls-7" d="M81.36,134.32a5.74,5.74,0,0,1-11.46-.54v27.48a5.74,5.74,0,1,1-11.48,0V143.59a5.74,5.74,0,1,1-11.48,0V125.81l-5.78-.08a3.16,3.16,0,0,1-2.47-5.07L57,96.6C58.94,111.48,67.94,124.73,81.36,134.32Z" transform="translate(-25.09 -39.57)"/><path class="cls-8" d="M97.1,143v.77a5.74,5.74,0,0,1-11.48,0v-6.64A80.67,80.67,0,0,0,97.1,143Z" transform="translate(-25.09 -39.57)"/><circle class="cls-6" cx="163.52" cy="129.38" r="11.48" transform="translate(-51.71 4.24) rotate(-14.12)"/><circle class="cls-6" cx="163.52" cy="129.38" r="11.48" transform="translate(-51.71 4.24) rotate(-14.12)"/><path class="cls-4" d="M167.21,140.25c-.29.1-.59.19-.89.27a11.48,11.48,0,1,1,1.5-21.78,11.49,11.49,0,0,0-.61,21.52Z" transform="translate(-25.09 -39.57)"/><path class="cls-9" d="M135.91,109.29c-1.73,5.76-10.92,9.33-20.52,8s-16-7.11-14.24-12.86,10.92-9.33,20.52-8S137.64,103.53,135.91,109.29Z" transform="translate(-25.09 -39.57)"/><path class="cls-9" d="M92.73,110.37c-1.24,4.11-7.8,6.66-14.65,5.7S66.67,111,67.91,106.88s7.8-6.66,14.65-5.7S94,106.26,92.73,110.37Z" transform="translate(-25.09 -39.57)"/><path class="cls-9" d="M110.45,87.34c-1.68,5.58-10.59,9-19.89,7.74s-15.48-6.89-13.8-12.47,10.59-9,19.89-7.74S112.13,81.76,110.45,87.34Z" transform="translate(-25.09 -39.57)"/><path class="cls-10" d="M95,45a6.18,6.18,0,0,1,1.41.16c43.31,10.2,78.37,67,78.69,83.17a1.67,1.67,0,0,1-.1.56A11.48,11.48,0,0,1,155.89,138l-58.78-.88v6.71a5.74,5.74,0,1,1-11.48,0V136.9l-5.12-.08a5.72,5.72,0,0,1-9.79-.15h-.8v24.58a5.74,5.74,0,1,1-11.48,0V143.59a5.74,5.74,0,0,1-11.48,0v-7.26l-3.12,0c-4.89-1.73-6.81-11.84-6.08-13.9l.37-.39a3.13,3.13,0,0,1,.59-1.34l48-63.1a3.15,3.15,0,0,1,.82-.75C83.5,49.92,90.14,45,95,45m0-5.44a14.84,14.84,0,0,0-12.56,7.16,12,12,0,0,0-1.18,9l-46.9,61.61a8.59,8.59,0,0,0-1,1.75l-.33.35-.39,1.09c-1.29,3.63.42,10.05,2,13.46s4.05,6,6.85,7.19v2.37a11.19,11.19,0,0,0,11.18,11.18H53v6.49a11.18,11.18,0,0,0,22.36,0V145h.3a11.14,11.14,0,0,0,4.54-1,11.18,11.18,0,0,0,22.36-.21V142.6l51.46.77a16.92,16.92,0,0,0,26.44-13.9,6.72,6.72,0,0,0,.09-1.24c-.2-10.12-10.48-29.94-24.44-47.13-10.3-12.68-31.6-34.91-58.44-41.23a11.62,11.62,0,0,0-2.66-.3Z" transform="translate(-25.09 -39.57)"/></g></g></g></svg>