<svg xmlns="http://www.w3.org/2000/svg" xmlns:xlink="http://www.w3.org/1999/xlink" viewBox="0 0 194 128.07"><defs><style>.cls-1,.cls-10,.cls-9{fill:none;}.cls-2{clip-path:url(#clip-path);}.cls-3{fill:#edf0f5;}.cls-4{fill:#f2b53d;}.cls-5{fill:#fff;}.cls-6{fill:#5e412d;stroke:#fff;}.cls-10,.cls-6,.cls-9{stroke-miterlimit:10;}.cls-6,.cls-9{stroke-width:3.28px;}.cls-7{fill:#e5e9ef;}.cls-8{fill:#cad2db;}.cls-10,.cls-9{stroke:#cad2db;}.cls-10{stroke-width:4px;}</style><clipPath id="clip-path" transform="translate(-8 -41.19)"><rect class="cls-1" width="212" height="212"/></clipPath></defs><title>restaurant</title><g id="Layer_2" data-name="Layer 2"><g id="Layer_1-2" data-name="Layer 1"><g class="cls-2"><rect class="cls-3" x="16.01" y="111.52" width="177.99" height="16.55" rx="5.91" ry="5.91"/><path class="cls-4" d="M122,147.7a138.33,138.33,0,0,1-24-2l-1.35-.24V131.78a25.33,25.33,0,0,1,1.09-7.37,25.78,25.78,0,0,1,24.5-18.22,25.39,25.39,0,0,1,18.07,7.52,25.71,25.71,0,0,1,6.45,10.78,25.21,25.21,0,0,1,1.07,7.29v13.63l-1.34.25A137.26,137.26,0,0,1,122,147.7Z" transform="translate(-8 -41.19)"/><path class="cls-5" d="M122.22,107.83A24.05,24.05,0,0,1,145.17,125a23.57,23.57,0,0,1,1,6.82V144a135.5,135.5,0,0,1-24.15,2,136.61,136.61,0,0,1-23.74-1.94V131.78a23.64,23.64,0,0,1,1-6.89,24,24,0,0,1,22.93-17.06m0-3.28a27.44,27.44,0,0,0-26.07,19.39A27,27,0,0,0,95,131.78v15.09l2.7.49a140.08,140.08,0,0,0,24.33,2,138.87,138.87,0,0,0,24.74-2.07l2.68-.5v-15a26.86,26.86,0,0,0-1.14-7.77,27.33,27.33,0,0,0-6.86-11.47,27,27,0,0,0-19.23-8Z" transform="translate(-8 -41.19)"/><path class="cls-6" d="M96.51,131c0-.12,0-.24,0-.37a7.62,7.62,0,1,0-15.24,0c0,.08,0,.15,0,.23a7.58,7.58,0,0,0-4.8,1.88,7.62,7.62,0,1,0,0,11.47A7.6,7.6,0,0,0,88.26,142a7.62,7.62,0,1,0,8.25-11Z" transform="translate(-8 -41.19)"/><path class="cls-7" d="M64,156.29a5.22,5.22,0,0,1-4.61-2.75H44.64a10.4,10.4,0,0,1-10.38-10.38,2.38,2.38,0,0,1,2.38-2.37h151.8a2.6,2.6,0,0,1,2.6,2.6,10.18,10.18,0,0,1-10.16,10.16H165.93a5.3,5.3,0,0,1-.9,1.21,5.21,5.21,0,0,1-3.7,1.54Z" transform="translate(-8 -41.19)"/><path class="cls-5" d="M188.43,142.42a1,1,0,0,1,1,1,8.54,8.54,0,0,1-8.52,8.52h-16a3.6,3.6,0,0,1-3.49,2.75H64a3.61,3.61,0,0,1-3.49-2.75H44.64a8.77,8.77,0,0,1-8.74-8.74.74.74,0,0,1,.73-.73h151.8m0-3.28H36.63a4,4,0,0,0-4,4,12,12,0,0,0,12,12H58.45a6.86,6.86,0,0,0,5.5,2.75h97.38a6.84,6.84,0,0,0,4.86-2,7.08,7.08,0,0,0,.64-.74h14a11.82,11.82,0,0,0,11.8-11.8,4.25,4.25,0,0,0-4.24-4.24Z" transform="translate(-8 -41.19)"/><path class="cls-8" d="M101.63,154.65H64a3.61,3.61,0,0,1-3.49-2.75H44.64a8.77,8.77,0,0,1-8.74-8.74.74.74,0,0,1,.73-.73H74.31a.74.74,0,0,0-.73.73,8.77,8.77,0,0,0,8.74,8.74H98.14A3.61,3.61,0,0,0,101.63,154.65Z" transform="translate(-8 -41.19)"/><circle class="cls-9" cx="138.51" cy="54.64" r="7.48" transform="translate(39.2 131.06) rotate(-73.71)"/><path class="cls-7" d="M53.1,103.26l.62-1.65c10.74-28.73,37.36-48,66.23-48a64.49,64.49,0,0,1,18.1,2.6A65.87,65.87,0,0,1,177.28,88a74.84,74.84,0,0,1,7.36,51.86l-.37,1.73Z" transform="translate(-8 -41.19)"/><path class="cls-5" d="M120,55.22a62.74,62.74,0,0,1,17.64,2.53c33.68,9.85,53.17,45.71,45.44,81.78L55.26,102.18c10.67-28.54,36.91-47,64.7-47m0-3.28v0C90.4,51.94,63.17,71.67,52.19,101l-1.24,3.31,3.39,1,127.78,37.35,3.39,1,.74-3.45a76.48,76.48,0,0,0-7.53-53,67.5,67.5,0,0,0-40.2-32.62A66.12,66.12,0,0,0,120,51.94Z" transform="translate(-8 -41.19)"/><path class="cls-8" d="M147.33,61.49C116.89,57.86,86.83,76.93,75.2,108l-19.95-5.83C68.18,67.63,103.92,47.9,137.6,57.75A63.07,63.07,0,0,1,147.33,61.49Z" transform="translate(-8 -41.19)"/><path class="cls-10" d="M37,106.57C26.39,99.72,23.89,93.93,23.85,89.68c-.1-10.69,15.3-15.41,15.88-27,.36-7.31-5.34-13.69-10.81-18.24" transform="translate(-8 -41.19)"/><path class="cls-10" d="M23.17,104.88C12.54,98,10,92.25,10,88,9.9,77.3,25.3,72.58,25.88,61c.36-7.31-5.34-13.69-10.81-18.24" transform="translate(-8 -41.19)"/><ellipse class="cls-5" cx="157.66" cy="87.97" rx="11.93" ry="22.08" transform="translate(-27.64 80.85) rotate(-40.04)"/></g></g></g></svg>