<svg xmlns="http://www.w3.org/2000/svg" xmlns:xlink="http://www.w3.org/1999/xlink" viewBox="0 0 127 123.09"><defs><style>.cls-1{fill:none;}.cls-2{clip-path:url(#clip-path);}.cls-3{fill:#edf0f5;}.cls-4{fill:#cfd9ff;}.cls-5,.cls-9{fill:#fff;}.cls-6{fill:#aa223c;}.cls-7{fill:#404042;}.cls-8{fill:#e8d770;}.cls-9{opacity:0.5;}.cls-10{fill:#e8daa0;stroke-width:2.76px;}.cls-10,.cls-12{stroke:#fff;stroke-miterlimit:10;}.cls-11{fill:#d6c994;}.cls-12{fill:#7b9b7b;stroke-width:2.3px;}.cls-13{fill:#6f8c6f;}.cls-14{fill:#8c55b7;}.cls-15{fill:#e54c87;}</style><clipPath id="clip-path" transform="translate(-42.5 -45.99)"><rect class="cls-1" width="212" height="212"/></clipPath></defs><title>tapas</title><g id="Layer_2" data-name="Layer 2"><g id="Layer_1-2" data-name="Layer 1"><g class="cls-2"><rect class="cls-3" y="94.45" width="127" height="11.81" rx="5.91" ry="5.91"/><path class="cls-4" d="M120.27,164.63a7.7,7.7,0,0,1-7.7-7.7V98.58a11.17,11.17,0,0,1,1.28-5.18l.05-.1,6-8.89a17.63,17.63,0,0,0,2.88-7.55c.1-.8.19-1.43.27-1.95a16,16,0,0,0,.24-2.5v-6h14.5v6a14.17,14.17,0,0,0,.21,2.27c.07.52.16,1.16.27,2a17.9,17.9,0,0,0,2.9,7.73l6,8.89.05.1a11.17,11.17,0,0,1,1.28,5.18v58.35a7.7,7.7,0,0,1-7.7,7.7Z" transform="translate(-42.5 -45.99)"/><path class="cls-5" d="M135.79,68.4v4a35.6,35.6,0,0,0,.5,4.53,19.8,19.8,0,0,0,3.22,8.6l5.94,8.8a9.12,9.12,0,0,1,1,4.25v58.35a5.71,5.71,0,0,1-5.7,5.7H120.27a5.71,5.71,0,0,1-5.7-5.7V98.58a9.12,9.12,0,0,1,1-4.25l5.94-8.8a19.55,19.55,0,0,0,3.2-8.42,36.3,36.3,0,0,0,.52-4.71v-4h10.5m4-4h-18.5v8a14,14,0,0,1-.22,2.22c-.07.53-.16,1.16-.27,2a15.62,15.62,0,0,1-2.55,6.69l-5.94,8.8-.12.18-.1.19a13.17,13.17,0,0,0-1.51,6.11v58.35a9.71,9.71,0,0,0,9.7,9.7H140.8a9.71,9.71,0,0,0,9.7-9.7V98.58A13.17,13.17,0,0,0,149,92.47l-.1-.19-.12-.18-5.94-8.8a15.88,15.88,0,0,1-2.57-6.86c-.11-.86-.2-1.51-.27-2a12.29,12.29,0,0,1-.2-2v-8Z" transform="translate(-42.5 -45.99)"/><path class="cls-6" d="M144.35,98.58v58.35a3.55,3.55,0,0,1-3.55,3.55H120.27a3.55,3.55,0,0,1-3.55-3.55V98.58a7,7,0,0,1,.75-3.15l2.39-3.55a76.37,76.37,0,0,0,24,4.22A7,7,0,0,1,144.35,98.58Z" transform="translate(-42.5 -45.99)"/><path class="cls-7" d="M136.49,48.75h-.58v-1A1.75,1.75,0,0,0,134.17,46h-7.26a1.75,1.75,0,0,0-1.74,1.74v1h-.58a.8.8,0,0,0-.8.8V54.7a.8.8,0,0,0,.8.8h.58V66.86h10.74V55.5h.58a.8.8,0,0,0,.8-.8V49.55A.8.8,0,0,0,136.49,48.75Z" transform="translate(-42.5 -45.99)"/><path class="cls-8" d="M139.44,134.7H116.11V112.29h23.33Z" transform="translate(-42.5 -45.99)"/><path class="cls-9" d="M142.5,98.59V156h-4V99.59a9.12,9.12,0,0,0-1.05-4.25L133.5,87a14.86,14.86,0,0,1-1-6h.75a19,19,0,0,0,2.27,4.55l5.93,8.8A9.12,9.12,0,0,1,142.5,98.59Z" transform="translate(-42.5 -45.99)"/><path class="cls-10" d="M144,157.55v.05H83.55v-.05a4.49,4.49,0,0,1-1.17-3A5.06,5.06,0,0,1,87,149.78a5.14,5.14,0,0,1,3.6-3.4A5.43,5.43,0,0,1,95.78,143a5.91,5.91,0,0,1,3.31,1,5.91,5.91,0,0,1,3.31-1h.06a5.29,5.29,0,0,1,5.4-4.15,5.92,5.92,0,0,1,3.13.88,5.77,5.77,0,0,1,4-1.56,5.32,5.32,0,0,1,5.38,4,6.14,6.14,0,0,1,1.12-.1,5.92,5.92,0,0,1,3.06.83,5.91,5.91,0,0,1,3.05-.83,5.5,5.5,0,0,1,5,3,6.05,6.05,0,0,1,1.59-.21c3,0,5.46,2.17,5.46,4.84,3,0,5.46,2.17,5.46,4.84A4.49,4.49,0,0,1,144,157.55Z" transform="translate(-42.5 -45.99)"/><path class="cls-11" d="M119.22,144.46l-.11.57H117.4a3.94,3.94,0,0,0-2.19.65l-1.12.76-1.12-.76a3.94,3.94,0,0,0-2.19-.65,3.48,3.48,0,0,0-3.32,2l-.35,1-1,.28a3.18,3.18,0,0,0-2.24,2l-.36,1.25-1.28.18a3.09,3.09,0,0,0-2.87,2.8,2.38,2.38,0,0,0,.24,1h-15a2.38,2.38,0,0,1-.24-1,3.09,3.09,0,0,1,2.87-2.8l1.28-.18.36-1.25a3.18,3.18,0,0,1,2.24-2l1-.28.35-1a3.48,3.48,0,0,1,3.32-2,3.94,3.94,0,0,1,2.19.65l1.12.76,1.12-.76a3.94,3.94,0,0,1,2.19-.65h1.71l.32-1.68a3.31,3.31,0,0,1,3.43-2.47,3.92,3.92,0,0,1,2.07.57l1.33.83,1.12-1.09a3.83,3.83,0,0,1,2.63-1,3.36,3.36,0,0,1,3.42,2.4l.37,2Z" transform="translate(-42.5 -45.99)"/><path class="cls-12" d="M70.91,152.21h78.36a33,33,0,0,1-26.69,13.65h-25A33,33,0,0,1,70.91,152.21Z" transform="translate(-42.5 -45.99)"/><path class="cls-13" d="M110.59,163.86h-13a31.08,31.08,0,0,1-22.41-9.64h13A31.08,31.08,0,0,0,110.59,163.86Z" transform="translate(-42.5 -45.99)"/><path class="cls-5" d="M92.95,106.15a24.83,24.83,0,0,1,3.21,12.28c0,13.39-10.45,24.25-23.33,24.25S49.5,131.82,49.5,118.43a24.83,24.83,0,0,1,3.21-12.28H92.95m1.79-3.07H50.92L50,104.64a28,28,0,0,0-3.61,13.79c0,15.06,11.84,27.32,26.4,27.32s26.4-12.26,26.4-27.32a28,28,0,0,0-3.61-13.79l-.88-1.56Z" transform="translate(-42.5 -45.99)"/><path class="cls-5" d="M74.52,142.68v19.86c7.41,2.12,12.63,1.37,12.63,2.39S81.33,166,73.95,166H71.71c-7.38,0-13.2,0-13.2-1.07s5.7-.29,12.63-2.36V142.68h3.38m3.07-3.07H68.07v20.59a48.55,48.55,0,0,1-6.72.94c-1.06.09-1.9.16-2.6.3-3.07.6-3.31,2.82-3.31,3.49,0,3.61,4.37,3.86,6.72,4s5.6.15,9.55.15h2.24c4,0,7.16,0,9.55-.15s6.72-.39,6.72-4A3.58,3.58,0,0,0,87,161.45a24.4,24.4,0,0,0-2.54-.31,51.36,51.36,0,0,1-6.86-1V139.61Z" transform="translate(-42.5 -45.99)"/><path class="cls-4" d="M96.16,118.43c0,13.39-10.45,24.25-23.33,24.25S49.5,131.82,49.5,118.43a24.83,24.83,0,0,1,3.21-12.28H92.95A24.83,24.83,0,0,1,96.16,118.43Z" transform="translate(-42.5 -45.99)"/><path class="cls-14" d="M66.16,122.09h0Z" transform="translate(-42.5 -45.99)"/><path class="cls-6" d="M86.46,117.82a11.86,11.86,0,0,1,6.7-1.72,21,21,0,0,1-40.51,10C64.67,129.88,75.85,124.82,86.46,117.82Z" transform="translate(-42.5 -45.99)"/><path class="cls-15" d="M52.64,126.11v0c9.38,2.92,18.24.49,26.71-4-8-.14-19,.64-26.09,3.73Z" transform="translate(-42.5 -45.99)"/><rect class="cls-4" x="28.64" y="96.69" width="3.38" height="21.49"/><path class="cls-4" d="M87.15,164.94c0,1.1-6.41,1.07-14.32,1.07s-14.32,0-14.32-1.07,6.64-.15,14.32-2.92C81.12,164.78,87.15,163.83,87.15,164.94Z" transform="translate(-42.5 -45.99)"/><path class="cls-9" d="M88.48,108.92A18.84,18.84,0,0,1,89.2,111c.1.35.19.71.28,1.07s.14.72.21,1.08l.09.55.07.55c0,.37.08.73.11,1.1,0,.74.08,1.48.06,2.22a24.31,24.31,0,0,1-1.79,8.75c-.14.35-.3.69-.46,1s-.33.68-.51,1-.38.66-.58,1-.44.66-.67,1a13.78,13.78,0,0,1-3.42,3.18,14.57,14.57,0,0,1-8.52,2.4,24.43,24.43,0,0,0,7-4.32,15.22,15.22,0,0,0,2.51-2.94c.16-.28.33-.55.49-.82s.31-.58.45-.88c.3-.6.58-1.2.82-1.83a38.18,38.18,0,0,0,2.24-7.82A65.39,65.39,0,0,0,88.48,108.92Z" transform="translate(-42.5 -45.99)"/></g></g></g></svg>