<svg id="Layer_1" data-name="Layer 1" xmlns="http://www.w3.org/2000/svg" xmlns:xlink="http://www.w3.org/1999/xlink" viewBox="0 0 239 131.95"><defs><style>.cls-1,.cls-3,.cls-9{fill:none;}.cls-2{clip-path:url(#clip-path);}.cls-3{stroke:#63c9d0;stroke-linecap:round;stroke-width:8.82px;}.cls-3,.cls-9{stroke-miterlimit:10;}.cls-4{fill:#ee4a24;}.cls-5{fill:#63c9d0;}.cls-6{fill:#edf0f5;}.cls-7{fill:#51b4bb;}.cls-8{fill:#d2d7de;}.cls-9{stroke:#363636;stroke-width:3.31px;}</style><clipPath id="clip-path"><rect class="cls-1" width="239" height="132"/></clipPath></defs><title>9erd-footer</title><g class="cls-2"><path class="cls-3" d="M109.68,157.76c-2.47,1.56-12.3,7.38-23.6,4.45-15.27-4-20.56-20.6-21.89-24.77-4.33-13.61-.48-25.81,2.22-34.33,3.35-10.6,5.71-10.35,13.74-28.64C86,61.2,88.89,54.42,89,46.78c0-4.8.08-18-10.15-27.29-6.67-6.08-17.53-10.06-28.47-6.79-1.44.43-13.57,4.29-18.49,16.86A28.2,28.2,0,0,0,32,50.4c.81,1.92,4.66,11.06,14.8,14.63,1.64.58,11.08,3.9,19.87-1.81,8.23-5.34,9.42-14.4,9.56-15.56.24-2.11,1-8.95-3.73-14.55A17.74,17.74,0,0,0,53.6,28c-1.27.44-7.19,2.64-9.77,8.85-.51,1.23-3.57,8.61,1,13.29C48,53.29,53.36,54,58.05,51.57"/><path class="cls-4" d="M148.46,113.07c1.93,13.77,4.93,24.82-15.33,27.55-22.2,3-20.37-8.53-22.3-22.29s-10-23.89,15.33-27.55C153.74,86.79,146.54,99.3,148.46,113.07Z"/><path class="cls-5" d="M145.27,125.71c2.84,20.31,6.16,36.78-8,38.62-15.53,2-15.46-14.63-18.3-34.94s-9.7-36,8-38.62C146.24,87.88,142.43,105.39,145.27,125.71Z"/><path class="cls-6" d="M140.76,125.77c1.87,13.38,4.06,24.23-5.26,25.44-10.22,1.33-10.17-9.64-12-23s-6.39-23.7,5.26-25.44C141.4,100.85,138.89,112.38,140.76,125.77Z"/><ellipse class="cls-5" cx="107.83" cy="142.09" rx="12.16" ry="33.53" transform="translate(-68.89 117.86) rotate(-45)"/><path class="cls-7" d="M126.86,155.57c-.93-1.4-1.91-2.78-2.91-4.13s-2-2.71-3-4c-2.09-2.64-4.22-5.25-6.52-7.7a83.9,83.9,0,0,0-7.22-7,50.38,50.38,0,0,0-8.26-5.76,43.57,43.57,0,0,1,8.49,5.48,77.18,77.18,0,0,1,7.34,7c2.28,2.49,4.43,5.1,6.46,7.8A98.9,98.9,0,0,1,126.86,155.57Z"/><ellipse class="cls-5" cx="162.93" cy="140.61" rx="33.53" ry="6.76" transform="translate(-40.31 211.41) rotate(-60)"/><ellipse class="cls-5" cx="159.79" cy="133.94" rx="33.53" ry="11.09" transform="translate(-41.95 186.59) rotate(-54.6)"/><path class="cls-7" d="M146.87,158.93c1.25-3.58,2.65-7.1,4.16-10.58s3.14-6.9,4.84-10.29,3.6-6.68,5.61-9.9a88.5,88.5,0,0,1,6.66-9.21c-2.29,3-4.38,6.18-6.36,9.4s-3.78,6.55-5.5,9.92-3.36,6.78-4.93,10.22S148.28,155.41,146.87,158.93Z"/><path class="cls-8" d="M202.74,53.48V54A1.53,1.53,0,0,1,202.74,53.48Z"/><path class="cls-4" d="M140.52,95.27s-3.32,4,4,23.23l.79,7.21s-10.36-14.39-6.37-32.48Z"/><path class="cls-4" d="M118.49,94.29s4.76,3.86,5.06,6-.81,7.29-1.43,8.56-3.51-12.5-5.14-13.55S118.49,94.29,118.49,94.29Z"/><path class="cls-5" d="M127.13,131.27c4.52,15.29,10.06,28,11.12,33.22.34,1.68-.71,1.24-5.3,1.22-2.57,0-8.9-12-14.74-31.8S107,99.75,112.1,96.83C125.6,89.1,121.29,111.52,127.13,131.27Z"/><path class="cls-7" d="M123.9,114c-.38-2.85-.68-5.71-1.14-8.54-.2-1.42-.46-2.83-.79-4.22a16.87,16.87,0,0,0-.59-2.05,4.53,4.53,0,0,0-1-1.84,4.29,4.29,0,0,1,1.26,1.75,16.65,16.65,0,0,1,.72,2,38.73,38.73,0,0,1,.9,4.24A60.4,60.4,0,0,1,123.9,114Z"/><path class="cls-5" d="M90,59.25c1.38,9.57,5.24,21.71-5.26,21.13-20-1.1-22.45-10-23.83-19.57s7.89-20.25,18.34-21.76S88.61,49.68,90,59.25Z"/><path class="cls-6" d="M89.8,60.84c.85,5.91,3.24,13.4-3.25,13C74.23,73.2,72.69,67.71,71.84,61.8s4.87-12.5,11.32-13.43S88.95,54.93,89.8,60.84Z"/><path class="cls-5" d="M157.29,46.29c1.94,9.48,2.42,22.2,12.11,18.1,18.41-7.79,17.74-17,15.8-26.48s-14.28-16.38-24.62-14.26S155.35,36.81,157.29,46.29Z"/><path class="cls-6" d="M158,47.71c1.2,5.85,1.49,13.71,7.47,11.18,11.36-4.81,11-10.5,9.75-16.35s-8.81-10.11-15.2-8.81S156.8,41.86,158,47.71Z"/><circle class="cls-6" cx="123.26" cy="52.65" r="42.3"/><path class="cls-5" d="M165.56,52.65A42.1,42.1,0,0,1,161,71.82c.43-9.48-3.44-12.06-9.1-14.79,6.25-3.8,6.42-7.72,5.95-16.2-.67-11.94-9.7-21.66-21.66-21.66a21.66,21.66,0,0,0-19.43,12.09A21.67,21.67,0,0,0,84.51,50.19c0,12,4.76,21.09,16.72,21.1C98.44,76,99,81.82,101.76,88c.15.33,0,.73,0,1.09a42.3,42.3,0,1,1,63.78-36.45Z"/><path class="cls-9" d="M103.3,60.25a5.58,5.58,0,0,1,4.16-8.6,6.65,6.65,0,0,1,6.32,3.44"/><path class="cls-9" d="M130,52.39a5.58,5.58,0,0,1,6.28-7.21,6.65,6.65,0,0,1,5.19,5"/><path class="cls-5" d="M140.64,99.18c2.14-7.56,12.31-5.49,26.27-14.75C169,83.06,183.71,73,190.37,54.8c.58-1.58,1-2.92,1.24-3.81l5.22,1.9c-1.29,9.72-8.07,24.09-22,37.46-10.9,10.47-31.33,24.28-33.86,15.56C140,102.54,139.7,102.49,140.64,99.18Z"/><path class="cls-8" d="M190.84,53.48l5.44,2.45s5-5.07,5.85-5.28,7.71-3.83,7.71-3.83,2.7-4-1.24-2a36.23,36.23,0,0,1-5.57,2.4l6.87-6.49s3.49-4.93-2-2.33l-7.42,6,6-11.17S208,26,203.6,31.91l-6.52,9.89,2.12-12.19s-1.42-4.28-3,.36-2.82,10.92-2.82,10.92a2.58,2.58,0,0,1-2.65,1.55c-2.18,0-4.6-5.28-5.2-4.77a2,2,0,0,0-.92,2.11c.22,1.06,2.25,6.57,2.8,7.1S191.49,51.55,190.84,53.48Z"/></g></svg>