<svg xmlns="http://www.w3.org/2000/svg" viewBox="0 0 149.83 139.4"><defs><style>.cls-1{fill:#51b5b7;}.cls-2{fill:#f05674;}.cls-3{fill:#ed1944;}.cls-4{fill:#cd163f;}.cls-5{fill:#d2d7de;}.cls-6{fill:#b1bac5;}.cls-7{fill:#b6e0f7;}.cls-8{fill:#c54027;}.cls-9{fill:#c7d0e2;}.cls-10{fill:#ef4b24;}.cls-11{fill:#eff2f9;}.cls-12{fill:#5c5e6f;}.cls-13{fill:#808b9e;}.cls-14{fill:#9fd2f1;}.cls-15{fill:#63c9d0;}.cls-16{fill:#ee4a24;}.cls-17{fill:none;stroke:#63c9d0;stroke-linecap:round;stroke-miterlimit:10;stroke-width:3.65px;}.cls-18{fill:#edf0f5;}.cls-19{fill:#363636;}.cls-20{fill:#fff;}.cls-21{fill:#51b4bb;}</style></defs><title>9erd_love</title><g id="Layer_2" data-name="Layer 2"><g id="Layer_1-2" data-name="Layer 1"><path class="cls-1" d="M65.77,84.27c2.54.63,15.43,3.57,28-4.13,9.13-5.61,10.1-16.83,11.4-19.95a3.69,3.69,0,0,1,1.18-2.06,7.71,7.71,0,0,1-.36,3.29c-.58,1.56,1.9,3.18,1.69,3.51-.51,2.9.52,7.37-4.74,15.07-2.67,3.91-6.63,5.71-8.75,6.68C80.51,93,66.34,89.38,64,88.43Z"/><path class="cls-2" d="M136.13,34.6a.21.21,0,0,1-.21-.21V23.57a.21.21,0,1,1,.42,0V34.39A.21.21,0,0,1,136.13,34.6Z"/><path class="cls-3" d="M142.26,0a7.56,7.56,0,0,0-6.12,3.12,7.57,7.57,0,0,0-13.7,4.45c0,6.36,13.7,16.63,13.7,16.63s13.7-10.26,13.7-16.63A7.57,7.57,0,0,0,142.26,0Z"/><path class="cls-4" d="M137.15,24.83h-2a.63.63,0,0,1-.63-.63h0a.63.63,0,0,1,.63-.63h2a.63.63,0,0,1,.63.63h0A.63.63,0,0,1,137.15,24.83Z"/><path class="cls-2" d="M146.32,3c1.84,1.61,2.22,6.16.29,5.74s-.25-2.44-1.91-3.94-3.77-.17-4.11-1.51C140,1.13,144.46,1.39,146.32,3Z"/><circle class="cls-2" cx="145.85" cy="10.41" r="1.14" transform="matrix(0.19, -0.98, 0.98, 0.19, 107.46, 151.5)"/><path class="cls-2" d="M114.76,42.91a.13.13,0,0,1-.13-.13V36a.13.13,0,1,1,.26,0v6.78A.13.13,0,0,1,114.76,42.91Z"/><path class="cls-3" d="M118.6,21.23a4.74,4.74,0,0,0-3.84,2A4.75,4.75,0,0,0,106.17,26c0,4,8.58,10.42,8.58,10.42S123.34,30,123.34,26A4.75,4.75,0,0,0,118.6,21.23Z"/><path class="cls-4" d="M115.39,36.79h-1.27a.4.4,0,0,1-.4-.4h0a.4.4,0,0,1,.4-.4h1.27a.4.4,0,0,1,.4.4h0A.4.4,0,0,1,115.39,36.79Z"/><path class="cls-2" d="M121.14,23.12c1.16,1,1.39,3.86.18,3.6s-.16-1.53-1.2-2.47-2.36-.11-2.58-.95C117.2,21.93,120,22.1,121.14,23.12Z"/><circle class="cls-2" cx="120.85" cy="27.75" r="0.72" transform="translate(70.27 140.96) rotate(-78.86)"/><path class="cls-5" d="M114.43,43.15a.45.45,0,0,1,.26-.58L136.53,34a.45.45,0,0,1,.59.26L144.86,54l-22.69,8.9Z"/><path class="cls-6" d="M116.89,49.41l.33.85a1.93,1.93,0,0,0,1.25-.86,2.09,2.09,0,0,0,2.22-.87,2.09,2.09,0,0,0,2.22-.87,2.09,2.09,0,0,0,2.21-.87,2.09,2.09,0,0,0,2.22-.87,2.09,2.09,0,0,0,2.22-.87,2.09,2.09,0,0,0,2.22-.87,2.09,2.09,0,0,0,2.22-.87,2.09,2.09,0,0,0,2.22-.87,2.09,2.09,0,0,0,2.22-.87,2.08,2.08,0,0,0,1.24-.09,2,2,0,0,0,.26-.13l-.33-.85a1.16,1.16,0,0,1-.25.14,1.19,1.19,0,0,1-1.54-.67,1.19,1.19,0,0,1-2.22.87,1.19,1.19,0,1,1-2.21.87,1.19,1.19,0,1,1-2.22.87,1.19,1.19,0,1,1-2.21.87,1.19,1.19,0,0,1-2.22.87,1.19,1.19,0,1,1-2.22.87,1.19,1.19,0,1,1-2.21.87,1.19,1.19,0,0,1-2.22.87,1.19,1.19,0,1,1-2.22.87,1.19,1.19,0,0,1-.67,1.54,1.16,1.16,0,0,1-.28.07Z"/><rect class="cls-7" x="127.43" y="45.09" width="12.64" height="8.12" transform="translate(-8.71 52.21) rotate(-21.41)"/><path class="cls-8" d="M128.92,43.46l-.39-1,2.22-.87.39,1a1.19,1.19,0,0,1-.67,1.54h0A1.19,1.19,0,0,1,128.92,43.46Z"/><path class="cls-8" d="M124.49,45.2l-.39-1,2.22-.87.39,1a1.19,1.19,0,0,1-.67,1.54h0A1.19,1.19,0,0,1,124.49,45.2Z"/><path class="cls-8" d="M133.35,41.72l-.39-1,2.22-.87.39,1a1.19,1.19,0,0,1-.67,1.54h0A1.19,1.19,0,0,1,133.35,41.72Z"/><path class="cls-8" d="M137.78,40l-.39-1,2.22-.87.39,1a1.19,1.19,0,0,1-.67,1.54h0A1.19,1.19,0,0,1,137.78,40Z"/><path class="cls-8" d="M120.06,46.93l-.39-1,2.22-.87.39,1a1.19,1.19,0,0,1-.67,1.54h0A1.19,1.19,0,0,1,120.06,46.93Z"/><path class="cls-9" d="M131.13,42.59l-.39-1,2.21-.87.39,1a1.19,1.19,0,0,1-.67,1.54h0A1.19,1.19,0,0,1,131.13,42.59Z"/><path class="cls-9" d="M122.27,46.07l-.39-1,2.22-.87.39,1a1.19,1.19,0,0,1-.67,1.54h0A1.19,1.19,0,0,1,122.27,46.07Z"/><path class="cls-8" d="M115.62,48.67l-.39-1,2.22-.87.39,1a1.19,1.19,0,0,1-.67,1.54h0A1.19,1.19,0,0,1,115.62,48.67Z"/><path class="cls-9" d="M117.84,47.8l-.39-1,2.22-.87.39,1a1.19,1.19,0,0,1-.67,1.54h0A1.19,1.19,0,0,1,117.84,47.8Z"/><path class="cls-9" d="M135.56,40.86l-.39-1,2.22-.87.39,1a1.19,1.19,0,0,1-.67,1.54h0A1.19,1.19,0,0,1,135.56,40.86Z"/><path class="cls-9" d="M126.7,44.33l-.39-1,2.22-.87.39,1a1.19,1.19,0,0,1-.67,1.54h0A1.19,1.19,0,0,1,126.7,44.33Z"/><polygon class="cls-10" points="127.13 39.14 129.19 38.33 130.74 41.6 128.53 42.47 127.13 39.14"/><polygon class="cls-10" points="123.01 40.75 125.07 39.95 126.31 43.34 124.1 44.2 123.01 40.75"/><polygon class="cls-10" points="131.26 37.52 133.32 36.71 135.17 39.86 132.96 40.73 131.26 37.52"/><polygon class="cls-10" points="135.38 35.9 137.44 35.09 139.6 38.13 137.39 38.99 135.38 35.9"/><polygon class="cls-10" points="118.88 42.37 120.95 41.56 121.88 45.07 119.67 45.94 118.88 42.37"/><polygon class="cls-11" points="129.19 38.33 131.26 37.52 132.96 40.73 130.74 41.6 129.19 38.33"/><polygon class="cls-11" points="120.95 41.56 123.01 40.75 124.1 44.2 121.88 45.07 120.95 41.56"/><polygon class="cls-10" points="114.76 43.99 116.82 43.18 117.45 46.81 115.24 47.68 114.76 43.99"/><polygon class="cls-11" points="116.82 43.18 118.88 42.37 119.67 45.94 117.45 46.81 116.82 43.18"/><polygon class="cls-11" points="133.32 36.71 135.38 35.9 137.39 38.99 135.17 39.86 133.32 36.71"/><polygon class="cls-11" points="125.07 39.95 127.13 39.14 128.53 42.47 126.31 43.34 125.07 39.95"/><path class="cls-12" d="M121.33,63.22h0a.45.45,0,0,1,.26-.58l23.53-9.22a.45.45,0,0,1,.58.26h0a.45.45,0,0,1-.26.59l-23.53,9.22A.45.45,0,0,1,121.33,63.22Z"/><rect class="cls-13" x="121" y="57.16" width="24.37" height="0.9" transform="translate(-11.84 52.59) rotate(-21.41)"/><rect class="cls-6" x="120.51" y="55.44" width="24.37" height="1.81" transform="translate(-11.41 52.32) rotate(-21.41)"/><path class="cls-12" d="M127,47.93l10.92-4.28,2.64,6.72L129.6,54.65,127,47.93m-.75-.68a.45.45,0,0,0-.26.59l3,7.56a.45.45,0,0,0,.58.26L141.27,51a.45.45,0,0,0,.26-.58l-3-7.56a.45.45,0,0,0-.58-.26l-11.76,4.61Z"/><path class="cls-12" d="M119.24,50.47,123.36,61l5-2-4.12-10.5a.45.45,0,0,0-.58-.26l-4.2,1.65A.45.45,0,0,0,119.24,50.47Z"/><rect class="cls-7" x="121.44" y="49.65" width="3.61" height="7.22" transform="translate(-10.94 48.66) rotate(-21.41)"/><rect class="cls-14" x="126.73" y="45.75" width="11.73" height="0.9" transform="translate(-7.72 51.59) rotate(-21.41)"/><rect id="SVGCleanerId_0" data-name="SVGCleanerId 0" class="cls-14" x="120.28" y="49.87" width="3.61" height="0.9" transform="translate(-9.95 48.04) rotate(-21.41)"/><polygon class="cls-7" points="123.3 50.33 123.61 49.24 122.77 49.57 122.46 50.66 123.3 50.33"/><rect id="SVGCleanerId_0-2" data-name="SVGCleanerId 0" class="cls-14" x="120.28" y="49.87" width="3.61" height="0.9" transform="translate(-9.95 48.04) rotate(-21.41)"/><path class="cls-15" d="M66.56,79.56c3.42.34,5.42,6.07,6,7.87,1.89,5.42,1.38,11-2.5,22-4.26,12.12-9.76,27.74-15.71,27.2-3-.27-4.8-4.43-5.75-6.58-1.14-2.58-3.57-9.53,3.44-27.8C55.72,92.86,61,79,66.56,79.56Z"/><path class="cls-16" d="M51.35,101.94C48,111.17,48.52,114.45,46,115.83c-1.07.58-2.91,0-6.61-2.08-5.44-3-9-7-9.46-11.63-.43-4.17,1.8-7.47,3.42-9.78C41.93,80,59.92,76.46,61.6,79.27c.4.66-.07,1.76-1,4-.86,2-1.59,2.61-3.16,5.36-.69,1.21-1.11,2.07-1.84,3.59-.91,1.88-1.55,3.37-2.78,6.29C52.71,98.67,51.76,100.82,51.35,101.94Z"/><path class="cls-5" d="M81.08,134.9c-1.36.67-5.64,1.9-12.72,2.43-13.67,1-12.82,1.06-13-1.87-.1-1.51,5.56-3.12,12.64-3.6S82.76,134.07,81.08,134.9Z"/><path class="cls-5" d="M68.6,136.32a14.11,14.11,0,0,1,4.69.6c3.53,1.48,4,3.62-1,1.74a28.57,28.57,0,0,0-6.23-1.45Z"/><path class="cls-5" d="M74,136s2.76-1.33,4.59-1.12c4.16.46,5.28,1.91-.3,2-3.14,0-6.47.18-6.47.18Z"/><path class="cls-16" d="M49.94,104.53s1-.27,10.34-3.08c1.86-.56,7.69-2,7.69-2l-.58-2.76s-13.33,3.58-14.82,1.86Z"/><path class="cls-16" d="M70.95,91.73a13.75,13.75,0,0,0-2-1.6C64.3,87,58.9,87.59,56.56,88a5.11,5.11,0,0,0,1.71-2.66c.12-.5,0-.62.15-.8,1-1.65,11.67-.27,15.16,6.47a11,11,0,0,1,1.13,5.66Z"/><path class="cls-17" d="M52.15,132.32c-1.56,1-7.76,4.66-14.89,2.81-9.64-2.5-13-13-13.81-15.63-2.73-8.59-.3-16.28,1.4-21.66,2.11-6.69,3.6-6.53,8.67-18.07C37.19,71.4,39,67.13,39.07,62.31c0-3,.05-11.33-6.4-17.22a19,19,0,0,0-18-4.28c-.91.27-8.56,2.71-11.66,10.64a17.79,17.79,0,0,0,.11,13.15c.51,1.21,2.94,7,9.34,9.23,1,.36,7,2.46,12.54-1.14a14,14,0,0,0,6-9.81c.15-1.33.64-5.65-2.36-9.18a11.19,11.19,0,0,0-11.93-3.25A10.38,10.38,0,0,0,10.61,56c-.32.78-2.25,5.43.64,8.38a7.17,7.17,0,0,0,8.33.92"/><circle class="cls-18" cx="64.83" cy="55.35" r="27.51" transform="translate(-11.23 93.84) rotate(-67.34)"/><circle class="cls-18" cx="64.83" cy="55.35" r="27.51" transform="translate(-11.23 93.84) rotate(-67.34)"/><ellipse class="cls-19" cx="77.99" cy="54.12" rx="2.59" ry="3.88" transform="translate(-10.66 20.17) rotate(-13.8)"/><ellipse class="cls-20" cx="76.69" cy="53.4" rx="0.55" ry="0.83" transform="translate(-10.53 19.84) rotate(-13.8)"/><ellipse class="cls-19" cx="88.54" cy="49.99" rx="1.52" ry="3.88" transform="translate(-8.22 18.74) rotate(-11.55)"/><ellipse class="cls-20" cx="87.85" cy="49.92" rx="0.33" ry="0.83" transform="matrix(0.98, -0.2, 0.2, 0.98, -8.22, 18.6)"/><path class="cls-15" d="M75.43,30a27.51,27.51,0,0,1,5.11,2.8c-2,1.12-2.83,4.21-2.41,8.11-3.52-3.13-7.7-4.33-11.06-2.75-5.21,2.47-6.46,10.74-2.8,18.47a20.34,20.34,0,0,0,6.63,8.07c-2.06,6.88,0,13.69,5,15.89A27.51,27.51,0,1,1,75.43,30Z"/><path class="cls-15" d="M54,61.19c.79,6.85,3.3,15.56-4.17,14.94C35.61,75,34,68.58,33.22,61.73s6-14.26,13.49-15.13S53.17,54.35,54,61.19Z"/><path class="cls-18" d="M53.8,62.32c.49,4.23,2,9.61-2.57,9.22-8.76-.73-9.75-4.67-10.24-8.89s3.72-8.8,8.33-9.34S53.31,58.09,53.8,62.32Z"/><path class="cls-21" d="M37.58,51.18a17,17,0,0,1,2.59-2.61,16.47,16.47,0,0,1,3.11-2A9.61,9.61,0,0,1,47,45.45a5.86,5.86,0,0,1,2,.26,4.93,4.93,0,0,1,1.77,1l-.09-.06A5.35,5.35,0,0,1,52,48a6.17,6.17,0,0,1,.85,1.53,6.44,6.44,0,0,1,.4,1.67,7,7,0,0,1,0,1.68,11.11,11.11,0,0,0-.42-1.58,7.69,7.69,0,0,0-.66-1.43,7.25,7.25,0,0,0-.93-1.22,5.56,5.56,0,0,0-1.12-.91l0,0-.06,0a4.28,4.28,0,0,0-2.94-.85,10.39,10.39,0,0,0-3.25.85A40.24,40.24,0,0,0,37.58,51.18Z"/><path class="cls-5" d="M114.83,120.41c-.36,2.51-.87,5.67-1.69,5s-.23-5.44-.23-5.44l-.85-.86a19,19,0,0,1-1.55,1.43c-.34.29-1.81.1-1.81.1s-.46-2.47-4-6c0,0,1.58-3.86,4.08-3.09a8.07,8.07,0,0,1,3.55,2l.19.4C114.11,115.91,115,118.92,114.83,120.41Z"/><path class="cls-5" d="M112.08,119.13s1.14,4.17-.13,5.31c-2.11,1.9-1.93.74-1.93.74s1.5-1.69.69-5.23c-.11-.5-1.1-.74-1.1-.74S111.87,118.3,112.08,119.13Z"/><path class="cls-5" d="M110.06,119.33s.94,2.9-.46,3.79c-2.33,1.48-2.07.64-2.07.64a3.63,3.63,0,0,0,1-3.77,5.54,5.54,0,0,0-.35-.86S109.89,118.75,110.06,119.33Z"/><path class="cls-15" d="M72.14,93c2.91,6.65.25,21.33,11.66,20.57s17.19-4.11,21.37-3.35,4.56.77,6.36,2.41c3.63,3.31-3.54,4-3.54,4a8.23,8.23,0,0,0-7.47-1.23c-4.41,1.37-18.56,5.78-21.6,4.26s-15.21-6.72-14.11-24.49c.22-3.58,1.27-3.76,2.57-4.39S70.9,90.17,72.14,93Z"/><path class="cls-21" d="M65.31,91.79a19.11,19.11,0,0,0-.14,4.79,42.74,42.74,0,0,0,.62,4.74c.26,1.58.63,3.14,1,4.71s.77,3.12,1.14,4.71c-.35-.73-.65-1.48-1-2.23s-.56-1.52-.82-2.29a37.16,37.16,0,0,1-1.18-4.74,26,26,0,0,1-.44-4.88A12.63,12.63,0,0,1,65.31,91.79Z"/><path class="cls-15" d="M84.26,108.76c4.17,5.39-4,14.93-11.64,22.49-7.93,7.9-17.89,9-22.05,3.57s.71-13.13,8.59-20.39C67.22,107,80.1,103.38,84.26,108.76Z"/><path class="cls-21" d="M79.23,106.27a16.93,16.93,0,0,0-4.05.24,22.37,22.37,0,0,0-3.92,1,31.66,31.66,0,0,0-7.2,3.59l-1.67,1.14-1.58,1.27c-1.1.79-2,1.81-3,2.68s-1.88,2-2.82,2.93-1.75,2.08-2.67,3.1c.75-1.14,1.55-2.25,2.32-3.39s1.74-2.12,2.67-3.14l1.45-1.46.74-.72.79-.67,1.6-1.32,1.7-1.18a27,27,0,0,1,7.49-3.49A18,18,0,0,1,79.23,106.27Z"/><ellipse class="cls-5" cx="130.74" cy="137.96" rx="6.31" ry="0.91"/><path class="cls-5" d="M112.35,55.33c2.32.13,5.25.34,4.75,1.15s-5,.64-5,.64l-.72.84a18.91,18.91,0,0,1,1.9,1.79s-1.31,5.06-5.43,5.3c0,0-3.66-1.14-3.15-3.49a7.41,7.41,0,0,1,1.52-3.4l.35-.21C108.29,56.35,111,55.25,112.35,55.33Z"/></g></g></svg>