<svg xmlns="http://www.w3.org/2000/svg" viewBox="0 0 328.76 293.93"><defs><style>.cls-1,.cls-7{fill:none;stroke-miterlimit:10;}.cls-1{stroke:#63c9d0;stroke-linecap:round;stroke-width:8.82px;}.cls-2{fill:#ee4a24;}.cls-3{fill:#63c9d0;}.cls-4{fill:#edf0f5;}.cls-5{fill:#d2d7de;}.cls-6{fill:#51b4bb;}.cls-7{stroke:#363636;stroke-width:3.31px;}</style></defs><title>9erd_far7an</title><g id="Layer_2" data-name="Layer 2"><g id="Layer_1-2" data-name="Layer 1"><path class="cls-1" d="M147.28,266.33c-4.43,2.8-22,13.22-42.28,8-27.36-7.09-36.83-36.89-39.21-44.37-7.75-24.38-.85-46.23,4-61.5,6-19,10.22-18.54,24.62-51.3C104.82,93.38,110,81.23,110.15,67.56c.07-8.59.15-32.16-18.18-48.88C80,7.78,60.56.65,41,6.52c-2.58.77-24.3,7.69-33.11,30.2C6.44,40.34.69,56.29,8.17,74c1.45,3.44,8.35,19.82,26.51,26.2,2.94,1,19.85,7,35.6-3.24C85,87.43,87.16,71.2,87.39,69.14c.43-3.78,1.83-16-6.69-26.06a31.78,31.78,0,0,0-33.87-9.23C44.56,34.63,34,38.57,29.34,49.7c-.91,2.2-6.4,15.42,1.81,23.81,5.58,5.7,15.25,6.9,23.66,2.62"/><path class="cls-2" d="M216.74,186.29c3.45,24.66,8.83,44.45-27.45,49.36-39.76,5.38-36.49-15.28-39.94-39.93s-17.95-42.8,27.45-49.36C226.21,139.22,213.29,161.63,216.74,186.29Z"/><path class="cls-3" d="M211,208.93c5.09,36.39,11,65.88-14.34,69.18-27.82,3.62-27.68-26.2-32.77-62.59s-17.38-64.44,14.34-69.18C212.77,141.18,205.94,172.54,211,208.93Z"/><path class="cls-4" d="M202.95,209c3.35,24,7.27,43.4-9.43,45.58-18.3,2.38-18.22-17.27-21.57-41.24s-11.44-42.46,9.43-45.58C204.09,164.39,199.59,185.06,202.95,209Z"/><path class="cls-5" d="M131.88,283c2.89,1.12,11.87,2.85,26.43,2.63,28.12-.42,26.39-.18,26.24-6.2-.08-3.1-11.93-5.35-26.49-5S128.29,281.66,131.88,283Z"/><path class="cls-5" d="M157.64,283.67s-6.13.32-9.47,2.08c-6.94,3.67-7.47,8.13,2.34,3.38A58.62,58.62,0,0,1,163,285Z"/><path class="cls-5" d="M146.46,284s-5.89-2.2-9.59-1.45c-8.42,1.71-10.43,4.87,1,4,6.42-.49,13.26-.83,13.26-.83Z"/><ellipse class="cls-3" cx="143.96" cy="238.28" rx="21.77" ry="60.07" transform="translate(-126.32 171.58) rotate(-45)"/><path class="cls-6" d="M178.06,262.42c-1.64-2.53-3.37-5-5.15-7.45q-1.31-1.85-2.67-3.66c-.89-1.22-1.81-2.41-2.74-3.6-3.7-4.76-7.55-9.41-11.67-13.82a144.08,144.08,0,0,0-13-12.59c-1.13-1-2.36-1.87-3.54-2.81l-1.79-1.39-1.87-1.26-1.86-1.28-.93-.64-1-.56L128,211.11a78.86,78.86,0,0,1,15.11,9.95,143.89,143.89,0,0,1,13.11,12.51c4.09,4.46,7.9,9.15,11.57,13.95S174.89,257.27,178.06,262.42Z"/><path class="cls-5" d="M263.14,285.79c-2.89,1.12-11.87,2.85-26.43,2.63-28.12-.42-26.39-.18-26.24-6.2.08-3.1,11.93-5.35,26.49-5S266.73,284.41,263.14,285.79Z"/><path class="cls-5" d="M237.38,286.41s6.13.32,9.47,2.08c6.94,3.67,7.47,8.13-2.34,3.38a58.62,58.62,0,0,0-12.47-4.1Z"/><path class="cls-5" d="M248.56,286.72s5.89-2.2,9.59-1.45c8.42,1.71,10.43,4.87-1,4-6.42-.49-13.26-.83-13.26-.83Z"/><ellipse class="cls-3" cx="242.66" cy="235.63" rx="60.07" ry="12.12" transform="translate(-82.73 327.96) rotate(-60)"/><ellipse class="cls-3" cx="237.03" cy="223.67" rx="60.07" ry="19.86" transform="translate(-82.59 287.31) rotate(-54.6)"/><path class="cls-6" d="M213.9,268.43c2.29-6.39,4.86-12.67,7.59-18.88s5.62-12.36,8.68-18.42,6.47-11.94,10-17.73c1.86-2.84,3.63-5.74,5.63-8.49s4.07-5.43,6.16-8.1c-2,2.72-4.12,5.39-6,8.23s-3.72,5.66-5.55,8.52q-5.25,8.71-9.87,17.78t-8.81,18.33q-2.08,4.64-4,9.34T213.9,268.43Z"/><path class="cls-5" d="M314,79.55v.92A2.73,2.73,0,0,1,314,79.55Z"/><path class="cls-2" d="M202.52,154.4s-5.95,7.22,7.09,41.6L211,208.93s-18.56-25.77-11.4-58.19Z"/><path class="cls-2" d="M163.05,152.66s8.53,6.91,9.07,10.69-1.45,13.06-2.56,15.33-6.29-22.39-9.2-24.27S163.05,152.66,163.05,152.66Z"/><path class="cls-5" d="M181.82,277.31s.65,7.88,3,9.46,15.76,2.37,17.65.63,1.89-10.72.79-12.93-3.94-7.1-8.51-5.83S182,271.94,181.82,277.31Z"/><path class="cls-3" d="M178.54,218.9c8.1,27.38,18,50.07,19.92,59.5.61,3-1.28,2.22-9.5,2.18-4.6,0-15.94-21.58-26.4-57s-20.08-61.2-11-66.42C175.79,143.35,168.08,183.52,178.54,218.9Z"/><path class="cls-6" d="M172.75,187.92c-.25-2.56-.53-5.12-.83-7.68s-.62-5.11-1-7.64-.84-5.07-1.45-7.56a30.15,30.15,0,0,0-1.11-3.68,7.83,7.83,0,0,0-2-3.25,7.93,7.93,0,0,1,2.17,3.17,29.84,29.84,0,0,1,1.24,3.67,72.94,72.94,0,0,1,1.57,7.58c.38,2.55.7,5.11.93,7.68S172.67,185.34,172.75,187.92Z"/><path class="cls-6" d="M161.82,221.12c.66,2.17,1.38,4.33,2.12,6.47s1.48,4.29,2.25,6.42q2.32,6.4,4.8,12.74c3.29,8.46,6.82,16.82,10.38,25.17l-2.87-6.18c-.92-2.08-1.86-4.14-2.75-6.23-1.8-4.17-3.52-8.37-5.19-12.6s-3.23-8.49-4.7-12.79S163,225.51,161.82,221.12Z"/><path class="cls-3" d="M112,89.89c2.47,17.15,9.39,38.89-9.43,37.85-35.75-2-40.21-17.9-42.69-35S74,56.42,92.74,53.72,109.53,72.74,112,89.89Z"/><path class="cls-4" d="M111.67,92.73c1.53,10.59,5.8,24-5.82,23.37C83.77,114.88,81,105,79.5,94.46S88.22,72.07,99.78,70.4,110.14,82.15,111.67,92.73Z"/><path class="cls-3" d="M232.56,66.66c3.48,17,4.33,39.77,21.68,32.43,33-14,31.78-30.45,28.31-47.43S257,22.31,238.44,26.11,229.08,49.69,232.56,66.66Z"/><path class="cls-4" d="M233.83,69.22c2.15,10.48,2.67,24.55,13.39,20,20.36-8.62,19.62-18.8,17.47-29.28S248.9,41.85,237.46,44.19,231.68,58.75,233.83,69.22Z"/><circle class="cls-4" cx="171.6" cy="78.07" r="75.77"/><path class="cls-3" d="M247.37,78.06a75.41,75.41,0,0,1-8.22,34.34c.76-17-6.15-21.6-16.3-26.5,11.2-6.8,11.51-13.83,10.65-29-1.2-21.39-17.37-38.79-38.79-38.79a38.79,38.79,0,0,0-34.79,21.65,38.82,38.82,0,0,0-57.73,33.9c0,21.44,8.52,37.77,30,37.8-5,8.47-4.06,18.86.94,30,.27.6,0,1.31,0,1.95A75.77,75.77,0,1,1,247.37,78.06Z"/><path class="cls-7" d="M135.85,91.68a10,10,0,0,1,7.45-15.41,11.92,11.92,0,0,1,11.32,6.16"/><path class="cls-7" d="M183.62,77.59a10,10,0,0,1,11.24-12.91,11.92,11.92,0,0,1,9.3,8.93"/><path class="cls-3" d="M202.73,161.41c3.84-13.54,22.06-9.83,47.06-26.43,3.7-2.45,30.09-20.47,42-53.07,1-2.84,1.76-5.23,2.22-6.83l9.34,3.4c-2.31,17.41-14.45,43.14-39.39,67.09-19.53,18.76-56.12,43.49-60.65,27.88C201.6,167.42,201.05,167.33,202.73,161.41Z"/><path class="cls-5" d="M292.65,79.55l9.74,4.39s9-9.08,10.48-9.46,13.81-6.86,13.81-6.86,4.83-7.13-2.22-3.64-10,4.29-10,4.29l12.31-11.62s6.26-8.83-3.54-4.18L310,63.2l10.77-20s2.65-12.84-5.23-2.27L303.83,58.63l3.79-21.83s-2.54-7.66-5.28.64S297.29,57,297.29,57s-.85,2.74-4.74,2.77-8.24-9.45-9.32-8.54-2,1.88-1.64,3.78,4,11.77,5,12.71S293.81,76.09,292.65,79.55Z"/></g></g></svg>