<svg xmlns="http://www.w3.org/2000/svg" viewBox="0 0 186.99 144.52"><defs><style>.cls-1{isolation:isolate;}.cls-2,.cls-21,.cls-22{opacity:0.5;}.cls-3{fill:#876500;}.cls-4{fill:#b8babc;}.cls-5{fill:#663700;}.cls-6{fill:#fdbb30;}.cls-7{fill:#f6a01a;}.cls-8{fill:#820024;}.cls-9{fill:#ed1849;}.cls-10{fill:#2e6a75;}.cls-11{fill:#5698a5;}.cls-12{fill:#b2740e;}.cls-13{fill:#6d6e71;}.cls-14{fill:#414042;}.cls-15{fill:#ab0634;}.cls-16,.cls-22{fill:#d11242;}.cls-17{opacity:0.75;}.cls-18{fill:#ffd200;}.cls-19{fill:#b38808;}.cls-20{fill:#231f20;}.cls-21{fill:#9c9c9c;}.cls-21,.cls-22{mix-blend-mode:multiply;}.cls-23,.cls-30{fill:none;stroke-miterlimit:10;}.cls-23{stroke:#000;stroke-width:0.27px;}.cls-24{fill:#63c9d0;}.cls-25{fill:#edf0f5;}.cls-26{fill:#ee4a24;}.cls-27{fill:#d2d7de;}.cls-28{fill:#363636;}.cls-29{fill:#fff;}.cls-30{stroke:#63c9d0;stroke-linecap:round;stroke-width:3.97px;}.cls-31{fill:#51b4bb;}</style></defs><title>9erd_erreur</title><g class="cls-1"><g id="Layer_2" data-name="Layer 2"><g id="Layer_1-2" data-name="Layer 1"><g class="cls-2"><rect class="cls-3" x="147.62" y="29.47" width="0.37" height="16.52"/><rect class="cls-4" x="141.48" y="48.88" width="13" height="1.52"/><path class="cls-3" d="M153.32,49h-.06l-5.45-2.89L142.69,49a.12.12,0,1,1-.12-.21l5.18-2.92a.12.12,0,0,1,.12,0l5.51,2.92a.12.12,0,0,1-.06.23Z"/><polygon class="cls-3" points="70.34 61.56 69.63 61.55 69.65 48.48 70.35 48.49 70.34 61.56"/><rect class="cls-5" x="69.72" y="28.78" width="0.72" height="11.4"/><path class="cls-6" d="M69.2,43.12h1.66a1.56,1.56,0,0,0,.25,1.66c.68.76,2.33,2.18.49,3.68-1.35,1.1-2.71-.15-3.37-1.49,0,0,2.66,1.9,2.73,0S69,45.72,69.2,43.12Z"/><path class="cls-7" d="M140.24,108l-1.33-10.7,0,0,0-.07v0s0,0,0,0a.38.38,0,0,0,0-.07.39.39,0,0,0,0-.07s0,0,0,0v0l0-.06,0-.06,0,0h0l-2.63-21.12h0a.38.38,0,0,0,0,0,.28.28,0,0,0,0-.14.38.38,0,0,0,0,0h0l0-.06,0,0-1.29-10.36,0-.06h0a.48.48,0,0,0,0,0,.27.27,0,0,0,0-.16s0,0,0,0h0a.42.42,0,0,0,0-.08l0,0,0,0L132.2,43.42l0,0,0,0v0a.43.43,0,0,0,0-.07.38.38,0,0,0,0-.06.38.38,0,0,0,0-.06.43.43,0,0,0,0-.07v0l0,0,0-.06,0,0,0,0-1.3-10.46s0,0,0,0a.41.41,0,0,0,0-.06v-.05l-1.37-11h0a.42.42,0,0,0,0-.13h0L119.68,2.54a.42.42,0,0,0-.8.2V108.19a.36.36,0,0,0,0,0v.08l0,0v0h0l.06.08h0l.07.05h0l.07,0h20.66a.42.42,0,0,0,.42-.42A.43.43,0,0,0,140.24,108ZM127.82,19.94l-4.4-3.21L125,14.63Zm2,11.29-4.77-4.74,3.66-4.16Zm-10.12-8.87,4.19,4.16-4.19,4.76Zm.14-1,3-3.92,5.51,4-3.94,4.48Zm.48,21.45L125.21,38l5.5,4.73Zm10.37.84-4.86,4.17-5.33-4.17Zm-11-1.42V33.32l4.85,4.17Zm.72-9.37h8.94l-4.2,4.07Zm-.2-.84,4.28-4.86L129.4,32Zm-.51,12.07,5.48,4.29-5.48,4.71Zm.72,9.5,5.44-4.68,6,4.68Zm11.42.84-5.34,4.18-5.89-4.18Zm-6,4.72-6.1,4.78v-9.1Zm-5.3,5.22,6-4.71,6.64,4.71Zm12.66.84-6,4.24-6.49-4.24Zm-13.46.36,6.75,4.41-6.75,4.79Zm.9,9.58,6.61-4.68,7.17,4.68ZM134.4,76l-6.55,4.27-7-4.27Zm-7.33,4.78-7.35,4.8V76.29Zm-7.35,15.62V87l8,4.47ZM128.56,92l8.39,4.7H120.81Zm-7.64-5.25h14.67l-7,4.27Zm-.2-.84,7.16-4.67,7.71,4.67ZM137,97.54,129.23,102,121,97.54Zm-7.59-6L136.78,87l1.15,9.26Zm-.73-10.77,6.78-4.43,1.15,9.24ZM128,69.91l6.14-4.35,1.13,9.1Zm-.73-10.83,5.53-4.33,1.12,9Zm-.7-10.77,4.9-4.21L132.55,53Zm-.71-10.86,4.27-4.15,1.09,8.76Zm-3.08-21.22-2.15-1.57H124Zm-.52.67-2.5,3.22v-5Zm-2.5,80.92,8.65,4.66-8.65,5Zm9.52,5.13,8.91,4.8H120.88Zm.86-.49,8-4.6,1.19,9.56Zm-5.49-88.63h-4.9V4.45Z"/><path class="cls-7" d="M119.63,28.58a.35.35,0,0,0,0-.12V21.35a.35.35,0,0,0-.35-.35H54.78l-.12,0h0a.35.35,0,0,0-.1.08h0l-6.36,7.11a.35.35,0,0,0,.26.59h70.87l.11,0h0l.09-.07h0v0l.05-.08Zm-40.94-.9L72,21.7h6.73ZM55.15,22.12l6.92,6H55.15Zm.59-.42h6.92v6Zm7.62.43,6.74,6H63.36Zm.57-.43h6.74v6Zm7.44.43,6.74,6H71.38Zm8,0,6.74,6H79.39ZM80,21.7H86.7v6Zm7.44.43,6.74,6H87.4ZM88,21.7h6.74v6Zm7.44.43,6.73,6H95.42ZM96,21.7h6.74v6Zm7.44.43,6.74,6h-6.74Zm.57-.43h6.74v6Zm7.44.42,6.92,6h-6.92ZM119,27.69l-6.92-6H119Zm-64.5-5.42v5.84H49.23Z"/><path class="cls-7" d="M168.89,28.22l-6.36-7.11h0a.35.35,0,0,0-.1-.08h0l-.13,0H129l-.12,0h0l-.08.06h0v0a.35.35,0,0,0-.05.11h0a.35.35,0,0,0,0,.13l1,7.11a.35.35,0,0,0,0,.11l0,0,.05.06,0,0,.09.06h0l.11,0h38.62a.35.35,0,0,0,.26-.59Zm-22.3-6.52h6.74l-6.74,6Zm-16.32,6.07-.84-6.07h7.85Zm7.6-5.65v6H131Zm.7-.42h6.74l-6.74,6Zm7.31.43v6h-6.74Zm8,0v6h-6.73Zm.7-.43h6.74l-6.74,6Zm7.31.43v6h-6.74Zm.7,6V22.27l5.22,5.84Z"/><rect class="cls-8" x="104.75" y="42.8" width="14.56" height="5.94"/><polygon class="cls-9" points="119.3 46.46 104.75 46.46 104.75 39.73 110.73 31.71 119.3 31.71 119.3 46.46"/><rect class="cls-10" x="113.89" y="33.15" width="4.15" height="5.84"/><polygon class="cls-11" points="118.03 38.99 116 38.99 118.03 33.15 118.03 38.99"/><polygon class="cls-10" points="112.62 38.99 107.2 38.99 111.26 33.15 112.62 33.15 112.62 38.99"/><rect class="cls-8" x="116.17" y="40.09" width="1.78" height="0.59"/><path class="cls-12" d="M146.24,22.16a.35.35,0,0,1-.2-.06l-26.79-19L71.15,21.68A.35.35,0,0,1,70.9,21L119.35,2.34l.15.11,26.94,19.08a.35.35,0,0,1-.2.64Z"/><rect class="cls-4" x="54" y="68.88" width="32.59" height="3.41"/><path class="cls-3" d="M83.69,69.18a.31.31,0,0,1-.14,0L69.89,61.91,57.05,69.14a.31.31,0,1,1-.3-.53l13-7.32a.31.31,0,0,1,.29,0l13.81,7.32a.31.31,0,0,1-.14.58Z"/><path class="cls-6" d="M64.56,38.35c-.53,0-.66.31-.28.68l5,5.09a1,1,0,0,0,1.37,0L76.1,39c.38-.36.26-.66-.26-.66Z"/><polygon class="cls-12" points="75.21 29.77 65.27 29.77 64.89 28.46 75.59 28.46 75.21 29.77"/><rect class="cls-4" x="111.65" y="108.5" width="33.02" height="3.23"/><rect class="cls-13" x="108.79" y="111.54" width="40.34" height="3.23"/><polygon class="cls-14" points="155.74 123.3 104.17 123.3 106.45 114.76 153.46 114.76 155.74 123.3"/><rect class="cls-15" x="142.88" y="28.46" width="9.48" height="2.03"/><rect class="cls-16" x="117.67" y="2.71" width="1.87" height="105.79"/><circle class="cls-8" cx="118.76" cy="2.35" r="2.35"/></g><g class="cls-17"><polygon class="cls-14" points="123.72 98.48 124.1 98.57 121.3 111.86 120.91 111.77 123.72 98.48"/><polygon class="cls-6" points="124.52 94.74 125.4 93.54 123.34 103.14 122.63 102.92 124.52 94.74"/><polygon class="cls-18" points="155.31 107.12 148.58 100.42 125.96 94.18 128.04 97.37 148.23 104.16 154.11 113.75 155.31 107.12"/><polygon class="cls-6" points="154.11 113.75 148.23 104.16 128.04 97.37 127.41 96.4 148.7 103.24 154.45 110.74 154.11 113.75"/><circle class="cls-19" cx="174.13" cy="110.26" r="0.92"/><rect class="cls-7" x="169.84" y="110.36" width="7.66" height="1.41"/><path class="cls-18" d="M166.68,111.78H177.5s2.91-.14,3.1,1.61a61.11,61.11,0,0,0,1.7,6.71H153.38v-5l2.16-10.49h9.81Z"/><path class="cls-6" d="M181.38,116.87c.45,1.67.92,3.22.92,3.22H153.38v-3.22Z"/><path class="cls-14" d="M177,123.87c-1.3-.25-6.18-1.25-6.18-1.25H158.26s-4.88,1-6.18,1.25-2.93.33-2.93,2.74a2.18,2.18,0,0,0,2.12,2.41h26.52a2.18,2.18,0,0,0,2.12-2.41C179.9,124.2,178.28,124.12,177,123.87Z"/><polygon class="cls-20" points="170.79 122.62 158.13 122.62 156.49 120.1 172.73 120.1 170.79 122.62"/><rect class="cls-6" x="174.11" y="118.59" width="6.07" height="1.5"/><polygon class="cls-10" points="159.62 112.53 155.56 112.53 156.26 105.71 159.62 105.71 159.62 112.53"/><polygon class="cls-10" points="165.7 112.53 160.69 112.53 160.69 105.71 164.71 105.71 165.7 112.53"/><polygon class="cls-7" points="162.11 116.24 157.9 116.24 158.04 114.33 162.11 114.33 162.11 116.24"/><path class="cls-18" d="M123.87,112l4.58-15.85s.54-2.62-1.36-3-2.54,1.64-2.49,3.12-1.78,15.45-1.78,15.45Z"/><path class="cls-14" d="M123.82,113.9l2.45,6,2,.05.52,1.08-4.62-.13a5.74,5.74,0,0,1-2.88-1.34c-1.25-1.15-2.39-3.91-1.75-5s1-1.72,1-1.72l-.23-1.17h4.42l.32,2.09Z"/><circle cx="177.23" cy="126.49" r="1.63"/><circle cx="152.1" cy="126.49" r="1.63"/><circle cx="172.99" cy="126.98" r="0.74"/><circle cx="169.66" cy="126.98" r="0.74"/><circle cx="166.33" cy="126.98" r="0.74"/><circle cx="163" cy="126.98" r="0.74"/><circle cx="159.67" cy="126.98" r="0.74"/><circle cx="156.34" cy="126.98" r="0.74"/><rect x="156.55" y="124.05" width="16.23" height="1.25"/><circle class="cls-7" cx="127.02" cy="95.35" r="0.69"/><path class="cls-20" d="M121.26,119.61c-1.25-1.15-2.39-3.91-1.75-5s1-1.72,1-1.72,2.14,6.64,2.87,7.35,5.35.84,5.35.84l-4.62-.13A5.74,5.74,0,0,1,121.26,119.61Z"/><polygon class="cls-11" points="160.69 105.71 160.69 112.53 162.02 112.53 160.69 105.71"/><polygon class="cls-11" points="156.26 105.71 155.56 112.53 157.08 112.53 157.08 105.71 156.26 105.71"/><polygon class="cls-14" points="152.08 114.56 151.72 114.74 145.43 101.69 145.78 101.51 152.08 114.56"/><rect class="cls-7" x="152.37" y="113.85" width="1" height="5.68" transform="translate(-36.1 80.96) rotate(-26.65)"/><circle class="cls-7" cx="145.64" cy="101.7" r="0.8"/></g><ellipse class="cls-21" cx="116.26" cy="144.06" rx="21.4" ry="0.45"/><polygon class="cls-14" points="124.85 135.55 122.11 135.55 122.38 134.46 124.85 134.46 124.85 135.55"/><path class="cls-5" d="M123,125.16a35.24,35.24,0,0,0-5.23-2.34,23.92,23.92,0,0,0-3.65-.67c-.69,0-3.65.11-4,.22s-1.88-.11-2.47.22a20.08,20.08,0,0,1-2.27,1c-.59.22-3.06,1-3.06,1l-2.37.56Z"/><rect x="126.55" y="125.87" width="0.74" height="3.72"/><path class="cls-9" d="M130,140.15a3.39,3.39,0,0,1,6.58.12l3.33-1s0-3,0-4-2.77-6.73-2.77-6.73a1.3,1.3,0,0,0-1.28-.8H128v12.45H130Z"/><path class="cls-22" d="M128,140.15H130a3.39,3.39,0,0,1,6.58.12l3.33-1s0-2.8,0-3.88H128Z"/><rect class="cls-14" x="97.6" y="137.47" width="30.36" height="2.72"/><rect class="cls-8" x="125.88" y="128.25" width="2.08" height="4.43"/><circle cx="133.31" cy="141.53" r="2.87"/><circle class="cls-13" cx="133.31" cy="141.53" r="1.41"/><circle cx="110.87" cy="141.53" r="2.87"/><circle class="cls-13" cx="110.87" cy="141.53" r="1.41"/><circle cx="102.45" cy="141.53" r="2.87"/><circle class="cls-13" cx="102.45" cy="141.53" r="1.41"/><polygon class="cls-10" points="131.44 128.84 136.09 128.84 137.38 132.69 131.44 132.69 131.44 128.84"/><rect class="cls-23" x="131.78" y="133.59" width="1.4" height="0.33"/><rect class="cls-18" x="138.9" y="135.43" width="1.05" height="1.56"/><rect class="cls-8" x="138.9" y="136.99" width="1.05" height="1.65"/><rect class="cls-13" x="116.11" y="138.33" width="8.48" height="4.3" rx="0.51" ry="0.51"/><rect x="117.64" y="138.33" width="0.89" height="4.3"/><rect x="122.1" y="138.33" width="0.89" height="4.3"/><rect x="124.85" y="133.7" width="3.12" height="3.77"/><polygon class="cls-11" points="131.44 128.84 131.44 132.69 133.25 132.69 131.44 128.84"/><polygon class="cls-18" points="126.24 122.48 125.25 122.48 124.61 124.94 98.08 124.94 94.95 136.94 123.83 136.94 125.86 124.94 126.24 123.26 127.13 123.26 127.39 122.48 126.24 122.48"/><polygon class="cls-6" points="96.16 132.3 94.95 136.94 123.83 136.94 124.62 132.3 96.16 132.3"/><polygon class="cls-7" points="103.03 136.94 101.35 136.94 104.48 124.94 106.03 124.94 103.03 136.94"/><polygon class="cls-7" points="109.98 136.94 108.3 136.94 111.42 124.94 112.97 124.94 109.98 136.94"/><polygon class="cls-7" points="116.92 136.94 115.24 136.94 118.36 124.94 119.91 124.94 116.92 136.94"/><path class="cls-24" d="M118.11,77.1c3.77-4.6,8.51-10.6,12.19-5.93,7,8.88,3.94,13.66.17,18.25s-12,5.17-16.63,1.39S114.34,81.7,118.11,77.1Z"/><path class="cls-25" d="M120.8,79.54c2.2-2.68,5-6.17,7.1-3.45,4.07,5.17,2.3,8,.1,10.63s-7,3-9.69.81S118.6,82.22,120.8,79.54Z"/><path class="cls-24" d="M75.49,54.8c-2,6-3.42,14.14-9.33,10.68-11.24-6.57-10-12.47-8-18.43s10.59-9.39,17.1-7.16S77.54,48.84,75.49,54.8Z"/><path class="cls-25" d="M74.92,55.66c-1.26,3.68-2.11,8.73-5.76,6.6-6.94-4.06-6.2-7.7-4.94-11.37s6.54-5.8,10.56-4.42S76.18,52,74.92,55.66Z"/><path class="cls-24" d="M83.29,88.08c5,4.86.57,6.62-7,23.5-5.26,11.71-9.65,32.93-17.09,29.6s-7.76-25.68-2.51-37.4C62.76,90.23,78.33,83.27,83.29,88.08Z"/><circle class="cls-25" cx="98.97" cy="64.51" r="29.94"/><path class="cls-26" d="M55.92,103.48c-6.3,12.55-.62,19.44-12.55,13.31-10-5.14-14.46-13.34-7.41-23.05,9.54-13.14,25.8-17,33-12.13,2.24,1.52,6.24,4.27,1.28,7A33.22,33.22,0,0,0,55.92,103.48Z"/><path class="cls-24" d="M114.07,84.69a12.73,12.73,0,0,1-2.5,7,29.94,29.94,0,0,0,10.72-8.39C121.17,83.52,117.61,86.45,114.07,84.69Z"/><path class="cls-24" d="M81.47,66.16C79,63.32,77.8,57.56,79,53.68c1.72-5.44,6.33-12.06,14.6-12.76,8-.68,17.62,5.07,17.62,13.49,2.35-1.34,4.65-2.9,7.55-2.9a16,16,0,0,1,8.07,2.17,29.94,29.94,0,1,0-50,31C76.63,83.52,69.43,72.15,81.47,66.16Z"/><path class="cls-27" d="M88.21,139.25c-1.48.73-6.13,2.07-13.83,2.64-14.87,1.11-13.95,1.16-14.15-2-.1-1.64,6-3.39,13.75-3.91S90,138.35,88.21,139.25Z"/><path class="cls-27" d="M74.64,140.8a15.35,15.35,0,0,1,5.1.65c3.84,1.61,4.33,3.94-1.07,1.9a31.08,31.08,0,0,0-6.78-1.57Z"/><path class="cls-27" d="M80.56,140.43s3-1.44,5-1.22c4.53.5,5.74,2.08-.32,2.16-3.41,0-7,.19-7,.19Z"/><path class="cls-26" d="M54.33,106.2s1.07-.29,11.25-3.35c2-.61,8.36-2.19,8.36-2.19l-.63-3s-14.51,3.89-16.13,2Z"/><circle class="cls-28" cx="112.25" cy="74.84" r="3.97"/><circle class="cls-29" cx="111.89" cy="72.66" r="0.92"/><circle class="cls-28" cx="95.87" cy="63.92" r="4.22"/><circle class="cls-29" cx="95.51" cy="61.77" r="0.9"/><path class="cls-30" d="M56.74,136.44c-1.7,1.07-8.44,5.07-16.2,3.05-10.48-2.72-14.11-14.14-15-17-3-9.34-.33-17.72,1.52-23.57,2.3-7.28,3.92-7.11,9.43-19.66,4-9.1,6-13.75,6-19,0-3.29.06-12.33-7-18.73A20.67,20.67,0,0,0,16,36.88c-1,.3-9.31,2.95-12.69,11.57a19.36,19.36,0,0,0,.12,14.3c.56,1.32,3.2,7.59,10.16,10,1.13.4,7.61,2.67,13.64-1.24a15.26,15.26,0,0,0,6.56-10.68c.17-1.45.7-6.14-2.56-10a12.18,12.18,0,0,0-13-3.54,11.29,11.29,0,0,0-6.7,6.07c-.35.84-2.45,5.91.69,9.12,2.14,2.18,5.84,2.64,9.07,1"/><path class="cls-25" d="M122.14,127.66c-.4,2.81-1,6.36-1.9,5.66s-.26-6.11-.26-6.11l-.95-1a21.37,21.37,0,0,1-1.74,1.61c-.38.32-2,.11-2,.11s-.52-2.78-4.49-6.77c0,0,1.78-4.34,4.58-3.47a9.07,9.07,0,0,1,4,2.22s.08.17.21.45C121.33,122.61,122.39,126,122.14,127.66Z"/><path class="cls-24" d="M78.14,94.77c2.5,7.49-1.83,23.14,10.6,23.44s19-2.75,23.49-1.52,4.87,1.29,6.66,3.24c3.61,3.94-4.23,4-4.23,4a9,9,0,0,0-8-2.07c-4.91,1-20.68,4.43-23.82,2.48S67.06,115.54,70,96.4c.59-3.85,1.75-4,3.22-4.5S77.09,91.6,78.14,94.77Z"/><path class="cls-25" d="M119.06,126.22s1.28,4.68-.15,6c-2.37,2.13-2.17.83-2.17.83s1.68-1.9.78-5.88c-.13-.56-1.24-.84-1.24-.84S118.83,125.29,119.06,126.22Z"/><path class="cls-25" d="M116.79,126.44s1.06,3.26-.51,4.25c-2.62,1.66-2.33.72-2.33.72a4.07,4.07,0,0,0,1.17-4.23,6.22,6.22,0,0,0-.39-1S116.6,125.8,116.79,126.44Z"/><path class="cls-26" d="M76.6,91.86a9,9,0,0,0-7.91-2.44s2.15-1.25,2.25-1.32,10-.75,8.77,9.74L77.33,92.9A3.82,3.82,0,0,0,76.6,91.86Z"/><path class="cls-31" d="M70.69,93.79a21.46,21.46,0,0,0-.31,5.37,48,48,0,0,0,.55,5.34c.24,1.78.61,3.54,1,5.31l.57,2.65c.19.89.41,1.77.57,2.67-.37-.83-.69-1.69-1-2.53s-.58-1.73-.86-2.6-.47-1.76-.68-2.65-.38-1.79-.5-2.7a29.26,29.26,0,0,1-.34-5.49A14.18,14.18,0,0,1,70.69,93.79Z"/><path class="cls-24" d="M91.68,110.81c4.53,5.86-4.4,16.24-12.67,24.47-8.63,8.59-19.46,9.75-24,3.89s.77-14.29,9.35-22.19C73.14,108.91,87.15,105,91.68,110.81Z"/><path class="cls-31" d="M86.2,108.1a18.42,18.42,0,0,0-4.41.26,24.35,24.35,0,0,0-4.26,1.06,34.45,34.45,0,0,0-7.83,3.9l-1.82,1.24-1.71,1.38-.86.68-.81.75c-.54.5-1.08,1-1.63,1.49-1.06,1-2,2.13-3.07,3.19s-1.91,2.26-2.9,3.37c.81-1.24,1.68-2.45,2.53-3.68s1.89-2.31,2.9-3.41c.52-.54,1-1.07,1.58-1.59l.8-.79.86-.73,1.74-1.43,1.85-1.29a29.39,29.39,0,0,1,8.15-3.8A19.54,19.54,0,0,1,86.2,108.1Z"/><ellipse class="cls-21" cx="165.59" cy="129.59" rx="21.4" ry="0.45"/><path class="cls-24" d="M128.52,58.69a18.45,18.45,0,0,1,.76,3.14,28.85,28.85,0,0,1,.24,3.24,24.7,24.7,0,0,1-.76,6.46,25,25,0,0,1-2.37,6.06,29,29,0,0,1-1.71,2.76c-.64.87-1.35,1.69-2.05,2.5a48.7,48.7,0,0,0,3.05-5.6,34,34,0,0,0,2.08-6,33.4,33.4,0,0,0,1-6.23A31.4,31.4,0,0,0,128.52,58.69Z"/></g></g></g></svg>