<svg xmlns="http://www.w3.org/2000/svg" viewBox="0 0 17.77 17.77"><defs><style>.cls-1{fill:none;}.cls-2{fill:#808b9e;}</style></defs><title>bad</title><g id="Layer_2" data-name="Layer 2"><g id="search_result" data-name="search result"><rect class="cls-1" width="17.77" height="17.77"/><path class="cls-2" d="M5.25,3.07v7.26a1.45,1.45,0,0,0,.42,1l4.79,4.79.77-.76a1.09,1.09,0,0,0,.32-.77l0-.23-.69-3.32h4.58a1.46,1.46,0,0,0,1.45-1.45V9.55h0V8.16a1.42,1.42,0,0,0-.1-.53L14.58,2.51a1.44,1.44,0,0,0-1.34-.89H6.71A1.46,1.46,0,0,0,5.25,3.07ZM.9,1.62v8.72H3.8V1.62Z"/></g></g></svg>