<svg xmlns="http://www.w3.org/2000/svg" viewBox="0 0 28.28 28.28"><defs><style>.cls-1{fill:none;}.cls-2{fill:#40b449;}.cls-3{fill:#66c8cf;}</style></defs><title>budget_up</title><g id="Layer_2" data-name="Layer 2"><g id="search_result" data-name="search result"><rect class="cls-1" width="28.28" height="28.28"/><rect class="cls-2" x="20" y="16.82" width="3.34" height="10.76"/><polygon class="cls-2" points="26.17 18.13 21.67 10.35 17.18 18.13 26.17 18.13"/><path class="cls-3" d="M15.48,20a4.21,4.21,0,0,1-2.4.6,11.62,11.62,0,0,1-5.47-1.45L6.63,23a13.24,13.24,0,0,0,5.6,1.42v3.13h3.23V24.22a8.65,8.65,0,0,0,2.65-.89V20ZM14.7,7.29a10.92,10.92,0,0,1,4.74,1.12l1-3.72a11.84,11.84,0,0,0-4.77-1.09V.71H12.39V3.84c-3.52.69-5.57,3-5.57,5.86,0,3.2,2.4,4.84,5.93,6a8.09,8.09,0,0,1,2.81,1.4L18,12.91A15.5,15.5,0,0,0,15.82,12c-2.8-1.05-4-1.75-4-2.83C11.87,8.22,12.56,7.29,14.7,7.29Z"/></g></g></svg>