<svg xmlns="http://www.w3.org/2000/svg" viewBox="0 0 28.28 28.28"><defs><style>.cls-1{fill:none;}.cls-2{fill:#66c8cf;}.cls-3{fill:#ed2525;}</style></defs><title>budget_down</title><g id="Layer_2" data-name="Layer 2"><g id="search_result" data-name="search result"><rect class="cls-1" width="28.28" height="28.28"/><path class="cls-2" d="M15.21,20.19a4.6,4.6,0,0,1-2.13.44,11.62,11.62,0,0,1-5.47-1.45L6.63,23a13.24,13.24,0,0,0,5.6,1.42v3.13h3.23V24.22a9.27,9.27,0,0,0,1.8-.5ZM14.7,7.29a10.92,10.92,0,0,1,4.74,1.12l1-3.72a11.84,11.84,0,0,0-4.77-1.09V.71H12.39V3.84c-3.52.69-5.57,3-5.57,5.86,0,3.2,2.4,4.84,5.93,6,2,.66,3,1.3,3.36,2.17h2V13a15.21,15.21,0,0,0-2.29-1c-2.8-1.05-4-1.75-4-2.83C11.87,8.22,12.56,7.29,14.7,7.29Z"/><rect class="cls-3" x="20" y="10.35" width="3.34" height="10.76"/><polygon class="cls-3" points="26.17 19.8 21.67 27.58 17.18 19.8 26.17 19.8"/></g></g></svg>