<svg xmlns="http://www.w3.org/2000/svg" viewBox="0 0 12.29 12.29"><defs><style>.cls-1{fill:none;}.cls-2{fill:#808b9e;}</style></defs><title>business_checkin</title><g id="Layer_2" data-name="Layer 2"><g id="search_result" data-name="search result"><rect class="cls-1" width="12.29" height="12.29"/><path class="cls-2" d="M9.2,6.68A2.51,2.51,0,1,0,11.71,9.2,2.52,2.52,0,0,0,9.2,6.68Zm-.31,3.89L7.39,9.09l.54-.54,1,1L10.3,8.08l.54.54Z"/><path class="cls-2" d="M8.85,5.94A4.21,4.21,0,1,0,1.49,7.41L4.8,11.56,6,10A3.28,3.28,0,0,1,8.85,5.94Zm-6-1.2a1.9,1.9,0,1,1,1.9,1.9A1.9,1.9,0,0,1,2.9,4.74Z"/></g></g></svg>