<svg xmlns="http://www.w3.org/2000/svg" viewBox="0 0 12.29 12.29"><defs><style>.cls-1{fill:none;}.cls-2{fill:#808b9e;}</style></defs><title>business_like</title><g id="Layer_2" data-name="Layer 2"><g id="search_result" data-name="search result"><rect class="cls-1" width="12.29" height="12.29"/><path class="cls-2" d="M11.54,4.11a3.07,3.07,0,0,0-2.93-3,2.91,2.91,0,0,0-2.5,1.44A2.81,2.81,0,0,0,3.68,1.1a3.07,3.07,0,0,0-2.93,3A3.11,3.11,0,0,0,.84,5.25a4.9,4.9,0,0,0,1.5,2.51l3.77,3.43L10,7.76a4.9,4.9,0,0,0,1.5-2.51A3.11,3.11,0,0,0,11.54,4.11Z"/></g></g></svg>