<svg xmlns="http://www.w3.org/2000/svg" viewBox="0 0 12.23 13.53"><defs><style>.cls-1{fill:#808b9e;}</style></defs><title>business_review</title><g id="Layer_2" data-name="Layer 2"><g id="search_result" data-name="search result"><path class="cls-1" d="M11.29,2.69,7,.22a2,2,0,0,0-1.84,0L.9,2.69A2,2,0,0,0,0,4.29v5a2,2,0,0,0,.91,1.6l4.26,2.47a2,2,0,0,0,1.84,0l4.28-2.47a2.06,2.06,0,0,0,.94-1.6v-5A2.06,2.06,0,0,0,11.29,2.69ZM8.76,10.47l-2.69-2-2.69,2,1-3.17L1.72,5.36l3.33,0,1-3.18,1,3.18,3.33,0L7.71,7.31Z"/></g></g></svg>