<svg xmlns="http://www.w3.org/2000/svg" viewBox="0 0 35.73 35.73"><defs><style>.cls-1{fill:#ffae14;}</style></defs><title>clock</title><g id="Layer_2" data-name="Layer 2"><g id="search_result" data-name="search result"><path class="cls-1" d="M17.86,0A17.86,17.86,0,1,0,35.73,17.86,17.88,17.88,0,0,0,17.86,0Zm0,31.93A14.06,14.06,0,1,1,31.93,17.86,14.08,14.08,0,0,1,17.86,31.93Zm0,0"/><path class="cls-1" d="M27.17,17.31h-8V7.66a1.47,1.47,0,0,0-2.94,0V18.78a1.47,1.47,0,0,0,1.47,1.47h9.5a1.47,1.47,0,1,0,0-2.94Zm0,0"/></g></g></svg>