<svg xmlns="http://www.w3.org/2000/svg" viewBox="0 0 14.37 14.37"><defs><style>.cls-1{fill:#fff;}</style></defs><title>close_icon</title><g id="Layer_2" data-name="Layer 2"><g id="popup"><path class="cls-1" d="M7.18,0a7.19,7.19,0,1,0,7.19,7.19A7.19,7.19,0,0,0,7.18,0Zm3.09,9.13L9.13,10.28A26.3,26.3,0,0,0,7.18,8.33a26.82,26.82,0,0,0-1.95,1.94L4.1,9.13A22.43,22.43,0,0,0,6,7.19,22,22,0,0,0,4.1,5.24L5.24,4.1S7.07,6,7.18,6,9.13,4.1,9.13,4.1l1.14,1.14A26.35,26.35,0,0,0,8.33,7.19c0,.13,1.94,1.94,1.94,1.94Zm0,0"/></g></g></svg>