<svg xmlns="http://www.w3.org/2000/svg" viewBox="0 0 303.22 303.22"><defs><style>.cls-1{fill:#808b9e;}.cls-2{fill:#63c9d0;}.cls-3{fill:none;}</style></defs><title>couponVote</title><g id="Layer_2" data-name="Layer 2"><g id="Layer_1-2" data-name="Layer 1"><path class="cls-1" d="M124.21,283.11a16.36,16.36,0,0,1-11.64-4.81L36.83,202.56a16.48,16.48,0,0,1,0-23.28l72.7-72.7a5.75,5.75,0,0,1,8.13,0A13.17,13.17,0,0,0,136.29,88a5.75,5.75,0,0,1,0-8.13L176,40.16a16.49,16.49,0,0,1,23.28,0L275,115.9a16.49,16.49,0,0,1,0,23.28l-39.67,39.67a5.75,5.75,0,0,1-4.06,1.68h0a5.74,5.74,0,0,1-4.06-1.68,13.48,13.48,0,0,0-18.63,0,13.16,13.16,0,0,0,0,18.63,5.75,5.75,0,0,1,0,8.13l-72.7,72.7A16.34,16.34,0,0,1,124.21,283.11ZM114.07,118.3,45,187.41a5,5,0,0,0,0,7l75.74,75.74a5.12,5.12,0,0,0,7,0l69.1-69.11a24.68,24.68,0,0,1,33.94-33.94l36.08-36.08a5,5,0,0,0,0-7L191.1,48.29h0a5.12,5.12,0,0,0-7,0L148,84.37a24.67,24.67,0,0,1-33.93,33.93Z"/><path class="cls-1" d="M231.24,180.53h0a5.74,5.74,0,0,1-4.06-1.68,13.48,13.48,0,0,0-18.63,0,5.92,5.92,0,0,1-8.13,0l-64.13-64.14a5.75,5.75,0,0,1,0-8.13,13.19,13.19,0,0,0,0-18.63,5.75,5.75,0,0,1,0-8.13L176,40.16a16.49,16.49,0,0,1,23.28,0L275,115.9a16.48,16.48,0,0,1,0,23.28l-39.67,39.67A5.75,5.75,0,0,1,231.24,180.53ZM148,110.17l57,57a25.2,25.2,0,0,1,25.81,0l36.08-36.08a5,5,0,0,0,0-7L191.1,48.29h0a5.12,5.12,0,0,0-7,0L148,84.37A24.76,24.76,0,0,1,148,110.17Z"/><path class="cls-2" d="M151.61,109.67a27.68,27.68,0,0,0,0-24.81l34.52-34.52a2.09,2.09,0,0,1,2.91,0l75.75,75.74a2.09,2.09,0,0,1,0,2.91l-34.53,34.52a27.68,27.68,0,0,0-24.81,0Z"/><path class="cls-1" d="M159.14,197.33h-73a5.75,5.75,0,0,1,0-11.5h73a5.75,5.75,0,1,1,0,11.5Z"/><path class="cls-1" d="M122.66,236a16.6,16.6,0,1,1,11.75-28.34h0A16.6,16.6,0,0,1,122.66,236Zm0-21.71a5.11,5.11,0,1,0,3.62,1.5h0A5.07,5.07,0,0,0,122.67,214.31Z"/><path class="cls-1" d="M122.67,179a16.61,16.61,0,1,1,11.74-28.35h0A16.61,16.61,0,0,1,122.67,179Zm0-21.72a5.11,5.11,0,0,0-3.62,8.73,5.23,5.23,0,0,0,7.23,0,5.12,5.12,0,0,0,0-7.22h0A5.07,5.07,0,0,0,122.67,157.23Z"/><rect class="cls-3" width="303.22" height="303.22"/></g></g></svg>