<svg xmlns="http://www.w3.org/2000/svg" viewBox="0 0 38.67 38.67"><defs><style>.cls-1{fill:none;}.cls-2{fill:#65c7ce;}.cls-3{fill:#fff;}</style></defs><title>coupon</title><g id="Layer_2" data-name="Layer 2"><g id="search_result" data-name="search result"><path class="cls-1" d="M20.4,13.94a.81.81,0,0,0,.07-1.14L18.6,10.93a.81.81,0,0,0-1.14.07l0,0L20.38,14Z"/><path class="cls-1" d="M17.39,12.13,19.26,14a.8.8,0,0,0,1.12,0L17.44,11A.8.8,0,0,0,17.39,12.13Z"/><path class="cls-2" d="M28.67,22.24l-.81-.81a.89.89,0,0,1-.61.25.72.72,0,0,1-.51-.2l-1.87-1.87a.81.81,0,0,1,.05-1.11l-.81-.81a.89.89,0,0,1-.61.25.71.71,0,0,1-.51-.2l-1.87-1.87a.8.8,0,0,1,0-1.11L20.38,14a.89.89,0,0,1-.61.25.71.71,0,0,1-.51-.2l-1.87-1.87a.8.8,0,0,1,0-1.11l-.81-.81a.89.89,0,0,1-.61.25.72.72,0,0,1-.51-.2l-.13-.13L.54,25a1.61,1.61,0,0,0-.14,2.27l11,11a1.41,1.41,0,0,0,1,.41,1.79,1.79,0,0,0,1.26-.54L28.55,23.27A.83.83,0,0,1,28.67,22.24ZM12.52,37l0,0L1.68,26.18l0,0,13.9-13.9a2.34,2.34,0,0,0,.61,1.05l1.87,1.87a2.35,2.35,0,0,0,1.22.64A2.35,2.35,0,0,0,20,17l1.87,1.87a2.34,2.34,0,0,0,1.22.64,2.33,2.33,0,0,0,.65,1.22l1.87,1.87a2.28,2.28,0,0,0,.74.5Z"/><path class="cls-3" d="M26.32,23.16,12.52,37l0,0L1.68,26.18l0,0,13.9-13.9a2.34,2.34,0,0,0,.61,1.05l1.87,1.87a2.35,2.35,0,0,0,1.22.64A2.35,2.35,0,0,0,20,17l1.87,1.87a2.34,2.34,0,0,0,1.22.64,2.33,2.33,0,0,0,.65,1.22l1.87,1.87A2.28,2.28,0,0,0,26.32,23.16Z"/><path class="cls-2" d="M25,.54,16.59,8.92l.13.13a.81.81,0,0,1-.07,1.14l0,0,.8.8,0,0a.81.81,0,0,1,1.14-.07l1.87,1.87a.81.81,0,0,1-.07,1.14l0,0,.8.8h0a.81.81,0,0,1,1.14-.07l1.87,1.87a.81.81,0,0,1-.07,1.14l0,0,.8.8,0,0a.81.81,0,0,1,1.14-.07L28,20.29a.81.81,0,0,1-.07,1.14l0,0,.8.8,0,0a.83.83,0,0,1,1-.14l8.39-8.39a1.62,1.62,0,0,0,.13-2.27l-11-11A1.62,1.62,0,0,0,25,.54Z"/></g></g></svg>