<svg xmlns="http://www.w3.org/2000/svg" viewBox="0 0 16 16"><defs><style>.cls-1{fill:none;}.cls-2{fill:#f05a75;}</style></defs><title>coupon_icon</title><g id="Layer_2" data-name="Layer 2"><g id="search_result" data-name="search result"><rect class="cls-1" width="16" height="16"/><path class="cls-2" d="M11.52,9.1l-.3-.3a.34.34,0,0,1-.23.1.27.27,0,0,1-.19-.08l-.71-.71a.3.3,0,0,1,0-.42l-.3-.3a.34.34,0,0,1-.23.09.27.27,0,0,1-.19-.08L8.68,6.7a.3.3,0,0,1,0-.42L8.39,6a.34.34,0,0,1-.23.1A.27.27,0,0,1,8,6l-.71-.71a.3.3,0,0,1,0-.42L7,4.56a.34.34,0,0,1-.23.1.27.27,0,0,1-.19-.08l0-.05L.92,10.12A.61.61,0,0,0,.87,11L5,15.13a.53.53,0,0,0,.38.15.68.68,0,0,0,.47-.2l5.6-5.6A.31.31,0,0,1,11.52,9.1ZM5.43,14.64h0L1.35,10.58h0L6.6,5.33a.88.88,0,0,0,.23.4l.71.71A.89.89,0,0,0,8,6.68a.88.88,0,0,0,.24.46l.71.71a.88.88,0,0,0,.46.24.88.88,0,0,0,.24.46l.71.71a.86.86,0,0,0,.28.19Z"/><path class="cls-2" d="M10.13.92,7,4.08l0,0a.3.3,0,0,1,0,.43H7l.3.3h0a.3.3,0,0,1,.43,0l.71.71A.3.3,0,0,1,8.4,6h0l.3.3h0a.31.31,0,0,1,.43,0l.71.71a.3.3,0,0,1,0,.43h0l.3.3h0a.3.3,0,0,1,.43,0l.71.71a.3.3,0,0,1,0,.43h0l.3.3h0A.31.31,0,0,1,11.92,9l3.16-3.16A.61.61,0,0,0,15.13,5L11,.87A.61.61,0,0,0,10.13.92Z"/></g></g></svg>