<svg xmlns="http://www.w3.org/2000/svg" viewBox="0 0 20.88 20.88"><defs><style>.cls-1{fill:#808b9e;}.cls-2{fill:#5fcc56;}.cls-3{fill:#fff;}.cls-4{fill:#63c9d0;}.cls-5{fill:none;}</style></defs><title>download-checkin</title><g id="Layer_2" data-name="Layer 2"><g id="donwnload_page" data-name="donwnload page"><path class="cls-1" d="M15.08,19.36a4.25,4.25,0,1,1,4.25-4.25A4.25,4.25,0,0,1,15.08,19.36Zm0-7.7a3.46,3.46,0,1,0,3.46,3.46A3.46,3.46,0,0,0,15.08,11.65Z"/><circle class="cls-2" cx="15.08" cy="15.11" r="3.12"/><polygon class="cls-3" points="14.59 17.22 12.32 14.95 13.14 14.12 14.59 15.58 16.77 13.41 17.59 14.23 14.59 17.22"/><path class="cls-1" d="M8.34,19.13A.4.4,0,0,1,8,19L3,12.61A6.78,6.78,0,0,1,1.49,8.37a6.85,6.85,0,1,1,13.44,1.86.4.4,0,0,1-.34.29,4.62,4.62,0,0,0-4,5.75.4.4,0,0,1-.07.35L8.65,19A.4.4,0,0,1,8.34,19.13Zm0-16.82A6.07,6.07,0,0,0,2.28,8.37a6,6,0,0,0,1.3,3.75l4.75,6,1.45-1.83a5.41,5.41,0,0,1,4.44-6.51,6.06,6.06,0,0,0-5.9-7.45Zm0,9.27a3.3,3.3,0,1,1,3.3-3.3A3.3,3.3,0,0,1,8.34,11.59Zm0-5.81a2.51,2.51,0,1,0,2.51,2.51A2.51,2.51,0,0,0,8.34,5.78Z"/><path class="cls-4" d="M3.84,11.92A5.66,5.66,0,0,1,2.61,8.37,5.73,5.73,0,1,1,14,9.48a5.74,5.74,0,0,0-4.52,6.71l-1.1,1.38Zm4.5-7.26A3.63,3.63,0,1,0,12,8.29,3.64,3.64,0,0,0,8.34,4.65Z"/><rect class="cls-5" width="20.88" height="20.88"/></g></g></svg>