<svg xmlns="http://www.w3.org/2000/svg" viewBox="0 0 19.5 19.5"><defs><style>.cls-1{fill:#808b9e;}.cls-2{fill:#e15050;}.cls-3{fill:#63c9d0;}.cls-4{fill:none;}</style></defs><title>download-menu</title><g id="Layer_2" data-name="Layer 2"><g id="donwnload_page" data-name="donwnload page"><path d="M15,1.09H4.47A1.29,1.29,0,0,0,3.18,2.37V17.13a1.29,1.29,0,0,0,1.29,1.29H15a1.29,1.29,0,0,0,1.29-1.29V2.37A1.29,1.29,0,0,0,15,1.09Zm-3.42.69h1.62V3.7l-.55-.54a.35.35,0,0,0-.48,0l-.59.56Zm4,15.35a.6.6,0,0,1-.6.6H4.47a.6.6,0,0,1-.59-.6V2.37a.6.6,0,0,1,.59-.6h6.46V4.52a.34.34,0,0,0,.58.25l.93-.88.9.88a.35.35,0,0,0,.24.1l.14,0a.35.35,0,0,0,.21-.32V1.78H15a.6.6,0,0,1,.6.6Z"/><path class="cls-1" d="M15,1.09H4.47A1.29,1.29,0,0,0,3.18,2.37V17.13a1.29,1.29,0,0,0,1.29,1.29H15a1.29,1.29,0,0,0,1.29-1.29V2.37A1.29,1.29,0,0,0,15,1.09Zm-3.42.69h1.62V3.7l-.55-.54a.35.35,0,0,0-.48,0l-.59.56Zm4,15.35a.6.6,0,0,1-.6.6H4.47a.6.6,0,0,1-.59-.6V2.37a.6.6,0,0,1,.59-.6h6.46V4.52a.34.34,0,0,0,.58.25l.93-.88.9.88a.35.35,0,0,0,.24.1l.14,0a.35.35,0,0,0,.21-.32V1.78H15a.6.6,0,0,1,.6.6Z"/><path class="cls-2" d="M11.9,2.06h1V3L12.89,3a.64.64,0,0,0-.44-.18A.63.63,0,0,0,12,3l-.11.1Z"/><path class="cls-3" d="M5.59,17.15a.91.91,0,0,0,0-.28V6.27a.91.91,0,0,0-.24-.62A.91.91,0,0,0,5.63,5V4.68A.92.92,0,0,0,4.45,3.8V2.37a0,0,0,0,1,0,0h5.89V4.52a.92.92,0,0,0,.1.42H7.56a1.7,1.7,0,0,0-1.7,1.69V7.69a1.7,1.7,0,0,0,1.7,1.7h4.38a1.7,1.7,0,0,0,1.7-1.7V6.63A1.7,1.7,0,0,0,12.15,5l.28-.27.51.49a.92.92,0,0,0,1.56-.66V2.35H15a0,0,0,0,1,0,0V17.13a0,0,0,0,1,0,0Z"/><path class="cls-1" d="M5.06,6.27v10.6a.35.35,0,0,1-.69,0V6.27a.35.35,0,0,1,.69,0Z"/><path class="cls-1" d="M5.06,4.68V5a.35.35,0,0,1-.69,0V4.68a.35.35,0,0,1,.69,0Z"/><path class="cls-1" d="M11.94,5.51H7.56A1.12,1.12,0,0,0,6.44,6.63V7.69A1.12,1.12,0,0,0,7.56,8.81h4.38a1.12,1.12,0,0,0,1.12-1.12V6.63A1.12,1.12,0,0,0,11.94,5.51Zm.43,2.18a.43.43,0,0,1-.43.43H7.56a.43.43,0,0,1-.43-.43V6.63a.43.43,0,0,1,.43-.43h4.38a.43.43,0,0,1,.43.43Z"/><path class="cls-1" d="M11.48,6.83H8a.35.35,0,0,0,0,.69h3.45a.35.35,0,1,0,0-.69Z"/><rect class="cls-4" width="19.5" height="19.5"/></g></g></svg>