<svg xmlns="http://www.w3.org/2000/svg" viewBox="0 0 23.89 23.89"><defs><style>.cls-1{fill:#808b9e;}.cls-2{fill:#a1e0e2;}.cls-3{fill:#63c9d0;}.cls-4{fill:none;}</style></defs><title>download-users</title><g id="Layer_2" data-name="Layer 2"><g id="Layer_1-2" data-name="Layer 1"><path class="cls-1" d="M16.37,12.85A3.54,3.54,0,1,1,19.9,9.31,3.54,3.54,0,0,1,16.37,12.85Zm0-6.16A2.63,2.63,0,1,0,19,9.31,2.62,2.62,0,0,0,16.37,6.69Z"/><path class="cls-2" d="M16.37,11.49a2.18,2.18,0,1,1,2.17-2.18A2.18,2.18,0,0,1,16.37,11.49Z"/><path class="cls-2" d="M15,18.92a6.7,6.7,0,0,0-1.5-3.82,5.06,5.06,0,0,1,2.83-.85,5.13,5.13,0,0,1,5.11,4.67Z"/><path class="cls-1" d="M8.27,12a3.95,3.95,0,1,1,4-3.94A3.95,3.95,0,0,1,8.27,12Zm0-7a3,3,0,1,0,3,3A3,3,0,0,0,8.27,5Z"/><path class="cls-3" d="M8.27,10.59A2.59,2.59,0,1,1,10.86,8,2.59,2.59,0,0,1,8.27,10.59Z"/><path class="cls-3" d="M2.41,18.92A5.88,5.88,0,0,1,8.27,13.5a5.88,5.88,0,0,1,5.86,5.42Z"/><path class="cls-1" d="M8.27,13a6.3,6.3,0,0,1,4.6,2A5.59,5.59,0,0,1,22,19.38h-20A6.33,6.33,0,0,1,8.27,13m0-.9A7.25,7.25,0,0,0,1,19.38a.91.91,0,0,0,.91.91H22a.9.9,0,0,0,.9-.91A6.49,6.49,0,0,0,13,13.86a7.14,7.14,0,0,0-4.69-1.72Z"/><rect class="cls-4" width="23.89" height="23.89"/></g></g></svg>