<svg xmlns="http://www.w3.org/2000/svg" viewBox="0 0 22.13 22.13"><defs><style>.cls-1{fill:#808b9e;}.cls-2{fill:#63c9d0;}.cls-3{fill:none;}</style></defs><title>download-coupon</title><g id="Layer_2" data-name="Layer 2"><g id="donwnload_page" data-name="donwnload page"><path class="cls-1" d="M9.06,20.66a1.19,1.19,0,0,1-.85-.35L2.69,14.78a1.2,1.2,0,0,1,0-1.7L8,7.78a.42.42,0,0,1,.59,0A1,1,0,0,0,9.95,6.42a.42.42,0,0,1,0-.59l2.89-2.89a1.2,1.2,0,0,1,1.7,0l5.53,5.53a1.2,1.2,0,0,1,0,1.7l-2.89,2.89a.42.42,0,0,1-.3.12h0a.42.42,0,0,1-.3-.12,1,1,0,0,0-1.36,0,1,1,0,0,0,0,1.36.42.42,0,0,1,0,.59L9.91,20.31A1.19,1.19,0,0,1,9.06,20.66Zm-.74-12-5,5a.36.36,0,0,0,0,.51l5.53,5.53a.37.37,0,0,0,.51,0l5-5a1.8,1.8,0,0,1,2.48-2.48l2.63-2.63a.36.36,0,0,0,0-.51L13.95,3.52h0a.37.37,0,0,0-.51,0L10.8,6.16A1.8,1.8,0,0,1,8.32,8.63Z"/><path class="cls-1" d="M16.88,13.17h0a.42.42,0,0,1-.3-.12,1,1,0,0,0-1.36,0,.43.43,0,0,1-.59,0L9.95,8.37a.42.42,0,0,1,0-.59,1,1,0,0,0,0-1.36.42.42,0,0,1,0-.59l2.89-2.89a1.2,1.2,0,0,1,1.7,0l5.53,5.53a1.2,1.2,0,0,1,0,1.7l-2.89,2.89A.42.42,0,0,1,16.88,13.17ZM10.8,8,15,12.2a1.84,1.84,0,0,1,1.88,0l2.63-2.63a.36.36,0,0,0,0-.51L13.95,3.52h0a.37.37,0,0,0-.51,0L10.8,6.16A1.81,1.81,0,0,1,10.8,8Z"/><path class="cls-2" d="M11.06,8a2,2,0,0,0,0-1.81l2.52-2.52a.15.15,0,0,1,.21,0L19.32,9.2a.15.15,0,0,1,0,.21L16.8,11.93a2,2,0,0,0-1.81,0Z"/><path class="cls-1" d="M11.61,14.4H6.29a.42.42,0,1,1,0-.84h5.32a.42.42,0,0,1,0,.84Z"/><path class="cls-1" d="M9,17.22a1.21,1.21,0,1,1,.86-2.07h0A1.21,1.21,0,0,1,9,17.22Zm0-1.58a.37.37,0,1,0,.26.11h0A.37.37,0,0,0,9,15.64Z"/><path class="cls-1" d="M9,13.06A1.21,1.21,0,1,1,9.81,11h0A1.21,1.21,0,0,1,9,13.06Zm0-1.58a.37.37,0,0,0-.26.64.38.38,0,0,0,.53,0,.37.37,0,0,0,0-.53h0A.37.37,0,0,0,9,11.47Z"/><rect class="cls-3" width="22.13" height="22.13"/></g></g></svg>