<svg xmlns="http://www.w3.org/2000/svg" viewBox="0 0 18.13 18.13"><defs><style>.cls-1{fill:#808b9e;}.cls-2{fill:#63c9d0;}.cls-3{fill:#e15050;}.cls-4{fill:none;}</style></defs><title>download-resto</title><g id="Layer_2" data-name="Layer 2"><g id="donwnload_page" data-name="donwnload page"><path class="cls-1" d="M12.74,2.46a1.08,1.08,0,0,1,1,.87L14,4.53a.93.93,0,0,1-.18.78.86.86,0,0,1-.27.22l.34,1.81a1.9,1.9,0,0,1,0,.77,2.45,2.45,0,0,1,.52-.06,2.62,2.62,0,0,1,2.53,2.53,2.71,2.71,0,0,1-.08,1,4,4,0,0,1-1.21,2l-3,2.72-2-1.8H3a1.16,1.16,0,0,1-1.16-1.16V9.23A1.85,1.85,0,0,1,1.1,7.34l.34-1.81a.87.87,0,0,1-.27-.22A.93.93,0,0,1,1,4.53l.25-1.2a1.08,1.08,0,0,1,1-.87H12.74m0-.69H2.26A1.76,1.76,0,0,0,.57,3.19L.32,4.39A1.61,1.61,0,0,0,.64,5.74l.05.06L.42,7.21a2.53,2.53,0,0,0,.76,2.35v3.77A1.85,1.85,0,0,0,3,15.18h7.32l1.79,1.62a.69.69,0,0,0,.92,0l3-2.72a4.64,4.64,0,0,0,1.42-2.37,3.41,3.41,0,0,0,.09-1.2,3.31,3.31,0,0,0-3-3.14q0-.08,0-.16L14.31,5.8l.05-.06a1.61,1.61,0,0,0,.32-1.35l-.25-1.2a1.76,1.76,0,0,0-1.69-1.41Z"/><path class="cls-2" d="M13.24,4.69,13,3.49a.3.3,0,0,0-.25-.24H2.26A.3.3,0,0,0,2,3.49l-.25,1.2a.15.15,0,0,0,0,.13.1.1,0,0,0,.09,0h.49L1.87,7.48a1.08,1.08,0,0,0,.59,1.19l.2.1v4.56a.38.38,0,0,0,.38.38h7.34L10,13.33h-.8a.65.65,0,0,1-.65-.65V10.51a.65.65,0,0,1,.41-.6,2.09,2.09,0,0,1,1.94-1.43,2,2,0,0,1,1.47.66V8.77l.2-.1a1.07,1.07,0,0,0,.59-1.19l-.49-2.63h.49a.1.1,0,0,0,.09,0A.15.15,0,0,0,13.24,4.69ZM5,7.43l.19-2.58H7.3l0,2.6a1.17,1.17,0,0,1-1.19,1.1,1.16,1.16,0,0,1-.84-.36A1,1,0,0,1,5,7.43ZM3.21,8.55a1.07,1.07,0,0,1-.82-.37.93.93,0,0,1-.21-.77L2.6,4.85H4.76L4.5,7.47A1.28,1.28,0,0,1,3.22,8.55Zm4.21,2.5a.65.65,0,0,1-.65.65H4.31a.65.65,0,0,1-.65-.65v-.83a.65.65,0,0,1,.65-.65H6.76a.65.65,0,0,1,.65.65ZM9.77,8.19a1.18,1.18,0,0,1-2-.74l0-2.6H9.85L10,7.43A1,1,0,0,1,9.77,8.19Zm3-.78a.94.94,0,0,1-.21.77,1.08,1.08,0,0,1-.82.37,1.28,1.28,0,0,1-1.27-1.09l-.27-2.62h2.14Z"/><path class="cls-3" d="M10.14,13a3.16,3.16,0,0,1-1-1.62,1.9,1.9,0,0,1-.06-.68h0a1.85,1.85,0,0,1,1.75-1.83,1.66,1.66,0,0,1,1.44.86l.31.53.32-.53a1.72,1.72,0,0,1,1.48-.86,1.85,1.85,0,0,1,1.75,1.83h0a1.92,1.92,0,0,1-.06.68,3.16,3.16,0,0,1-1,1.62l-2.51,2.25Z"/><rect class="cls-4" width="18.13" height="18.13"/></g></g></svg>