<svg xmlns="http://www.w3.org/2000/svg" viewBox="0 0 21.88 21.88"><defs><style>.cls-1{fill:#63c9d0;}.cls-2{fill:#fff;}.cls-3{fill:#ee4a24;}.cls-4{fill:#d2d7de;}.cls-5{fill:#808b9e;}.cls-6{fill:none;}</style></defs><title>download-review</title><g id="Layer_2" data-name="Layer 2"><g id="donwnload_page" data-name="donwnload page"><path class="cls-1" d="M12.5,15.56h-6a.62.62,0,0,1-.61-.61V12.38a1.88,1.88,0,0,0,.69.13,1.79,1.79,0,0,0,.87-.21l2.89-1.64a1.85,1.85,0,0,0,.88-1.49V6.59h7.44a.62.62,0,0,1,.61.62v7.74a.62.62,0,0,1-.61.61H16v2.79Z"/><path class="cls-2" d="M10.75,6.1V9.17a1.37,1.37,0,0,1-.63,1.06L7.22,11.87a1.41,1.41,0,0,1-1.25,0l-.56-.32V7.21a1.11,1.11,0,0,1,.61-1,1.07,1.07,0,0,1,.49-.12Z"/><path class="cls-3" d="M7.22,3.18A1.39,1.39,0,0,0,6,3.18L3.09,4.82a1.35,1.35,0,0,0-.61,1.06V9.17a1.35,1.35,0,0,0,.61,1.06l.62.35L5.11,9l.37-1.1L3.65,6.59H5.9L6.59,4.5l.66,2,2-2.23Z"/><polygon class="cls-2" points="7.7 7.88 8.4 9.99 6.59 8.68 4.77 9.99 5.11 8.99 5.48 7.88 3.65 6.59 5.9 6.6 6.59 4.5 7.25 6.54 7.27 6.6 9.53 6.59 7.7 7.88"/><path class="cls-4" d="M10.75,5.88V9.17a1.37,1.37,0,0,1-.63,1.06L7.22,11.87a1.41,1.41,0,0,1-1.25,0l-.56-.32-1.7-1L5.11,9l-.34,1,.64-.46,1.18-.85L8.4,10,7.7,7.89,9.53,6.59H7.27l0-.06.39-.44L9.22,4.31l.9.51A1.36,1.36,0,0,1,10.75,5.88Z"/><path class="cls-5" d="M6.6,2.51a1.38,1.38,0,0,1,.68.16L9.46,3.93l1,.57a1.53,1.53,0,0,1,.69,1.18v.41h7.54A1.11,1.11,0,0,1,19.79,7.2v7.74A1.11,1.11,0,0,1,18.68,16H16.47v3.32L12.32,16H6.52a1.11,1.11,0,0,1-1.11-1.11V12.07l-2-1.15-.67-.39a1.51,1.51,0,0,1-.67-1.18V5.68A1.51,1.51,0,0,1,2.76,4.5L5.92,2.67a1.39,1.39,0,0,1,.68-.16m0-.83A2.22,2.22,0,0,0,5.5,2L2.34,3.78a2.33,2.33,0,0,0-1.08,1.9V9.35a2.33,2.33,0,0,0,1.08,1.9l.67.39,1.57.91v2.39a1.94,1.94,0,0,0,1.93,1.94H12L16,20a.83.83,0,0,0,1.35-.65V16.88h1.38a1.94,1.94,0,0,0,1.93-1.94V7.2a1.94,1.94,0,0,0-1.93-1.94H11.93a2.36,2.36,0,0,0-1.06-1.48l-1-.57L7.69,2A2.2,2.2,0,0,0,6.6,1.68Z"/><path class="cls-2" d="M17.87,9.43H11.93a.41.41,0,1,1,0-.83h5.95a.41.41,0,1,1,0,.83Z"/><path class="cls-2" d="M17.87,11.35H11.93a.41.41,0,1,1,0-.83h5.95a.41.41,0,1,1,0,.83Z"/><path class="cls-2" d="M17.87,13.15H9a.41.41,0,0,1,0-.83h8.89a.41.41,0,1,1,0,.83Z"/><rect class="cls-6" width="21.88" height="21.88"/></g></g></svg>