<svg xmlns="http://www.w3.org/2000/svg" viewBox="0 0 258.63 512"><defs><style>.cls-1{fill:#fff;}</style></defs><title>facebook_login</title><g id="Layer_2" data-name="Layer 2"><g id="Layer_1-2" data-name="Layer 1"><path class="cls-1" d="M8.26,272.69H64.38V503.74A8.26,8.26,0,0,0,72.64,512H167.8a8.26,8.26,0,0,0,8.26-8.26v-230h64.52a8.26,8.26,0,0,0,8.2-7.31l9.8-85.06a8.26,8.26,0,0,0-8.2-9.2H176.06V118.88c0-16.07,8.65-24.22,25.73-24.22h48.59a8.26,8.26,0,0,0,8.26-8.26V8.32A8.26,8.26,0,0,0,250.38.06h-67c-.47,0-1.52-.06-3.07-.06-11.62,0-52,2.28-83.91,31.63C61.09,64.15,66,103.1,67.18,109.85V172.2H8.26A8.26,8.26,0,0,0,0,180.46v84A8.26,8.26,0,0,0,8.26,272.69Z"/></g></g></svg>