<svg xmlns="http://www.w3.org/2000/svg" viewBox="0 0 21.5 21.5"><defs><style>.cls-1{fill:#f4f4f4;}.cls-2{fill:#b0b9c3;}</style></defs><title>facebook</title><g id="Layer_2" data-name="Layer 2"><g id="footer"><circle class="cls-1" cx="10.75" cy="10.75" r="10.75"/><path class="cls-2" d="M13.9,4.36H12.25A2.9,2.9,0,0,0,9.19,7.5V8.94H7.53a.26.26,0,0,0-.26.26v2.1a.26.26,0,0,0,.26.26H9.19v5.29a.26.26,0,0,0,.26.26h2.17a.26.26,0,0,0,.26-.26V11.56h1.94a.26.26,0,0,0,.26-.26V9.2A.26.26,0,0,0,14,9a.26.26,0,0,0-.18-.08H11.88V7.72c0-.59.14-.89.91-.89H13.9a.26.26,0,0,0,.26-.26V4.62a.26.26,0,0,0-.26-.26Zm0,0"/></g></g></svg>