<svg xmlns="http://www.w3.org/2000/svg" viewBox="0 0 79.13 79.13"><defs><style>.cls-1{fill:#fff;}.cls-2{fill:#808b9e;}.cls-3{fill:#63c9d0;}.cls-4{fill:#eee;}.cls-5{fill:#fcfcfc;}.cls-6{fill:none;}</style></defs><title>feedback_icon</title><g id="Layer_2" data-name="Layer 2"><g id="Layer_1-2" data-name="Layer 1"><polygon class="cls-1" points="63.1 30.95 63.1 58.59 16.32 58.59 16.32 30.95 16.56 30.73 22.22 25.64 22.22 18.22 30.47 18.22 39.71 9.91 48.95 18.22 56.4 18.22 56.4 24.92 62.86 30.73 63.1 30.95"/><path class="cls-2" d="M63.1,59.59H16.32a1,1,0,0,1-1-1V30.95a1,1,0,0,1,.33-.74l.24-.22,5.33-4.8v-7a1,1,0,0,1,1-1h7.87l9-8.05a1,1,0,0,1,1.34,0l9,8.05H56.4a1,1,0,0,1,1,1v6.25l6.38,5.74a1,1,0,0,1,.33.74V58.59A1,1,0,0,1,63.1,59.59Zm-45.78-2H62.1V31.39l-6.37-5.73a1,1,0,0,1-.33-.74v-5.7H48.95a1,1,0,0,1-.67-.26l-8.57-7.71L31.14,19a1,1,0,0,1-.67.26H23.22v6.42a1,1,0,0,1-.33.74l-5.57,5Z"/><polygon class="cls-3" points="19.39 55.63 19.39 32.13 39.71 13.85 60.03 32.13 60.03 55.63 19.39 55.63"/><rect class="cls-1" x="23.59" y="19.84" width="31.44" height="37.12"/><path class="cls-4" d="M51.49,32.63H26.69a.62.62,0,1,1,0-1.22h24.8a.62.62,0,1,1,0,1.22Z"/><path class="cls-4" d="M46.93,36.55H26.69a.62.62,0,1,1,0-1.22H46.93a.62.62,0,1,1,0,1.22Z"/><path class="cls-4" d="M41.23,29.21H26.69a.62.62,0,1,1,0-1.22H41.23a.62.62,0,1,1,0,1.22Z"/><path class="cls-4" d="M38.09,26H26.69a.62.62,0,1,1,0-1.22h11.4a.62.62,0,1,1,0,1.22Z"/><polygon class="cls-1" points="63.1 64.46 16.31 64.46 16.31 36.89 39.71 53.73 63.1 36.89 63.1 64.46"/><path class="cls-2" d="M63.1,65.46H16.31a1,1,0,0,1-1-1V36.89a1,1,0,0,1,1.58-.81L39.71,52.49,62.52,36.08a1,1,0,0,1,1.58.81V64.46A1,1,0,0,1,63.1,65.46Zm-45.79-2H62.1V38.84L40.29,54.54a1,1,0,0,1-1.17,0L17.31,38.84Z"/><polygon class="cls-3" points="19.39 61.21 19.39 40.63 39.71 55.26 60.03 40.63 60.03 61.21 19.39 61.21"/><polygon class="cls-5" points="39.42 43.37 16.03 64.4 62.81 64.4 39.42 43.37"/><path class="cls-2" d="M62.81,65.4H16a1,1,0,0,1-.67-1.74l23.39-21a1,1,0,0,1,1.34,0l23.39,21a1,1,0,0,1-.67,1.74Zm-44.18-2H60.21L39.42,44.71Z"/><polygon class="cls-3" points="22.17 61.16 39.44 45.63 56.7 61.16 22.17 61.16"/><rect class="cls-6" width="79.13" height="79.13"/></g></g></svg>