<svg xmlns="http://www.w3.org/2000/svg" viewBox="0 0 49.07 49.07"><defs><style>.cls-1{fill:none;}.cls-2{fill:#f03759;}</style></defs><title>ic_rate_full</title><g id="Layer_2" data-name="Layer 2"><g id="Layer_1-2" data-name="Layer 1"><rect class="cls-1" width="49.07" height="49.07"/><path class="cls-2" d="M40.06,10.09,24.85,1.31a7.19,7.19,0,0,0-6.51,0L3.21,10.09A7.2,7.2,0,0,0,0,15.75V33.32A7.2,7.2,0,0,0,3.21,39l15.11,8.78a7.26,7.26,0,0,0,6.54,0L40.05,39a7.32,7.32,0,0,0,3.32-5.66V15.75A7.31,7.31,0,0,0,40.06,10.09Zm-9,27.59-9.53-7-9.53,7,3.71-11.23-9.6-6.9,11.83.06,3.6-11.26,3.6,11.26L37,19.55l-9.6,6.9Z"/></g></g></svg>