<svg xmlns="http://www.w3.org/2000/svg" viewBox="0 0 17.77 17.77"><defs><style>.cls-1{fill:none;}.cls-2{fill:#808b9e;}</style></defs><title>funny</title><g id="Layer_2" data-name="Layer 2"><g id="search_result" data-name="search result"><rect class="cls-1" width="17.77" height="17.77"/><path class="cls-2" d="M8.88.9a8,8,0,1,0,8,8A8,8,0,0,0,8.88.9Zm0,14.38a6.39,6.39,0,1,1,6.39-6.39A6.39,6.39,0,0,1,8.89,15.28Zm2.8-7.19a1.2,1.2,0,1,0-1.2-1.2A1.2,1.2,0,0,0,11.68,8.09Zm-5.59,0a1.2,1.2,0,1,0-1.2-1.2A1.2,1.2,0,0,0,6.09,8.09Zm2.8,5.19A4.39,4.39,0,0,0,13,10.48H4.8A4.39,4.39,0,0,0,8.89,13.28Z"/></g></g></svg>