<svg xmlns="http://www.w3.org/2000/svg" viewBox="0 0 253 253"><defs><style>.cls-1{fill:#ffd34f;}.cls-2{fill:none;stroke:#cc9a3f;stroke-miterlimit:10;stroke-width:10px;}.cls-3{fill:#cc9a3f;}</style></defs><title>gold</title><g id="Layer_2" data-name="Layer 2"><g id="Layer_1-2" data-name="Layer 1"><circle class="cls-1" cx="126.5" cy="126.5" r="126.5"/><circle class="cls-2" cx="126.5" cy="126.5" r="107.5"/><path class="cls-3" d="M131.42,126.45l6.65-21.07a8.62,8.62,0,0,1,6.18-5.78l21.47-5.24A8.62,8.62,0,0,1,174,96.85l14.57,15.57a8.62,8.62,0,0,1,1.93,8.49L183.89,142a8.62,8.62,0,0,1-6.18,5.78L156.25,153a8.62,8.62,0,0,1-8.34-2.49l-14.56-15.56a8.62,8.62,0,0,1-1.93-8.49"/><path class="cls-3" d="M79,164.61l6.65-21.07a8.62,8.62,0,0,1,6.18-5.78l21.46-5.24a8.62,8.62,0,0,1,8.34,2.49l14.56,15.56a8.62,8.62,0,0,1,1.93,8.49l-6.65,21.07a8.62,8.62,0,0,1-6.18,5.78l-21.46,5.24a8.62,8.62,0,0,1-8.34-2.49L81,173.1A8.62,8.62,0,0,1,79,164.61"/><path class="cls-3" d="M74.58,99.73l6.94-22a7.76,7.76,0,0,1,5.56-5.21L109.51,67A7.76,7.76,0,0,1,117,69.28l15.25,16.3A7.76,7.76,0,0,1,134,93.22l-6.95,22a7.76,7.76,0,0,1-5.56,5.21l-22.42,5.47a7.76,7.76,0,0,1-7.51-2.24l-15.25-16.3a7.76,7.76,0,0,1-1.73-7.64"/><path class="cls-3" d="M63.13,148.39a3.84,3.84,0,0,1-2.81-1.22l-8.7-9.3a3.85,3.85,0,0,1-.86-3.78l3.95-12.51A3.86,3.86,0,0,1,57.47,119l12.75-3.11A3.85,3.85,0,0,1,73.93,117l8.7,9.3a3.84,3.84,0,0,1,.86,3.78L79.54,142.6a3.86,3.86,0,0,1-2.75,2.57L64,148.29A3.84,3.84,0,0,1,63.13,148.39Zm8-31.82a3,3,0,0,0-.72.09l-12.75,3.11a3.07,3.07,0,0,0-2.19,2.05l-3.95,12.51a3.06,3.06,0,0,0,.68,3l8.7,9.3a3.06,3.06,0,0,0,3,.88l12.75-3.11a3.07,3.07,0,0,0,2.19-2l3.95-12.51a3.06,3.06,0,0,0-.68-3l-8.7-9.3A3.06,3.06,0,0,0,71.13,116.57Z"/><path class="cls-3" d="M59.69,160.89l1.8-5.71A1.73,1.73,0,0,1,62.73,154l5.82-1.42a1.72,1.72,0,0,1,1.67.5l4,4.24a1.73,1.73,0,0,1,.39,1.7l-1.8,5.71a1.72,1.72,0,0,1-1.24,1.16l-5.82,1.42a1.72,1.72,0,0,1-1.67-.5l-4-4.24a1.73,1.73,0,0,1-.39-1.7"/><path class="cls-3" d="M148.3,89.55a3.85,3.85,0,0,1-2.81-1.22l-8.7-9.3a3.84,3.84,0,0,1-.86-3.78l3.95-12.52a3.86,3.86,0,0,1,2.75-2.58l12.75-3.11a3.85,3.85,0,0,1,3.71,1.11l8.7,9.3a3.85,3.85,0,0,1,.86,3.78l-3.95,12.52A3.86,3.86,0,0,1,162,86.33l-12.75,3.11A3.82,3.82,0,0,1,148.3,89.55Zm8-31.82a3,3,0,0,0-.72.09l-12.75,3.11A3.08,3.08,0,0,0,140.63,63l-3.95,12.52a3.06,3.06,0,0,0,.68,3l8.7,9.3a3.06,3.06,0,0,0,3,.88l12.75-3.11A3.07,3.07,0,0,0,164,83.52L167.91,71a3.06,3.06,0,0,0-.68-3l-8.7-9.3A3.06,3.06,0,0,0,156.29,57.73Z"/><path class="cls-3" d="M118.53,63.34l1.8-5.71a1.72,1.72,0,0,1,1.24-1.16L127.39,55a1.73,1.73,0,0,1,1.67.5l4,4.24a1.73,1.73,0,0,1,.39,1.7l-1.8,5.71a1.72,1.72,0,0,1-1.24,1.16l-5.82,1.42a1.72,1.72,0,0,1-1.67-.5l-4-4.24a1.73,1.73,0,0,1-.39-1.7"/><path class="cls-3" d="M152.94,196.4a3.84,3.84,0,0,1-2.81-1.22l-8.7-9.3a3.85,3.85,0,0,1-.86-3.78l3.95-12.51a3.86,3.86,0,0,1,2.75-2.58L160,163.9a3.85,3.85,0,0,1,3.72,1.11l8.7,9.29a3.85,3.85,0,0,1,.86,3.78l-3.95,12.52a3.86,3.86,0,0,1-2.75,2.58l-12.75,3.11A3.84,3.84,0,0,1,152.94,196.4Zm8-31.82a3,3,0,0,0-.72.09l-12.75,3.11a3.07,3.07,0,0,0-2.19,2.05l-3.95,12.51a3.06,3.06,0,0,0,.68,3l8.7,9.3a3.06,3.06,0,0,0,3,.88l12.75-3.11a3.07,3.07,0,0,0,2.19-2.05l3.95-12.52a3.07,3.07,0,0,0-.68-3l-8.7-9.29A3.06,3.06,0,0,0,160.94,164.58Z"/><path class="cls-3" d="M169.63,160.89l1.8-5.71a1.72,1.72,0,0,1,1.24-1.16l5.82-1.42a1.73,1.73,0,0,1,1.67.5l4,4.24a1.73,1.73,0,0,1,.38,1.7l-1.8,5.71a1.73,1.73,0,0,1-1.24,1.16l-5.82,1.42a1.72,1.72,0,0,1-1.67-.5l-4-4.24a1.72,1.72,0,0,1-.38-1.7"/></g></g></svg>