<svg xmlns="http://www.w3.org/2000/svg" viewBox="0 0 37.5 37.5"><defs><style>.cls-1{fill:#edf0f5;}.cls-2{fill:#eda2c0;}.cls-3{fill:#fff;}.cls-4{fill:#1052a0;}.cls-5{fill:#363636;}.cls-6{fill:#d62222;}</style></defs><title>icon_business_info</title><g id="Layer_2" data-name="Layer 2"><g id="search_result" data-name="search result"><circle class="cls-1" cx="18.75" cy="18.75" r="18.75"/><rect class="cls-2" x="7.5" y="12" width="22.5" height="11.92"/><rect class="cls-3" x="7.5" y="23.92" width="22.5" height="1.58"/><rect class="cls-4" x="7.5" y="12" width="5.88" height="11.91"/><rect class="cls-5" x="23.42" y="13.38" width="4.85" height="1.04"/><rect class="cls-3" x="8.19" y="13.38" width="4.85" height="1.04"/><rect class="cls-6" x="7.5" y="21.91" width="5.88" height="0.26"/><polygon class="cls-3" points="9.8 19.88 11.54 22.36 8.77 21.14 7.5 23.86 7.5 18.03 7.62 18.09 8.9 15.34 9.23 18.35 12.25 18.09 9.8 19.88"/><rect class="cls-5" x="13.56" y="24.29" width="0.11" height="1.04"/><path class="cls-5" d="M18.43,25.33h-.22v-1h.22Zm-.43,0h-.22v-1H18Zm-.43,0h-.22v-1h.22Zm-.43,0h-.22v-1h.22Zm-.43,0h-.22v-1h.22Zm-.43,0H16v-1h.22Zm-.43,0h-.22v-1h.22Zm-.43,0h-.22v-1h.22Zm-.43,0h-.22v-1H15Zm-.43,0h-.22v-1h.22Zm-.43,0h-.22v-1h.22Z"/><rect class="cls-5" x="18.64" y="24.29" width="0.11" height="1.04"/><rect class="cls-5" x="18.75" y="24.29" width="0.11" height="1.04"/><path class="cls-5" d="M23.62,25.33H23.4v-1h.22Zm-.43,0H23v-1h.22Zm-.43,0h-.22v-1h.22Zm-.43,0H22.1v-1h.22Zm-.43,0h-.22v-1h.22Zm-.43,0h-.22v-1h.22Zm-.43,0h-.22v-1H21Zm-.43,0h-.22v-1h.22Zm-.43,0h-.22v-1h.22Zm-.43,0h-.22v-1h.22Zm-.43,0h-.22v-1h.22Z"/><rect class="cls-5" x="23.83" y="24.29" width="0.11" height="1.04"/></g></g></svg>