<svg xmlns="http://www.w3.org/2000/svg" viewBox="0 0 21.5 21.5"><defs><style>.cls-1{fill:#f4f4f4;}.cls-2{fill:#b0b9c3;}</style></defs><title>instagram</title><g id="Layer_2" data-name="Layer 2"><g id="footer"><circle class="cls-1" cx="10.75" cy="10.75" r="10.75"/><path class="cls-2" d="M16.07,5.43A1.42,1.42,0,0,0,15,5H6.47A1.48,1.48,0,0,0,5,6.47V15A1.48,1.48,0,0,0,6.47,16.5H15A1.48,1.48,0,0,0,16.5,15V6.47a1.42,1.42,0,0,0-.43-1ZM9.13,9.14a2.36,2.36,0,0,1,3.26,0,2.19,2.19,0,0,1,0,3.17,2.36,2.36,0,0,1-3.26,0,2.19,2.19,0,0,1,0-3.17Zm6.07,5.57a.44.44,0,0,1-.13.33.45.45,0,0,1-.32.13h-8a.45.45,0,0,1-.46-.46V9.87H7.34a3.23,3.23,0,0,0-.15,1,3.29,3.29,0,0,0,1,2.45,3.5,3.5,0,0,0,2.52,1,3.6,3.6,0,0,0,1.8-.46,3.5,3.5,0,0,0,1.3-1.26,3.32,3.32,0,0,0,.48-1.74,3.23,3.23,0,0,0-.15-1h1ZM15.2,8a.51.51,0,0,1-.52.52h-1.3A.51.51,0,0,1,12.86,8V6.8A.5.5,0,0,1,13,6.43a.49.49,0,0,1,.37-.15h1.3a.49.49,0,0,1,.37.15.5.5,0,0,1,.15.36Zm0,0"/></g></g></svg>