<svg xmlns="http://www.w3.org/2000/svg" viewBox="0 0 21.5 21.5"><defs><style>.cls-1{fill:#f4f4f4;}.cls-2{fill:#b0b9c3;}</style></defs><title>linkedin</title><g id="Layer_2" data-name="Layer 2"><g id="footer"><circle class="cls-1" cx="10.75" cy="10.75" r="10.75"/><path class="cls-2" d="M16,11.88v3.88H13.75V12.14c0-.91-.33-1.53-1.14-1.53a1.23,1.23,0,0,0-1.15.82,1.54,1.54,0,0,0-.07.55v3.78H9.13s0-6.13,0-6.77h2.25v1h0v0a2.24,2.24,0,0,1,2-1.12c1.48,0,2.59,1,2.59,3ZM6.77,5.73a1.17,1.17,0,1,0,0,2.34h0a1.17,1.17,0,1,0,0-2.34Zm-1.14,10H7.88V9H5.63Zm0,0"/></g></g></svg>