<svg xmlns="http://www.w3.org/2000/svg" viewBox="0 0 79.13 79.13"><defs><style>.cls-1{fill:#fcfcfc;}.cls-2{fill:#808b9e;}.cls-3{fill:#63c9d0;}.cls-4{fill:#e15050;}.cls-5{fill:none;}</style></defs><title>logout</title><g id="Layer_2" data-name="Layer 2"><g id="Layer_1-2" data-name="Layer 1"><circle class="cls-1" cx="28.33" cy="40.48" r="4.74"/><path class="cls-2" d="M28.33,46.23a5.74,5.74,0,1,1,5.74-5.74A5.75,5.75,0,0,1,28.33,46.23Zm0-9.48a3.74,3.74,0,1,0,3.74,3.74A3.75,3.75,0,0,0,28.33,36.74Z"/><circle class="cls-3" cx="28.33" cy="40.48" r="3.11"/><polygon class="cls-2" points="41.94 23.3 51.42 23.3 51.42 9.07 13.48 9.07 37.19 23.45 37.19 63.74 8.73 51.76 8.73 56.5 41.94 71.03 41.94 56.5 51.42 56.5 51.42 42.27 41.94 42.27 41.94 23.3"/><polygon class="cls-1" points="56.16 28.05 46.68 28.05 46.68 37.53 56.16 37.53 56.16 47.02 70.39 32.79 56.16 18.56 56.16 28.05"/><path class="cls-2" d="M56.16,48a1,1,0,0,1-1-1V38.53H46.68a1,1,0,0,1-1-1V28a1,1,0,0,1,1-1h8.49V18.56a1,1,0,0,1,1.71-.71L71.1,32.08a1,1,0,0,1,0,1.41L56.87,47.72A1,1,0,0,1,56.16,48ZM47.68,36.53h8.49a1,1,0,0,1,1,1V44.6L69,32.79,57.16,21V28a1,1,0,0,1-1,1H47.68Z"/><polygon class="cls-4" points="58.85 34.85 49.36 34.85 49.36 30.73 58.85 30.73 58.85 25.04 66.6 32.79 58.85 40.54 58.85 34.85"/><rect class="cls-5" width="79.13" height="79.13"/></g></g></svg>