<svg xmlns="http://www.w3.org/2000/svg" viewBox="0 0 213.86 68.95"><defs><style>.cls-1{fill:#64c6ca;}.cls-2{fill:#ec4a24;}.cls-3{fill:#ee5972;}.cls-4{fill:#69c5c7;}</style></defs><title>logo-vynd</title><g id="Layer_2" data-name="Layer 2"><g id="header"><path class="cls-1" d="M82.81,56.44h-.66a1.39,1.39,0,0,1-1.28-.85L65.17,18.5a1.39,1.39,0,0,1,1.28-1.93H67a2,2,0,0,1,1.48.63,2.62,2.62,0,0,1,.47.75L82.48,50.1,96,17.94A2.15,2.15,0,0,1,98,16.57h.51a1.39,1.39,0,0,1,1.28,1.93L84.09,55.59a1.39,1.39,0,0,1-1.28.85"/><path class="cls-1" d="M117.11,69h-.52a1.39,1.39,0,0,1-1.27-2l5.94-13.33L105.89,18.39a1.39,1.39,0,0,1,1.27-1.95h.52a2.08,2.08,0,0,1,1.4.52,2.37,2.37,0,0,1,.62.87l13.56,31.29,13.57-31.32a2.15,2.15,0,0,1,1.94-1.35h.52a1.39,1.39,0,0,1,1.27,1.94L119.27,67.31a3.13,3.13,0,0,1-.55.9,2.09,2.09,0,0,1-1.61.75"/><path class="cls-1" d="M174.41,56.42h-.88A1.39,1.39,0,0,1,172.14,55V31.3a18.86,18.86,0,0,0-.61-5,9.37,9.37,0,0,0-1.77-3.52,7.41,7.41,0,0,0-2.93-2.13,11.36,11.36,0,0,0-4.35-.76,13,13,0,0,0-7.06,2,20,20,0,0,0-5.62,5.5V55a1.39,1.39,0,0,1-1.39,1.39h-.88A1.39,1.39,0,0,1,146.13,55V27.31a1.39,1.39,0,0,1,.2-.71l.85-1.43a22.78,22.78,0,0,1,3-3.64,19.66,19.66,0,0,1,3.63-2.77A17.67,17.67,0,0,1,158,17a16.34,16.34,0,0,1,4.51-.63c4.42,0,7.8,1.37,10,4.08s3.29,6.28,3.29,10.87V55a1.39,1.39,0,0,1-1.39,1.39"/><path class="cls-1" d="M198.18,56.27c-5.11,0-9.08-1.69-11.81-5s-4-8.22-4-14.79a27.64,27.64,0,0,1,1.05-7.72,18.71,18.71,0,0,1,3.23-6.42A15.63,15.63,0,0,1,192.06,18a17,17,0,0,1,7.52-1.6,16.08,16.08,0,0,1,7.61,1.75,13.23,13.23,0,0,1,2.28,1.54.44.44,0,0,0,.72-.34V1.83a1.83,1.83,0,1,1,3.66,0V45.39a1.4,1.4,0,0,1-.19.71l-.88,1.49a20.84,20.84,0,0,1-6.33,6.31,15.36,15.36,0,0,1-8.27,2.37m1.4-36.39a13.43,13.43,0,0,0-6,1.24,11.73,11.73,0,0,0-4.17,3.41,15.45,15.45,0,0,0-2.55,5.24,24.8,24.8,0,0,0-.87,6.7c0,5.64,1.06,9.84,3.14,12.47s5,3.82,9,3.82a11.93,11.93,0,0,0,6.7-2,18.59,18.59,0,0,0,5.24-5.32.45.45,0,0,0,.08-.25V26a.45.45,0,0,0-.08-.25,13.13,13.13,0,0,0-4.5-4.43,12.64,12.64,0,0,0-6-1.4"/><path class="cls-1" d="M35.86,34.55l2.95-9.35a3.83,3.83,0,0,1,2.74-2.57l9.52-2.32a3.83,3.83,0,0,1,3.7,1.1l6.46,6.91a3.83,3.83,0,0,1,.85,3.76l-2.95,9.35A3.83,3.83,0,0,1,56.4,44l-9.52,2.32a3.83,3.83,0,0,1-3.7-1.1l-6.46-6.9a3.83,3.83,0,0,1-.86-3.76"/><path class="cls-2" d="M12.62,51.48l2.95-9.35a3.83,3.83,0,0,1,2.74-2.57l9.52-2.32a3.83,3.83,0,0,1,3.7,1.1L38,45.25A3.83,3.83,0,0,1,38.85,49l-2.95,9.35a3.82,3.82,0,0,1-2.74,2.57l-9.52,2.32a3.83,3.83,0,0,1-3.7-1.1l-6.46-6.91a3.83,3.83,0,0,1-.85-3.76"/><path class="cls-3" d="M10.64,22.7l3.08-9.77a3.44,3.44,0,0,1,2.47-2.31l9.95-2.43a3.44,3.44,0,0,1,3.33,1l6.77,7.23A3.44,3.44,0,0,1,37,19.81l-3.08,9.77a3.44,3.44,0,0,1-2.47,2.31l-9.95,2.43a3.44,3.44,0,0,1-3.33-1l-6.77-7.23a3.44,3.44,0,0,1-.77-3.39"/><path class="cls-3" d="M5.56,44.29a1.71,1.71,0,0,1-1.25-.54L.46,39.62a1.71,1.71,0,0,1-.38-1.68l1.75-5.55a1.71,1.71,0,0,1,1.22-1.14l5.66-1.38a1.71,1.71,0,0,1,1.65.49l3.86,4.13a1.71,1.71,0,0,1,.38,1.68l-1.75,5.55a1.71,1.71,0,0,1-1.22,1.14L6,44.24A1.7,1.7,0,0,1,5.56,44.29ZM9.11,30.17a1.35,1.35,0,0,0-.32,0L3.13,31.59a1.36,1.36,0,0,0-1,.91L.41,38a1.36,1.36,0,0,0,.3,1.34l3.86,4.13a1.36,1.36,0,0,0,1.31.39l5.66-1.38a1.36,1.36,0,0,0,1-.91l1.75-5.55a1.36,1.36,0,0,0-.3-1.34L10.1,30.6A1.36,1.36,0,0,0,9.11,30.17Z"/><path class="cls-3" d="M4,49.83l.8-2.54a.77.77,0,0,1,.55-.51L8,46.15a.76.76,0,0,1,.74.22l1.76,1.88a.77.77,0,0,1,.17.75l-.8,2.53a.76.76,0,0,1-.55.51l-2.58.63A.76.76,0,0,1,6,52.47L4.21,50.58A.77.77,0,0,1,4,49.83"/><path class="cls-4" d="M43.35,18.18a1.71,1.71,0,0,1-1.25-.54l-3.86-4.12a1.7,1.7,0,0,1-.38-1.68l1.75-5.55a1.71,1.71,0,0,1,1.22-1.14L46.5,3.76a1.71,1.71,0,0,1,1.65.49L52,8.38a1.71,1.71,0,0,1,.38,1.68l-1.75,5.55a1.71,1.71,0,0,1-1.22,1.14l-5.66,1.38A1.7,1.7,0,0,1,43.35,18.18ZM46.9,4.06a1.35,1.35,0,0,0-.32,0L40.92,5.48a1.36,1.36,0,0,0-1,.91L38.2,11.94a1.36,1.36,0,0,0,.3,1.33l3.86,4.12a1.36,1.36,0,0,0,1.31.39l5.66-1.38a1.36,1.36,0,0,0,1-.91l1.75-5.55a1.36,1.36,0,0,0-.3-1.33L47.89,4.49A1.36,1.36,0,0,0,46.9,4.06Z"/><path class="cls-1" d="M30.15,6.55,30.95,4a.76.76,0,0,1,.55-.51l2.58-.63a.77.77,0,0,1,.74.22L36.58,5a.77.77,0,0,1,.17.75l-.8,2.53a.77.77,0,0,1-.55.51l-2.58.63a.77.77,0,0,1-.74-.22L30.32,7.3a.77.77,0,0,1-.17-.75"/><path class="cls-2" d="M45.41,65.58A1.71,1.71,0,0,1,44.17,65l-3.86-4.13a1.71,1.71,0,0,1-.38-1.68l1.75-5.55a1.71,1.71,0,0,1,1.22-1.14l5.66-1.38a1.71,1.71,0,0,1,1.65.49l3.86,4.12a1.71,1.71,0,0,1,.38,1.68L52.69,63a1.71,1.71,0,0,1-1.22,1.14l-5.66,1.38A1.7,1.7,0,0,1,45.41,65.58ZM49,51.47a1.34,1.34,0,0,0-.32,0L43,52.89a1.36,1.36,0,0,0-1,.91l-1.75,5.55a1.36,1.36,0,0,0,.3,1.34l3.86,4.13a1.36,1.36,0,0,0,1.31.39l5.66-1.38a1.36,1.36,0,0,0,1-.91l1.75-5.55a1.36,1.36,0,0,0-.3-1.34L50,51.9A1.36,1.36,0,0,0,49,51.47Z"/><path class="cls-2" d="M52.82,49.83l.8-2.53a.76.76,0,0,1,.55-.51l2.58-.63a.77.77,0,0,1,.74.22l1.76,1.88a.77.77,0,0,1,.17.75l-.8,2.53a.77.77,0,0,1-.55.51l-2.58.63a.77.77,0,0,1-.74-.22L53,50.58a.77.77,0,0,1-.17-.75"/></g></g></svg>