<svg xmlns="http://www.w3.org/2000/svg" viewBox="0 0 83.74 27"><defs><style>.cls-1{fill:#fff;}</style></defs><title>logo_white</title><g id="Layer_2" data-name="Layer 2"><g id="search_result" data-name="search result"><path class="cls-1" d="M32.43,22.1h-.26a.54.54,0,0,1-.5-.33L25.52,7.25a.54.54,0,0,1,.5-.76h.2a.76.76,0,0,1,.58.25A1,1,0,0,1,27,7L32.3,19.62,37.61,7a.84.84,0,0,1,.76-.53h.2a.54.54,0,0,1,.5.76L32.93,21.77a.55.55,0,0,1-.5.33"/><path class="cls-1" d="M45.86,27h-.2a.54.54,0,0,1-.5-.77L47.48,21l-6-13.82a.54.54,0,0,1,.5-.76h.2a.81.81,0,0,1,.55.2A.93.93,0,0,1,43,7l5.31,12.25L53.58,7a.84.84,0,0,1,.76-.53h.2a.54.54,0,0,1,.5.76L46.7,26.36a1.22,1.22,0,0,1-.21.35.82.82,0,0,1-.63.29"/><path class="cls-1" d="M68.29,22.09h-.35a.54.54,0,0,1-.54-.54V12.26a7.38,7.38,0,0,0-.24-2,3.67,3.67,0,0,0-.69-1.38,2.9,2.9,0,0,0-1.15-.83,4.45,4.45,0,0,0-1.7-.3,5.09,5.09,0,0,0-2.77.8,7.83,7.83,0,0,0-2.2,2.15V21.55a.54.54,0,0,1-.54.54h-.35a.54.54,0,0,1-.54-.54V10.69a.54.54,0,0,1,.08-.28l.33-.56a8.92,8.92,0,0,1,1.19-1.43,7.7,7.7,0,0,1,1.42-1.09,6.92,6.92,0,0,1,1.61-.7,6.4,6.4,0,0,1,1.77-.24A4.84,4.84,0,0,1,67.55,8a6.5,6.5,0,0,1,1.29,4.26v9.29a.54.54,0,0,1-.54.54"/><path class="cls-1" d="M77.6,22a5.67,5.67,0,0,1-4.63-2c-1-1.27-1.57-3.22-1.57-5.79a10.82,10.82,0,0,1,.41-3,7.33,7.33,0,0,1,1.26-2.51A6.12,6.12,0,0,1,75.21,7a6.64,6.64,0,0,1,2.94-.63,6.3,6.3,0,0,1,3,.68,5.18,5.18,0,0,1,.89.6.17.17,0,0,0,.28-.13V.72a.72.72,0,1,1,1.43,0V17.77a.55.55,0,0,1-.08.28l-.35.58a8.16,8.16,0,0,1-2.48,2.47A6,6,0,0,1,77.6,22m.55-14.25a5.26,5.26,0,0,0-2.34.48A4.59,4.59,0,0,0,74.18,9.6a6,6,0,0,0-1,2.05,9.71,9.71,0,0,0-.34,2.62,7.88,7.88,0,0,0,1.23,4.88,4.2,4.2,0,0,0,3.53,1.5,4.67,4.67,0,0,0,2.62-.79,7.28,7.28,0,0,0,2.05-2.08.18.18,0,0,0,0-.1V10.16a.18.18,0,0,0,0-.1,5.14,5.14,0,0,0-1.76-1.74,5,5,0,0,0-2.37-.55"/><path class="cls-1" d="M14,13.53,15.2,9.87a1.5,1.5,0,0,1,1.07-1L20,8a1.5,1.5,0,0,1,1.45.43L24,11.09a1.5,1.5,0,0,1,.33,1.47l-1.15,3.66a1.5,1.5,0,0,1-1.07,1l-3.73.91a1.5,1.5,0,0,1-1.45-.43L14.38,15A1.5,1.5,0,0,1,14,13.53"/><path class="cls-1" d="M4.94,20.16,6.1,16.5a1.5,1.5,0,0,1,1.07-1l3.73-.91a1.5,1.5,0,0,1,1.45.43l2.53,2.7a1.5,1.5,0,0,1,.33,1.47l-1.15,3.66a1.5,1.5,0,0,1-1.07,1l-3.73.91a1.5,1.5,0,0,1-1.45-.43l-2.53-2.7a1.5,1.5,0,0,1-.33-1.47"/><path class="cls-1" d="M4.17,8.89,5.37,5.06a1.35,1.35,0,0,1,1-.9l3.9-1a1.35,1.35,0,0,1,1.3.39l2.65,2.83a1.35,1.35,0,0,1,.3,1.33l-1.21,3.82a1.35,1.35,0,0,1-1,.9l-3.9.95A1.35,1.35,0,0,1,7.12,13L4.47,10.21a1.35,1.35,0,0,1-.3-1.33"/><path class="cls-1" d="M2.18,17.34a.67.67,0,0,1-.49-.21L.18,15.51A.67.67,0,0,1,0,14.86l.69-2.17a.67.67,0,0,1,.48-.45l2.22-.54a.67.67,0,0,1,.65.19L5.57,13.5a.67.67,0,0,1,.15.66L5,16.33a.67.67,0,0,1-.48.45l-2.21.54Zm1.39-5.53-.13,0-2.22.54a.53.53,0,0,0-.38.36L.16,14.9a.53.53,0,0,0,.12.52L1.79,17a.53.53,0,0,0,.51.15l2.21-.54a.53.53,0,0,0,.38-.36l.69-2.17a.53.53,0,0,0-.12-.52L4,12A.53.53,0,0,0,3.57,11.81Z"/><path class="cls-1" d="M1.58,19.51l.31-1a.3.3,0,0,1,.21-.2l1-.25a.3.3,0,0,1,.29.09l.69.74a.3.3,0,0,1,.07.29l-.31,1a.3.3,0,0,1-.21.2l-1,.25a.3.3,0,0,1-.29-.09l-.69-.74a.3.3,0,0,1-.07-.29"/><path class="cls-1" d="M17,7.12a.67.67,0,0,1-.49-.21L15,5.29a.67.67,0,0,1-.15-.66l.69-2.17A.67.67,0,0,1,16,2l2.22-.54a.67.67,0,0,1,.65.19l1.51,1.61a.67.67,0,0,1,.15.66l-.69,2.17a.67.67,0,0,1-.48.45l-2.22.54Zm1.39-5.53-.13,0L16,2.15a.53.53,0,0,0-.38.36L15,4.68a.53.53,0,0,0,.12.52l1.51,1.62A.53.53,0,0,0,17.1,7l2.22-.54a.53.53,0,0,0,.38-.36l.69-2.17a.53.53,0,0,0-.12-.52L18.75,1.76A.53.53,0,0,0,18.36,1.59Z"/><path class="cls-1" d="M11.8,2.56l.31-1a.3.3,0,0,1,.21-.2l1-.25a.3.3,0,0,1,.29.09l.69.74a.3.3,0,0,1,.07.29l-.31,1a.3.3,0,0,1-.21.2l-1,.25a.3.3,0,0,1-.29-.09l-.69-.74a.3.3,0,0,1-.07-.29"/><path class="cls-1" d="M17.78,25.68a.67.67,0,0,1-.49-.21l-1.51-1.62a.67.67,0,0,1-.15-.66L16.32,21a.67.67,0,0,1,.48-.45L19,20a.67.67,0,0,1,.65.19l1.51,1.61a.67.67,0,0,1,.15.66l-.69,2.17a.67.67,0,0,1-.48.45l-2.22.54Zm1.39-5.53-.13,0-2.22.54a.53.53,0,0,0-.38.36l-.69,2.17a.53.53,0,0,0,.12.52l1.51,1.62a.53.53,0,0,0,.51.15L20.12,25a.53.53,0,0,0,.38-.36l.69-2.17a.53.53,0,0,0-.12-.52l-1.51-1.61A.53.53,0,0,0,19.17,20.15Z"/><path class="cls-1" d="M20.68,19.51l.31-1a.3.3,0,0,1,.21-.2l1-.25a.3.3,0,0,1,.29.09l.69.74a.3.3,0,0,1,.07.29l-.31,1a.3.3,0,0,1-.21.2l-1,.25a.3.3,0,0,1-.29-.09l-.69-.74a.3.3,0,0,1-.07-.29"/></g></g></svg>