<svg xmlns="http://www.w3.org/2000/svg" viewBox="0 0 392.62 512.11"><defs><style>.cls-1{fill:#63c9d0;}.cls-2{fill:#7fdadd;}.cls-3{fill:#f2f2f2;}.cls-4{fill:#ee4a24;}</style></defs><title>nearby</title><g id="Layer_2" data-name="Layer 2"><g id="Capa_1" data-name="Capa 1"><path class="cls-1" d="M392.62,196.31C392.62,304.71,263.14,495,196.31,495,126.58,495,0,304.71,0,196.31S87.91,0,196.31,0,392.62,87.91,392.62,196.31Z"/><path class="cls-2" d="M196.31,25.61c103.79,0,188.75,80.62,195.78,182.62.32-4.05.53-8,.53-11.92C392.62,87.91,304.71,0,196.31,0S0,87.91,0,196.31c0,3.88.2,7.9.52,12C7.53,106.25,92.5,25.61,196.31,25.61Z"/><circle class="cls-3" cx="196.31" cy="187.77" r="136.57"/><path class="cls-4" d="M281.66,512.11H102.42a8.54,8.54,0,1,1,0-17.07H281.66a8.54,8.54,0,0,1,0,17.07Z"/><path class="cls-4" d="M273.13,153.63c0-18.85-11.46-34.14-25.61-34.14s-25.6,15.29-25.6,34.14c0,15,7.34,27.65,17.46,32.21a8.16,8.16,0,0,0-.39,1.93v68.28a8.54,8.54,0,1,0,17.07,0V187.77a8.19,8.19,0,0,0-.39-1.93C265.79,181.29,273.13,168.66,273.13,153.63Z"/><path class="cls-4" d="M153.63,264.59a8.53,8.53,0,0,1-8.54-8.54V187.77a8.54,8.54,0,0,1,17.07,0v68.28A8.53,8.53,0,0,1,153.63,264.59Z"/><path class="cls-4" d="M136.56,170.7a8.53,8.53,0,0,1-8.54-8.54V119.49a8.54,8.54,0,1,1,17.07,0v42.68A8.53,8.53,0,0,1,136.56,170.7Z"/><path class="cls-4" d="M170.7,170.7a8.53,8.53,0,0,1-8.54-8.54V119.49a8.54,8.54,0,1,1,17.07,0v42.68A8.53,8.53,0,0,1,170.7,170.7Z"/><polygon class="cls-4" points="196.31 365.36 209.59 392.27 239.28 396.58 217.79 417.53 222.87 447.1 196.31 433.14 169.75 447.1 174.83 417.53 153.34 396.58 183.03 392.27 196.31 365.36"/><path class="cls-4" d="M68.28,512.11H17.07a8.54,8.54,0,1,1,0-17.07H68.28a8.54,8.54,0,0,1,0,17.07Z"/><path class="cls-4" d="M367,512.11H315.8a8.54,8.54,0,0,1,0-17.07H367a8.54,8.54,0,0,1,0,17.07Z"/><path class="cls-4" d="M196.31,264.59a8.53,8.53,0,0,1-8.54-8.54V239a8.54,8.54,0,1,1,17.07,0v17.07A8.54,8.54,0,0,1,196.31,264.59Z"/></g></g></svg>