<svg xmlns="http://www.w3.org/2000/svg" viewBox="0 0 421.7 350.44"><defs><style>.cls-1{fill:#5bbabc;}.cls-2{fill:#d2d7de;}.cls-3{fill:#63c9d0;}.cls-4{fill:#ee4a24;}.cls-5{fill:#363636;}.cls-6{fill:#fff;}.cls-7{fill:#f05a75;}.cls-8{fill:#ddd;}.cls-9{fill:#51b4bb;}.cls-10{fill:none;stroke:#63c9d0;stroke-linecap:round;stroke-miterlimit:10;stroke-width:10px;}.cls-11{fill:#edf0f5;}</style></defs><title>notfound</title><g id="Layer_2" data-name="Layer 2"><g id="Layer_1-2" data-name="Layer 1"><ellipse class="cls-1" cx="111.83" cy="252.62" rx="6.83" ry="35.84" transform="translate(-151.54 336.03) rotate(-83.7)"/><path class="cls-2" d="M52,242.78c-3.48,6.71,7,9.7,21.42,9.34,5.8-.14,11.4-2.07,8.78-5.58-4-5.37-9.34-4.32-13.14-5.37C63.5,239.63,54.24,238.54,52,242.78Z"/><path class="cls-3" d="M146.42,171.24c-16.05,15.55-1.81,21.16,22.4,75.11,16.8,37.44,30.84,105.25,54.63,94.6s24.81-82.09,8-119.54C212.05,178.12,162.29,155.88,146.42,171.24Z"/><ellipse class="cls-3" cx="152.99" cy="234.43" rx="57.41" ry="14.51" transform="translate(-121.68 288.46) rotate(-68)"/><path class="cls-4" d="M233.9,220.46c20.15,40.12,2,62.12,40.12,42.53,32-16.44,46.23-42.62,23.69-73.68-30.5-42-82.45-54.28-105.33-38.78-7.17,4.86-19.94,13.65-4.08,22.27C206.85,182.88,222.39,197.53,233.9,220.46Z"/><path class="cls-2" d="M130.69,334.8c4.72,2.32,19.61,6.61,44.22,8.45,47.53,3.55,44.57,3.7,45.23-6.49.33-5.25-19.32-10.85-43.94-12.51S124.84,331.91,130.69,334.8Z"/><path class="cls-2" d="M174.07,339.74s-10.4-.39-16.31,2.08c-12.27,5.14-13.84,12.58,3.43,6.06a99.34,99.34,0,0,1,21.68-5Z"/><path class="cls-2" d="M155.14,338.57s-9.61-4.61-16-3.9c-14.48,1.61-18.35,6.65,1,6.89,10.91.14,22.5.62,22.5.62Z"/><path class="cls-5" d="M63.89,277.88c1.07.94,2.25.94,2.67,0l16.69-20.37a1.81,1.81,0,0,0-.14-2.87L24,209c-1.78-1.26-2.8-1-3.83-.4L.33,227.53c-.54.86-.62,1.64,1.25,2.94Z"/><path class="cls-6" d="M57.33,269.65c.71.7,1.52.67,1.84-.07l15-17.44a1.54,1.54,0,0,0,0-2.25l-47.25-37c-1.19-.93-2-.78-2.75-.25L7,229.93c-.4.69-.57,1.2.67,2.16Z"/><path class="cls-7" d="M7,229.93l17.18-17.31c.73-.53,1.56-.68,2.75.25l6.23,4.88L14.36,237.13l-6.67-5C6.45,231.13,6.62,230.62,7,229.93Z"/><path class="cls-8" d="M42.36,257.4c-4.76,5.87,1.65,14.44,15.87,17,5.71,1,10.2.65,9.72-3.7-1.65-14.94-5.29-6.41-8.79-8.2C54,259.85,45.36,253.69,42.36,257.4Z"/><path class="cls-3" d="M64.77,268.56l-2.7-3.7c7,1.19,20.52,1.21,39.55,3.88,21,2.94,37.53,3.87,37.52,12.11,0,14.66-18,7.51-38.6,1.46-16.26-4.76-42.46-9.37-44.63-12.82Z"/><path class="cls-2" d="M78.92,250.12s-11.42,2.56-13,.69c-2.25-2.68,7-4.6,7.68-5.06S78.92,250.12,78.92,250.12Z"/><path class="cls-4" d="M239,229.16s-3.42-.93-36-10.71c-6.48-1.95-26.73-7-26.73-7l2-9.61s46.36,12.44,51.55,6.48Z"/><path class="cls-9" d="M178.1,187.92a33.31,33.31,0,0,1,.69,8.41c-.06,1.41-.12,2.82-.27,4.22l-.21,2.11-.3,2.09a115.89,115.89,0,0,1-3.72,16.44c-.38,1.35-.84,2.68-1.28,4l-1.34,4c-1,2.61-2,5.25-3.08,7.82s-2.25,5.13-3.45,7.65-2.53,5-3.91,7.44c.77-2.7,1.66-5.35,2.54-8s1.71-5.3,2.63-7.92l2.58-7.92c.79-2.65,1.71-5.27,2.44-7.94l1.2-4,1.09-4c.4-1.33.71-2.67,1-4s.67-2.68,1-4l.46-2,.4-2c.3-1.35.51-2.71.74-4.08A50.51,50.51,0,0,0,178.1,187.92Z"/><path class="cls-4" d="M165.9,184.65s9.14-11.78,27.18-9.11c0,0-6.88-4-7.2-4.2s-37.08-3-33.06,30.51Z"/><path class="cls-3" d="M119.61,243.9c-14.49,18.73,14.07,51.91,40.48,78.22,27.57,27.47,62.2,31.16,76.69,12.43s-2.47-45.66-29.88-70.92C178.86,237.81,134.1,225.17,119.61,243.9Z"/><path class="cls-9" d="M137.12,235.22a38.68,38.68,0,0,1,7.1-.86,60.4,60.4,0,0,1,7.18.16,73.83,73.83,0,0,1,14.15,2.6,93.43,93.43,0,0,1,26,12.16,122.72,122.72,0,0,1,21.83,18.62,143.42,143.42,0,0,1,17.37,22.66,248.27,248.27,0,0,0-19-21c-1.72-1.61-3.39-3.27-5.16-4.81L204,262.38l-2.72-2.24L199.89,259l-1.39-1.08-2.78-2.15c-1.92-1.34-3.79-2.76-5.78-4S186,249.27,184,248s-4.09-2.27-6.19-3.3a100.08,100.08,0,0,0-12.94-5.39A85.36,85.36,0,0,0,151.23,236a67.13,67.13,0,0,0-7-.79A47.23,47.23,0,0,0,137.12,235.22Z"/><path class="cls-10" d="M241.7,325.82c5.43,3.43,27,16.19,51.78,9.76,33.51-8.69,45.11-45.19,48-54.35,9.5-29.87,1-56.62-4.86-75.33-7.35-23.26-12.52-22.71-30.15-62.84-12.78-29.08-19.17-44-19.3-60.71C287.1,71.82,287,43,309.46,22.47,324.09,9.13,347.92.39,371.92,7.58c3.16.95,29.77,9.41,40.56,37,1.74,4.44,8.78,24-.38,45.72-1.78,4.21-10.23,24.27-32.48,32.1-3.6,1.26-24.31,8.55-43.6-4-18.07-11.72-20.68-31.6-21-34.13-.53-4.63-2.24-19.63,8.19-31.92,10-11.79,27.1-16.23,41.49-11.31,2.79,1,15.77,5.78,21.43,19.41,1.12,2.7,7.84,18.89-2.21,29.16-6.83,7-18.68,8.45-29,3.21"/><path class="cls-3" d="M64.31,155.59c-12.06-14.7-27.19-33.89-38.95-19C3,165,12.76,180.27,24.82,195S63.3,211.48,78,199.41,76.37,170.28,64.31,155.59Z"/><path class="cls-11" d="M55.72,163.38c-7-8.56-15.83-19.74-22.68-11-13,16.52-7.34,25.41-.31,34s22.4,9.61,31,2.59S62.74,171.93,55.72,163.38Z"/><path class="cls-3" d="M178.06,84.85c2.14,20,.6,46.5,21.5,39.92,39.7-12.5,40.15-31.72,38-51.74s-26.34-36.79-48.2-34.45S175.91,64.83,178.06,84.85Z"/><path class="cls-11" d="M179.25,88c1.32,12.36.37,28.71,13.27,24.64C217,104.88,217.3,93,216,80.66s-16.26-22.71-29.76-21.27S177.92,75.59,179.25,88Z"/><circle class="cls-11" cx="96.31" cy="95.91" r="95.68"/><path class="cls-3" d="M48,160.39c1.07,10,2.66,14.32,8,22.31a95.71,95.71,0,0,1-34.25-26.83C25.36,156.67,36.74,166,48,160.39Z"/><path class="cls-3" d="M152.24,101.16c8-9.05,11.72-27.46,7.8-39.87-5.49-17.39-20.23-38.55-46.68-40.79C87.85,18.34,57,36.72,57,63.61c-7.5-4.29-14.87-9.26-24.13-9.26A51.12,51.12,0,0,0,7.11,61.3,95.68,95.68,0,1,1,167,160.39C167.72,156.65,190.71,120.32,152.24,101.16Z"/><circle class="cls-6" cx="104.6" cy="95.91" r="21.7"/><circle class="cls-5" cx="104.6" cy="95.91" r="18.98"/><ellipse class="cls-6" cx="111.46" cy="84.79" rx="7.45" ry="8.77" transform="translate(-20.27 132.33) rotate(-57.1)"/><ellipse class="cls-6" cx="99.69" cy="103" rx="8.8" ry="10.35" transform="translate(-40.94 130.76) rotate(-57.1)"/><circle class="cls-6" cx="52.53" cy="126.36" r="20.49"/><circle class="cls-5" cx="52.53" cy="126.36" r="17.92"/><ellipse class="cls-6" cx="59.01" cy="115.86" rx="7.04" ry="8.28" transform="translate(-70.32 102.48) rotate(-57.1)"/><ellipse class="cls-6" cx="47.89" cy="133.05" rx="8.09" ry="9.51" transform="translate(-89.83 100.99) rotate(-57.1)"/><rect class="cls-11" x="80.41" y="65.09" width="48.39" height="18.24" rx="0.67" ry="0.67" transform="translate(209.21 148.41) rotate(180)"/><path class="cls-11" d="M31.8,139.7l9.57-21.82,9.87-22.5-16.7-7.33L15.1,132.37Z"/><path class="cls-5" d="M34.47,133.24c2.65-6.37,5.46-12.68,8.18-19s5.57-12.63,8.46-18.9l.27.12A55.54,55.54,0,0,1,49,105.72c-.48,1.67-1.12,3.27-1.69,4.91s-1.3,3.2-2,4.8-1.44,3.14-2.2,4.69-1.56,3.08-2.47,4.57a54.93,54.93,0,0,1-6,8.68Z"/><path class="cls-5" d="M122.28,83.48a71.68,71.68,0,0,1-11.95,1.72c-2,.19-4,.19-6,.29s-4,0-6,0-4-.15-5.95-.28-4-.28-5.94-.56A72.51,72.51,0,0,1,74.68,82.4v-.3l23.8.39,23.8.69Z"/></g></g></svg>