<svg xmlns="http://www.w3.org/2000/svg" viewBox="0 0 36.7 36.7"><defs><style>.cls-1{fill:none;}.cls-2{fill:#d2d7de;}</style></defs><title>popularite</title><g id="Layer_2" data-name="Layer 2"><g id="search_result" data-name="search result"><rect class="cls-1" width="36.7" height="36.7"/><path class="cls-2" d="M34.46,12.27c-.47-5.2-4.15-9-8.75-9a8.7,8.7,0,0,0-7.45,4.3A8.38,8.38,0,0,0,11,3.3c-4.6,0-8.28,3.77-8.75,9a9.27,9.27,0,0,0,.28,3.41A14.63,14.63,0,0,0,7,23.16L18.25,33.4,29.71,23.16a14.63,14.63,0,0,0,4.48-7.48A9.28,9.28,0,0,0,34.46,12.27Z"/></g></g></svg>