<svg xmlns="http://www.w3.org/2000/svg" viewBox="0 0 34.83 34.83"><defs><style>.cls-1{fill:none;}.cls-2{fill:#d2d7de;}</style></defs><title>price</title><g id="Layer_2" data-name="Layer 2"><g id="search_result" data-name="search result"><rect class="cls-1" width="34.83" height="34.83"/><path class="cls-2" d="M15.27,34V30.11a16.31,16.31,0,0,1-6.89-1.74l1.22-4.74a14.31,14.31,0,0,0,6.73,1.78c2.31,0,3.89-.89,3.89-2.51s-1.3-2.51-4.3-3.53c-4.34-1.46-7.3-3.49-7.3-7.42,0-3.57,2.51-6.37,6.85-7.22V.87h4V4.44a14.6,14.6,0,0,1,5.88,1.34l-1.18,4.58A13.45,13.45,0,0,0,18.31,9c-2.64,0-3.49,1.14-3.49,2.27,0,1.34,1.42,2.19,4.87,3.49,4.82,1.7,6.77,3.93,6.77,7.58S23.9,29,19.24,29.82V34Z"/></g></g></svg>