<svg xmlns="http://www.w3.org/2000/svg" viewBox="0 0 28.28 28.28"><defs><style>.cls-1{fill:none;}.cls-2{fill:#66c8cf;}.cls-3{fill:#40b449;}</style></defs><title>rate_up</title><g id="Layer_2" data-name="Layer 2"><g id="search_result" data-name="search result"><rect class="cls-1" width="28.28" height="28.28"/><path class="cls-2" d="M16.78,15l.12.38.46-.8Zm0,0,.12.38.46-.8Zm1.64,5L14.2,16.86,10,20l1.64-5L7.39,11.94l5.23,0L14.2,7l1.59,5,3.08,0,2.67-4.63L15.62,3.88a3.13,3.13,0,0,0-2.85,0L6,7.76a3.24,3.24,0,0,0-1.47,2.5V18A3.25,3.25,0,0,0,6,20.53l6.71,3.88a3.24,3.24,0,0,0,2.91,0l4-2.37V17.52H17.61Zm-1.05-5.39-.59.42.12.38Z"/><rect class="cls-3" x="21.52" y="14.44" width="3.2" height="10.31"/><polygon class="cls-3" points="27.43 15.7 23.12 8.24 18.82 15.7 27.43 15.7"/></g></g></svg>