<svg xmlns="http://www.w3.org/2000/svg" viewBox="0 0 28.28 28.28"><defs><style>.cls-1{fill:none;}.cls-2{fill:#66c8cf;}.cls-3{fill:#ed2525;}</style></defs><title>rate_down</title><g id="Layer_2" data-name="Layer 2"><g id="search_result" data-name="search result"><rect class="cls-1" width="28.28" height="28.28"/><polygon class="cls-2" points="16.81 14.99 19.73 12.89 19.73 15.47 16.97 15.47 16.81 14.99"/><path class="cls-2" d="M19.73,6.47v5.48l-3.91,0L14.24,7l-1.59,5-5.23,0L11.66,15,10,20l4.21-3.09,3.92,2.88,1.4,2.42L15.69,24.4a3.25,3.25,0,0,1-2.91,0L6.06,20.53A3.27,3.27,0,0,1,4.56,18V10.26A3.26,3.26,0,0,1,6,7.76l6.76-3.88a3.16,3.16,0,0,1,2.87,0l4.05,2.35v.24Z"/><rect class="cls-3" x="21.55" y="8.24" width="3.2" height="10.31"/><polygon class="cls-3" points="27.46 17.29 23.15 24.75 18.85 17.29 27.46 17.29"/></g></g></svg>