<svg xmlns="http://www.w3.org/2000/svg" viewBox="0 0 45.04 45.04"><defs><style>.cls-1{fill:none;}.cls-2{fill:#d6ddec;}.cls-3{fill:#aeb8d1;}.cls-4{fill:#e05050;}.cls-5{fill:#808a9d;}.cls-6{fill:#00d1b8;}</style></defs><title>restaurant_icon</title><g id="Layer_2" data-name="Layer 2"><g id="footer"><rect class="cls-1" width="45.04" height="45.04"/><path class="cls-2" d="M11.88,23.5v-3a3,3,0,0,0-1.47-2.58A4.48,4.48,0,0,1,8.14,14c0-4.91,1.8-8.22,4.48-8.22s4.48,3.3,4.48,8.22a4.48,4.48,0,0,1-2.27,3.89,3,3,0,0,0-1.47,2.58v3Z"/><rect class="cls-3" x="11.88" y="22.65" width="1.47" height="0.85"/><path class="cls-4" d="M12.61,41a1.9,1.9,0,0,1-1.9-2l.52-15a.11.11,0,0,1,.11-.11h2.54A.11.11,0,0,1,14,24l.52,15a1.9,1.9,0,0,1-1.9,2Z"/><path class="cls-5" d="M12.62,5.32c2.75,0,5,3.14,5,8.72a5,5,0,0,1-2.53,4.33,2.45,2.45,0,0,0-1.21,2.14v2.88h0a.62.62,0,0,1,.62.6L15,39a2.4,2.4,0,0,1-2.4,2.49h0A2.41,2.41,0,0,1,10.21,39l.52-15a.62.62,0,0,1,.62-.6h0V20.51a2.44,2.44,0,0,0-1.21-2.13A5,5,0,0,1,7.63,14c0-5.58,2.23-8.72,5-8.72m0-1.7C9.29,3.62,5.93,6.84,5.93,14a6.69,6.69,0,0,0,3.39,5.81.75.75,0,0,1,.35.66V22.4A2.32,2.32,0,0,0,9,23.93l-.52,15a4.11,4.11,0,1,0,8.21,0l-.52-15a2.32,2.32,0,0,0-.64-1.53V20.51a.76.76,0,0,1,.35-.66A6.69,6.69,0,0,0,19.3,14c0-7.2-3.36-10.42-6.68-10.42Z"/><path class="cls-2" d="M30.95,23.5V19.09L30.58,19a3.88,3.88,0,0,1-2.75-3.69V5.94a.11.11,0,0,1,.23,0v8.73a1.13,1.13,0,1,0,2.26,0V5.94a.11.11,0,1,1,.23,0v8.73a1.13,1.13,0,1,0,2.26,0V5.94a.11.11,0,0,1,.23,0v8.73a1.13,1.13,0,1,0,2.26,0V5.94a.11.11,0,0,1,.11-.11.11.11,0,0,1,.11.11v9.35A3.88,3.88,0,0,1,32.78,19l-.36.11V23.5Z"/><rect class="cls-3" x="30.95" y="22.65" width="1.47" height="0.85"/><path class="cls-6" d="M31.68,41a1.9,1.9,0,0,1-1.9-2l.52-15a.11.11,0,0,1,.11-.11H33a.11.11,0,0,1,.11.11l.52,15a1.9,1.9,0,0,1-1.9,2Z"/><path class="cls-5" d="M35.42,5.32a.62.62,0,0,1,.62.62v9.35a4.37,4.37,0,0,1-3.12,4.18v3.92h0a.62.62,0,0,1,.62.6l.52,15a2.4,2.4,0,0,1-2.4,2.49h0A2.41,2.41,0,0,1,29.27,39l.52-15a.62.62,0,0,1,.62-.6h0V19.47a4.37,4.37,0,0,1-3.12-4.18V5.94a.62.62,0,0,1,1.25,0v8.72a.62.62,0,1,0,1.25,0V5.94a.62.62,0,0,1,1.25,0v8.72a.62.62,0,1,0,1.25,0V5.94a.62.62,0,0,1,1.25,0v8.72a.62.62,0,1,0,1.25,0V5.94a.62.62,0,0,1,.62-.62m0-1.7A2.31,2.31,0,0,0,34.18,4a2.32,2.32,0,0,0-2.49,0,2.32,2.32,0,0,0-2.49,0,2.32,2.32,0,0,0-3.57,2v9.35a6.1,6.1,0,0,0,3.12,5.29V22.4a2.32,2.32,0,0,0-.64,1.53l-.52,15a4.11,4.11,0,1,0,8.21,0l-.52-15a2.32,2.32,0,0,0-.64-1.53V20.58a6.1,6.1,0,0,0,3.12-5.29V5.94a2.32,2.32,0,0,0-2.32-2.32Z"/></g></g></svg>