<svg xmlns="http://www.w3.org/2000/svg" viewBox="0 0 21.5 21.5"><defs><style>.cls-1{fill:#f4f4f4;}.cls-2{fill:#b0b9c3;}</style></defs><title>snapchat</title><g id="Layer_2" data-name="Layer 2"><g id="footer"><circle class="cls-1" cx="10.75" cy="10.75" r="10.75"/><path class="cls-2" d="M10.75,16.35H10.6A2.4,2.4,0,0,1,9,15.82a2.1,2.1,0,0,0-.82-.43,2.72,2.72,0,0,0-.44,0,3,3,0,0,0-.62.07,1.61,1.61,0,0,1-.29,0,.35.35,0,0,1-.36-.26c0-.1,0-.19-.07-.28a2,2,0,0,0-.06-.23c-.95-.15-1.45-.36-1.58-.67a.41.41,0,0,1,0-.14A.32.32,0,0,1,5,13.54a3.41,3.41,0,0,0,2.31-1.95.48.48,0,0,0,.06-.39c-.08-.19-.42-.29-.62-.36l-.18-.06c-.6-.24-.68-.52-.64-.72a.67.67,0,0,1,.87-.41,1.26,1.26,0,0,0,.51.14l.15,0V9.53a6,6,0,0,1,.16-2.44,3.23,3.23,0,0,1,3-1.94h.23a3.24,3.24,0,0,1,3,1.94A6,6,0,0,1,14,9.53v.24l.13,0a1.32,1.32,0,0,0,.47-.14.63.63,0,0,1,.26-.05.74.74,0,0,1,.28.05.56.56,0,0,1,.41.48c0,.26-.21.48-.65.65l-.16.06c-.22.07-.55.17-.63.36a.46.46,0,0,0,.05.37v0a3.32,3.32,0,0,0,2.27,2,.32.32,0,0,1,.27.34.41.41,0,0,1,0,.14c-.13.31-.61.51-1.54.66a2,2,0,0,0-.06.23c0,.09,0,.19-.07.28a.34.34,0,0,1-.35.26l-.3,0a3.07,3.07,0,0,0-.62-.07,2.73,2.73,0,0,0-.44,0,2.12,2.12,0,0,0-.82.43,3,3,0,0,1-1.77.53"/></g></g></svg>