<svg xmlns="http://www.w3.org/2000/svg" viewBox="0 0 9.1 10"><defs><style>.cls-1{fill:#0db434;}</style></defs><title>supp_info</title><g id="Layer_2" data-name="Layer 2"><g id="search_result" data-name="search result"><path class="cls-1" d="M8,9.12a.29.29,0,0,1-.29.29H.88a.29.29,0,0,1-.29-.29V9H6.9a.58.58,0,0,0,.58-.58V.58A.58.58,0,0,0,6.9,0H.58A.58.58,0,0,0,0,.58V8.42H0v.7A.88.88,0,0,0,.88,10H7.66a.88.88,0,0,0,.88-.88V7.91H8V9.12Zm-6.29-6a.6.6,0,0,1,.19-.41l.37-.37a.35.35,0,0,1,.53,0l.3.3.29.29a.35.35,0,0,1,0,.54L3,3.8a.07.07,0,0,0,0,.1,2.14,2.14,0,0,0,.33.53,3.82,3.82,0,0,0,.92.84l.24.13a.08.08,0,0,0,.1,0L4.92,5a.35.35,0,0,1,.53,0L6,5.6a.35.35,0,0,1,0,.54c-.11.11-.23.22-.34.34a.67.67,0,0,1-.57.22,2.37,2.37,0,0,1-.91-.26A5,5,0,0,1,2.59,5.15a4.54,4.54,0,0,1-.8-1.33A1.71,1.71,0,0,1,1.66,3.08Z"/><path class="cls-1" d="M8.75,3.3H8V5h.78a.35.35,0,0,0,.35-.35v-1A.35.35,0,0,0,8.75,3.3Z"/><path class="cls-1" d="M8.75,5.58H8V7.3h.78a.35.35,0,0,0,.35-.35v-1A.35.35,0,0,0,8.75,5.58Z"/><path class="cls-1" d="M8.75,1H8V2.74h.78a.35.35,0,0,0,.35-.35v-1A.35.35,0,0,0,8.75,1Z"/></g></g></svg>