<svg xmlns="http://www.w3.org/2000/svg" viewBox="0 0 39.68 39.68"><defs><style>.cls-1{fill:none;}.cls-2{fill:#d2d7de;}.cls-3{fill:#f05a75;}</style></defs><title>upload_photo</title><g id="Layer_2" data-name="Layer 2"><g id="body"><path class="cls-1" d="M19.32,16.29a4.44,4.44,0,1,0,4.52,4.44A4.48,4.48,0,0,0,19.32,16.29Zm0,7.1A2.66,2.66,0,1,1,22,20.73,2.69,2.69,0,0,1,19.32,23.39Z"/><ellipse class="cls-1" cx="25.93" cy="17.8" rx="0.63" ry="0.62"/><path class="cls-1" d="M0,0V39.68H39.68V0ZM10.28,25.16v-8a1.8,1.8,0,0,1,1.81-1.77h2.17A.81.81,0,0,0,15,14.9l.56-1.65a.81.81,0,0,1,.72-.5H22.4a.81.81,0,0,1,.71.5l.56,1.65a.81.81,0,0,0,.71.51h2.17a1.8,1.8,0,0,1,1.81,1.77v8a1.8,1.8,0,0,1-1.81,1.77H12.08A1.8,1.8,0,0,1,10.28,25.16Z"/><path class="cls-2" d="M19.32,16.29a4.44,4.44,0,1,0,4.52,4.44A4.48,4.48,0,0,0,19.32,16.29Zm0,7.1A2.66,2.66,0,1,1,22,20.73,2.69,2.69,0,0,1,19.32,23.39Z"/><ellipse class="cls-2" cx="25.93" cy="17.8" rx="0.63" ry="0.62"/><path class="cls-2" d="M19.32,1.33A18.69,18.69,0,0,0,.45,19.84,18.69,18.69,0,0,0,19.32,38.35a19.15,19.15,0,0,0,7.73-1.62,7.25,7.25,0,0,1-1.37-4.26,7.48,7.48,0,0,1,7.55-7.4,7.61,7.61,0,0,1,3.85,1,18.14,18.14,0,0,0,1.11-6.26A18.7,18.7,0,0,0,19.32,1.33Zm9,23.83a1.8,1.8,0,0,1-1.81,1.77H12.08a1.8,1.8,0,0,1-1.81-1.77v-8a1.8,1.8,0,0,1,1.81-1.77h2.17A.81.81,0,0,0,15,14.9l.56-1.65a.81.81,0,0,1,.72-.5H22.4a.81.81,0,0,1,.71.5l.56,1.65a.81.81,0,0,0,.71.51h2.17a1.8,1.8,0,0,1,1.81,1.77Z"/><path class="cls-3" d="M33.23,26.59a5.88,5.88,0,1,0,6,5.88A5.94,5.94,0,0,0,33.23,26.59Zm3.58,6.63H34V36H32.47V33.21H29.65v-1.5h2.82V29H34v2.77h2.82Z"/></g></g></svg>