<svg xmlns="http://www.w3.org/2000/svg" viewBox="0 0 64 64"><defs><style>.cls-1{fill:#edf0f5;}.cls-2{fill:#fff;}.cls-3{fill:#d2d7de;}.cls-4{fill:#b1bac4;}</style></defs><title>user</title><g id="Layer_2" data-name="Layer 2"><g id="Layer_1-2" data-name="Layer 1"><g id="Layer_2-2" data-name="Layer 2"><g id="Layer_1-2-2" data-name="Layer 1-2"><rect class="cls-1" width="64" height="64"/><path class="cls-1" d="M64,32A32,32,0,1,1,32,0,32,32,0,0,1,64,32Z"/><path class="cls-2" d="M32,48a13.31,13.31,0,0,1-9.6-4.18,24.7,24.7,0,0,1-.47,5.41,1.06,1.06,0,0,1,.52.77c.53,4.33,4.64,7.6,9.55,7.6s9-3.27,9.55-7.6a1.05,1.05,0,0,1,.52-.77,24.71,24.71,0,0,1-.47-5.42A13.31,13.31,0,0,1,32,48Z"/><path class="cls-3" d="M41.39,44a13.08,13.08,0,0,1-18.5.32l-.5-.52a24.7,24.7,0,0,1-.47,5.41,1.06,1.06,0,0,1,.52.77,8.12,8.12,0,0,0,2.56,5C31.44,54,38.72,47.69,41.39,44Z"/><path class="cls-2" d="M41.6,21.34H23.47a5.34,5.34,0,0,0-5.33,5.33v6.4C18.13,41.31,24.35,48,32,48s13.87-6.7,13.87-14.93V25.61a4.27,4.27,0,0,0-4.27-4.27Z"/><path class="cls-4" d="M39.47,9.61H25.6a4.28,4.28,0,0,0-4.15,3.26,7.48,7.48,0,0,0-6.52,7.41v5.33a9.55,9.55,0,0,0,3.2,7.14V26.68a5.34,5.34,0,0,1,5.33-5.33H41.6a4.27,4.27,0,0,1,4.27,4.27h0v7.13a9.54,9.54,0,0,0,3.2-7.13v-6.4a9.61,9.61,0,0,0-9.6-9.6Z"/><path class="cls-4" d="M64,64H0L8.21,53.34a8,8,0,0,1,4.31-3h.13l8.52-1.28h.19a1.07,1.07,0,0,1,1.09.94c.55,4.33,4.64,7.6,9.55,7.6s9-3.27,9.55-7.53a1.07,1.07,0,0,1,1.06-.94h.22l8.52,1.28h.13C53.21,50.9,62.94,62.54,64,64Z"/></g></g></g></g></svg>