<svg xmlns="http://www.w3.org/2000/svg" viewBox="0 0 17.77 17.77"><defs><style>.cls-1{fill:none;}.cls-2{fill:#808b9e;}</style></defs><title>utile</title><g id="Layer_2" data-name="Layer 2"><g id="search_result" data-name="search result"><rect class="cls-1" width="17.77" height="17.77"/><path class="cls-2" d="M.9,16.15H3.8V7.43H.9Zm16-8a1.46,1.46,0,0,0-1.45-1.45H10.84l.69-3.32,0-.23a1.09,1.09,0,0,0-.32-.77l-.77-.76L5.68,6.41a1.42,1.42,0,0,0-.43,1V14.7a1.46,1.46,0,0,0,1.45,1.45h6.54a1.44,1.44,0,0,0,1.34-.89l2.19-5.12a1.43,1.43,0,0,0,.1-.53V8.22h0Z"/></g></g></svg>