<svg xmlns="http://www.w3.org/2000/svg" viewBox="0 0 170.36 188.52"><defs><style>.cls-1{fill:#68c9cf;}.cls-2{fill:#ffcd00;}.cls-3{fill:#ffda44;}</style></defs><title>vynd-point</title><g id="Layer_2" data-name="Layer 2"><g id="Layer_1-2" data-name="Layer 1"><path class="cls-1" d="M157.52,37.53,97.87,3.06C90.82-1,79.39-1,72.34,3.06L12.75,37.53C5.7,41.61,0,51.62,0,59.76v69c0,8.15,5.75,18.15,12.8,22.24l59.43,34.47c7.05,4.08,18.69,4.08,25.75,0L157.47,151c7.05-4.08,12.89-14.09,12.89-22.24v-69C170.36,51.62,164.57,41.61,157.52,37.53Z"/><path class="cls-2" d="M143.29,76.22,104.8,68.09,85.18,34v94.47l35.91,16.05-4.17-39.12Zm0,0"/><path class="cls-3" d="M65.56,68.09,27.07,76.22l26.36,29.19-4.17,39.12,35.91-16.05V34Zm0,0"/></g></g></svg>