<svg xmlns="http://www.w3.org/2000/svg" viewBox="0 0 10.4 11.51"><defs><style>.cls-1{fill:#fff;}</style></defs><title>white_hex</title><g id="Layer_2" data-name="Layer 2"><g id="search_result" data-name="search result"><path class="cls-1" d="M9.65,2.29,6,.19a1.7,1.7,0,0,0-1.55,0L.81,2.29A1.77,1.77,0,0,0,0,3.65V7.86A1.78,1.78,0,0,0,.82,9.21l3.64,2.1a1.76,1.76,0,0,0,1.58,0l3.6-2.1a1.71,1.71,0,0,0,.76-1.36V3.65A1.7,1.7,0,0,0,9.65,2.29ZM7.54,8.9,5.25,7.23,3,8.9l.89-2.69L1.56,4.56H4.39l.86-2.7.86,2.7H8.95L6.65,6.21Z"/></g></g></svg>